SplineFontDB: 3.2
FontName: Kritzelei-02-Regular
FullName: Kritzelei-02 Regular
FamilyName: Kritzelei-02
Weight: Regular
Copyright: FONT_LICENSE
UComments: "FONT_COMMENT"
Version: 1.0
ItalicAngle: 0
UnderlinePosition: -204.8
UnderlineWidth: 102.4
Ascent: 1638
Descent: 410
InvalidEm: 0
LayerCount: 2
Layer: 0 0 "Back" 1
Layer: 1 0 "Fore" 0
XUID: [1021 677 -1964504846 13026374]
OS2Version: 0
OS2_WeightWidthSlopeOnly: 0
OS2_UseTypoMetrics: 1
CreationTime: 1682329145
ModificationTime: 1682329145
OS2TypoAscent: 0
OS2TypoAOffset: 1
OS2TypoDescent: 0
OS2TypoDOffset: 1
OS2TypoLinegap: 0
OS2WinAscent: 0
OS2WinAOffset: 1
OS2WinDescent: 0
OS2WinDOffset: 1
HheadAscent: 0
HheadAOffset: 1
HheadDescent: 0
HheadDOffset: 1
OS2Vendor: 'PfEd'
Lookup: 4 0 0 "extra-ligatures" { "dlig"  } ['dlig' ('latn' <'dflt' > ) ]
Lookup: 4 0 1 "ligatures" { "liga"  } ['liga' ('latn' <'dflt' > ) ]
Lookup: 1 0 0 "+ACIA-ss02+ACIA Style Set 2 lookup" { "ss02"  } ['ss02' ('latn' <'dflt' > ) ]
Lookup: 1 1 0 "+ACIA-ss01+ACIA Style Set 1 lookup" { "ss01"  } ['ss01' ('latn' <'dflt' > ) ]
DEI: 91125
Encoding: UnicodeFull
UnicodeInterp: none
NameList: AGL For New Fonts
DisplaySize: -48
AntiAlias: 1
FitToEm: 0
Grid
-2048 775.89 m 1
 3686.4 775.89 l 1025
-2048 1502.8 m 1
 3686.4 1502.8 l 1025
EndSplineSet
BeginChars: 1114112 170

StartChar: A
Encoding: 65 65 14
Width: 1745
VWidth: 3004
Flags: HW
LayerCount: 2
Fore
SplineSet
1026 528 m 0
 1026 577 1014 713 985 713 c 0
 958 713 934 609 934 567 c 0
 934 542 943 526 962 507 c 0
 982 487 996 478 1006 478 c 0
 1020 478 1026 495 1026 528 c 0
201 683 m 0
 201 572 189 436 189 332 c 0
 189 186 240 102 394 102 c 0
 440 102 500 118 529 137 c 0
 571 164 692 331 692 393 c 0
 692 409 661 448 623 478 c 0
 545 540 481 646 481 777 c 0
 481 875 487 899 553 921 c 0
 560 923 567 924 573 924 c 0
 603 924 632 901 703 827 c 0
 761 768 814 720 817 720 c 0
 823 720 839 752 855 790 c 0
 914 928 978 1184 1010 1371 c 0
 1026 1470 1049 1563 1060 1576 c 0
 1071 1589 1095 1601 1114 1601 c 0
 1150 1601 1183 1557 1183 1513 c 0
 1183 1491 1177 1463 1167 1424 c 0
 1151 1358 1142 1201 1142 969 c 0
 1142 774 1148 592 1158 563 c 0
 1166 531 1185 508 1206 508 c 0
 1225 508 1247 516 1257 526 c 0
 1268 536 1346 579 1434 624 c 0
 1527 670 1607 697 1641 697 c 0
 1672 697 1697 680 1697 664 c 0
 1697 648 1686 630 1670 622 c 0
 1652 611 1211 376 1201 358 c 0
 1199.24390244 355.804878049 1198.4943486 351.361094587 1198.4943486 345.270382032 c 0
 1198.4943486 309.741225461 1224 218.170731707 1224 190 c 0
 1224 151 1195 88 1169 88 c 0
 1156 88 1091 148 1022 222 c 0
 953 297 884 355 865 355 c 0
 846 355 815 319 788 260 c 0
 762 206 702 126 652 78 c 0
 575 8 548 -7 452 -18 c 0
 422 -22 397 -24 375 -24 c 0
 332 -24 298 -16 252 3 c 0
 92 74 48 224 48 469 c 0
 48 611 63 779 103 804 c 0
 114 812 124.25 816 135 816 c 0
 145.75 816 157 812 170 804 c 0
 194 788 201 764 201 683 c 0
EndSplineSet
EndChar

StartChar: B
Encoding: 66 66 15
Width: 1143
VWidth: 3364
Flags: HW
LayerCount: 2
Fore
SplineSet
369 1156 m 0
 369 993 346 622 346 472 c 0
 346 348 356 300 419 235 c 0
 479 179 560 97 655 97 c 0
 684 97 742 121 784 150 c 0
 866 208 960 360 960 493 c 0
 960 547 946 597 917 631 c 0
 893 662 817 714 749 746 c 0
 683 780 610 823 591 842 c 0
 571 859 555 885 555 904 c 0
 555 923 604 986 667 1047 c 0
 730 1108 789 1181 801 1210 c 0
 807 1228 811 1254 811 1280 c 0
 811 1367 790 1391 710 1430 c 0
 653 1459 624 1472 590 1472 c 0
 527 1472 432 1434 385 1406 c 0
 357 1387 345 1376 345 1354 c 0
 345 1342 349 1326 356 1302 c 0
 365 1276 369 1229 369 1156 c 0
189 641 m 0
 189 873 48 1044 48 1286 c 0
 48 1338 64 1351 121 1404 c 0
 203 1477 313 1549 422 1576 c 0
 449 1584 487 1587 528 1587 c 0
 627 1587 748 1568 791 1545 c 0
 854 1511 927 1424 949 1353 c 0
 953 1341 956 1320 956 1295 c 0
 956 1270 953 1242 949 1217 c 0
 939 1146 913 1103 837 1025 c 0
 785 970 748 921 748 900 c 0
 748 879 795 856 832 843 c 0
 871 831 941 782 990 736 c 0
 1063 668 1078 635 1090 547 c 0
 1093 525 1095 503 1095 482 c 0
 1095 432 1087 385 1070 330 c 0
 1046 242 1012 189 920 95 c 0
 813 -15 798 -26 711 -26 c 0
 561 -26 519 10 427 85 c 0
 381 124 315 159 281 162 c 0
 235 165 219 182 205 228 c 0
 185 299 130 449 115 524 c 0
 113.11145618 533.678787077 112.1145618 541.797187635 112.1145618 548.68409211 c 0
 112.1145618 570.970583145 122.55417528 580.360679775 147 588 c 0
 173 595 189 615 189 641 c 0
EndSplineSet
EndChar

StartChar: C
Encoding: 67 67 16
Width: 1928
VWidth: 3781
Flags: HW
LayerCount: 2
Fore
SplineSet
1089 955 m 0
 1039 955 985 972 985 1001 c 0
 985 1017 1002 1035 1029 1048 c 0
 1049 1058 1125 1078 1199 1094 c 0
 1275 1108 1375 1152 1431 1192 c 0
 1487 1230 1529 1280 1529 1304 c 0
 1529 1380 1471 1406 1381 1406 c 0
 1247 1406 999 1308 919 1252 c 0
 785 1160 561 942 451 806 c 0
 391 734 313 612 277 538 c 0
 236 461 213 399 213 346 c 0
 213 281 248 228 327 172 c 0
 416 110 430 101 621 101 c 0
 857 101 1152 121 1417 154 c 0
 1592 178 1753 196 1808 196 c 0
 1818 196 1825 195 1827 194 c 0
 1844.79210605 188.069297984 1880.1708253 153.560349518 1880.1708253 125.511759143 c 0
 1880.1708253 115.725246288 1875.86381442 106.725218448 1865 100 c 0
 1853 92 1765 76 1669 64 c 0
 1440 35 997 -30 698 -30 c 0
 670 -30 644 -29 619 -28 c 0
 333 -14 303 0 159 116 c 0
 90 172 48 235 48 323 c 0
 48 358 55 397 69 440 c 0
 85 490 139 606 195 698 c 0
 255 800 377 950 511 1084 c 0
 633 1204 797 1340 877 1388 c 0
 1043 1486 1169 1546 1405 1546 c 0
 1417 1546 1427 1546 1437 1546 c 0
 1546 1546 1567 1535 1629 1476 c 1
 1676 1426 1693 1405 1693 1361 c 0
 1693 1345 1691 1326 1687 1302 c 0
 1663 1162 1585 1096 1463 1044 c 0
 1368 1000 1223 955 1089 955 c 0
EndSplineSet
EndChar

StartChar: D
Encoding: 68 68 17
Width: 1430
VWidth: 3379
Flags: HW
LayerCount: 2
Fore
SplineSet
465 1189 m 0
 465 1106 459 1010 459 913 c 0
 459 792 464 650 471 546 c 0
 482 395 497 266 504 257 c 0
 511 250 572 235 640 217 c 0
 703 204 759 197 810 197 c 0
 907 197 986 222 1056 285 c 1
 1138 352 1249 516 1249 655 c 0
 1249 665 1248 675 1247 685 c 0
 1240 732 1204 834 1164 910 c 0
 1079 1070 890 1279 730 1356 c 0
 663 1390 584 1412 532 1412 c 0
 433 1408 300 1347 248 1302 c 0
 218 1281 188 1200 188 1133 c 0
 188 1004 245 809 275 741 c 0
 297 696 320 658 333 658 c 0
 340 658 342 677 342 705 c 0
 342 849 310 989 310 1085 c 0
 310 1141 315 1198 325 1236 c 0
 340 1294 361 1347 400 1347 c 0
 412 1347 426 1341 442 1329 c 0
 458 1315 465 1279 465 1189 c 0
410 1549 m 0
 436 1555 462 1557 489 1557 c 0
 589 1557 693 1523 768 1490 c 0
 925 1418 1146 1185 1236 1036 c 0
 1308 919 1382 755 1382 604 c 0
 1382 568 1357 489 1326 426 c 0
 1265 305 1105 139 979 96 c 0
 948 86 890 82 827 82 c 0
 730 82 621 93 581 109 c 0
 575.631141371 111.362297797 570.769596458 112.617729303 566.336130479 112.617729303 c 0
 550.125236621 112.617729303 539.637702203 95.8327740509 531 55 c 0
 520 7 498 -27 467 -27 c 0
 452 -27 434 -19 414 -1 c 0
 391 21 362 75 349 125 c 0
 331 197 308 233 232 285 c 0
 160 337 128 377 108 442 c 0
 98 473 93 496 93 513 c 0
 93 555 121 562 162 579 c 0
 165 580 166 584 166 591 c 0
 166 616 149 677 124 746 c 0
 86 843 48 1004 48 1142 c 0
 48 1214 58 1279 84 1326 c 0
 125 1402 311 1536 410 1549 c 0
EndSplineSet
EndChar

StartChar: E
Encoding: 69 69 18
Width: 1594
VWidth: 3787
Flags: HW
LayerCount: 2
Fore
SplineSet
978 824 m 0
 1030 824 1092 808 1092 754 c 0
 1092 730 1078 700 1062 686 c 0
 1048 672 912 650 764 636 c 0
 598 622 476 598 442 574 c 0
 414 554 366 538 336 538 c 0
 298 538 285 552 285 571 c 0
 285 610 342 673 374 690 c 0
 424 718 530 744 654 756 c 0
 766 768 876 786 898 800 c 0
 920 812 956 824 978 824 c 0
737 1480 m 0
 842 1480 1224 1506 1336 1506 c 0
 1375 1506 1400 1505 1404 1502 c 0
 1416 1494 1426 1468 1426 1444 c 0
 1426 1418 1408 1390 1386 1378 c 0
 1362 1366 1178 1350 978 1342 c 0
 754 1334 604 1320 584 1304 c 0
 564 1288 534 1220 518 1154 c 0
 496 1074 468 1018 422 984 c 0
 320 910 280 748 234 598 c 0
 210 520 188 418 188 370 c 0
 188 164 372 110 584 110 c 0
 820 110 1110 214 1300 306 c 0
 1394 353 1487 387 1514 387 c 0
 1533 387 1546 351 1546 338 c 0
 1546 318 1526 282 1502 254 c 0
 1478 224 1390 172 1304 142 c 0
 1075 57 817 -30 504 -30 c 0
 342 -30 242 7 148 96 c 0
 69 166 48 215 48 352 c 0
 48 428 63 515 88 616 c 0
 116 714 182 894 236 1016 c 0
 288 1138 330 1254 330 1270 c 0
 330 1332 200 1325 200 1388 c 0
 200 1432 239 1444 304 1444 c 0
 370 1444 408 1460 458 1518 c 0
 493 1558 509 1577 526 1577 c 0
 541 1577 558 1561 588 1532 c 0
 628 1495 643 1480 737 1480 c 0
EndSplineSet
EndChar

StartChar: F
Encoding: 70 70 19
Width: 1572
VWidth: 3282
Flags: HW
LayerCount: 2
Fore
SplineSet
120 871 m 0
 150 871 198 860 230 860 c 0
 259 860 260 893 261 1129 c 0
 261 1296 269 1426 286 1462 c 0
 300 1494 322 1528 334 1535 c 0
 344 1542 353 1545 362 1545 c 0
 391 1545 412 1513 424 1486 c 0
 437 1459 444 1448 493 1448 c 0
 524 1448 571 1452 645 1459 c 0
 755 1467 978 1486 1140 1503 c 0
 1302 1522 1454 1533 1480 1533 c 0
 1511 1533 1524 1520 1524 1494 c 0
 1524 1474 1512 1448 1500 1436 c 0
 1486 1426 1338 1403 1170 1386 c 0
 1003 1367 798 1349 715 1341 c 0
 632 1334 528 1321 487 1309 c 0
 411 1289 410 1289 407 1163 c 0
 406 1108 403 1039 403 996 c 0
 403 986 404 978 404 971 c 0
 404 935 410 899 417 891 c 0
 419 889 424 888 432 888 c 0
 457 888 511 895 567 904 c 0
 729 935 837 959 973 998 c 0
 1019 1015 1090 1027 1129 1027 c 0
 1185 1027 1199 1018 1199 986 c 0
 1199 964 1179 935 1153 918 c 0
 1129 899 997 864 866 838 c 0
 732 809 570 775 507 756 c 0
 393 722 390 719 387 646 c 0
 387 491 391 372 422 221 c 0
 434 167 447 109 447 63 c 0
 447 11 431 -26 380 -26 c 0
 354 -26 322 -10 312 10 c 0
 302 30 283 119 271 207 c 0
 247 377 197 568 126 673 c 0
 104 707 76 750 62 770 c 0
 52 783 48 795 48 807 c 0
 48 842 83 871 120 871 c 0
EndSplineSet
EndChar

StartChar: G
Encoding: 71 71 20
Width: 1097
Flags: HW
LayerCount: 2
Fore
SplineSet
596 110 m 0
 596 132 594 151 587 151 c 0
 578 151 547 125 513 90 c 0
 477 51 433 -6 412 -37 c 0
 388 -73 374 -109 374 -134 c 0
 374 -166 381 -178 413 -197 c 0
 433 -210 457 -221 465 -221 c 0
 472 -221 494 -208 513 -191 c 0
 570 -142 596 -1 596 110 c 0
1040 546 m 0
 1046 546 1049 538 1049 534 c 0
 1049 505 959 453 905 419 c 0
 838 378 759 318 728 288 c 0
 674 235 673 235 666 81 c 0
 661 -35 654 -89 635 -139 c 0
 621 -175 594 -219 575 -238 c 0
 544 -268 502 -279 435 -279 c 0
 402 -279 388 -271 350 -242 c 0
 303 -208 293 -192 293 -150 c 0
 293 -126 299 -95 307 -74 c 0
 316 -50 348 -1 378 37 c 0
 406 74 464 137 503 176 c 0
 543 215 575 253 575 261 c 0
 575 269 564 305 550 342 c 0
 529 399 521 407 493 407 c 0
 473 407 428 384 375 346 c 0
 328 313 270 279 248 270 c 0
 227 261 188 253 164 253 c 0
 91 253 68 281 54 351 c 0
 50 373 48 394 48 415 c 0
 48 486 70 552 95 606 c 0
 133 687 281 829 355 880 c 0
 416 921 509 962 600 962 c 0
 604 962 607 962 611 962 c 0
 656 962 690 952 690 915 c 0
 690 876 652 797 616 797 c 0
 605 797 598 814 596 842 c 0
 593 877 590 884 568 884 c 0
 564 884 561 884 556 884 c 0
 468 874 401 829 331 773 c 0
 246 707 191 639 151 541 c 0
 136 505 125 454 125 420 c 0
 125 382 132 355 144 343 c 0
 153 332 168 324 174 324 c 0
 180 324 204 333 226 342 c 0
 250 351 306 386 355 419 c 0
 422 466 459 488 516 488 c 0
 574 488 596 452 616 399 c 0
 627 370 641 331 648 331 c 0
 660 331 710 360 767 397 c 0
 829 438 913 491 957 513 c 0
 994 532 1028 546 1040 546 c 0
EndSplineSet
EndChar

StartChar: H
Encoding: 72 72 21
Width: 1888
VWidth: 3019
Flags: HW
LayerCount: 2
Fore
SplineSet
974 359 m 0
 974 419 965 563 939 563 c 0
 888 563 577 477 570 456 c 0
 569 454 569 452 569 450 c 0
 569 411 710 370 769 347 c 0
 834 325 904 303 930 303 c 0
 964 303 974 307 974 359 c 0
1136 417 m 0
 1136 390 1136 353 1136 327 c 0
 1136 198 1129 175 1097 151 c 0
 1083 141 1071 136 1053 136 c 0
 1023 136 978 150 883 182 c 0
 786 214 652 267 584 303 c 0
 516 335 456 366 449 366 c 0
 442 366 439 332 439 291 c 0
 439 228 458 138 509 138 c 0
 523 138 553 158 573 180 c 0
 593.135956297 203.797039261 625 218.379152703 647.123380613 218.379152703 c 0
 649.171405932 218.379152703 651.135956297 218.254187778 653 218 c 0
 678 215 703 195 703 174 c 0
 703 153 668 104 621 58 c 0
 563 2 513 -26 476 -26 c 0
 379 -26 329 109 322 219 c 0
 319 284 308 353 305 379 c 0
 297 411 276 427 210 437 c 0
 134 449 48 464 48 530 c 0
 48 567 63 571 191 571 c 0
 330 571 330 571 362 743 c 0
 398 925 439 1153 439 1350 c 0
 439 1435 457 1548 516 1548 c 0
 525 1548 534 1545 544 1540 c 0
 575 1521 584 1496 584 1409 c 0
 584 1349 561 1165 532 998 c 0
 505 831 480 687 473 677 c 0
 466 669 473 644 487 624 c 0
 496 611 505 604 528 604 c 0
 560 604 618 617 738 646 c 0
 864 677 976 707 988 717 c 0
 1000 727 1016 811 1024 906 c 0
 1031 1000 1051 1178 1070 1299 c 0
 1092 1452 1114 1525 1134 1533 c 0
 1137.7422974 1534.54094599 1141.96918961 1535.25808081 1146.4886592 1535.25808081 c 0
 1162.49962179 1535.25808081 1182.18256768 1526.2577026 1197 1513 c 0
 1213 1496 1220 1479 1220 1429 c 0
 1220 1387 1215 1323 1206 1216 c 0
 1192 1070 1182 903 1182 842 c 0
 1182 765 1184 742 1201 742 c 0
 1205 742 1211 744 1218 746 c 0
 1246 759 1516 775 1676 775 c 0
 1730 775 1772 772 1787 768 c 0
 1816 761 1840 745 1840 728 c 0
 1840 709 1791 697 1672 687 c 0
 1577 680 1430 663 1345 651 c 0
 1260 637 1180 614 1163 600 c 0
 1143 583 1136 533 1136 417 c 0
EndSplineSet
EndChar

StartChar: I
Encoding: 73 73 22
Width: 482
VWidth: 3467
Flags: HW
LayerCount: 2
Fore
SplineSet
377 1533 m 0
 414 1529 434 1501 434 1453 c 0
 434 1325 312 791 296 720 c 0
 286 669 277 509 275 361 c 0
 275 125 269 85 227 32 c 0
 199 -2 157 -28 123 -28 c 0
 69 -28 48 20 48 77 c 0
 48 110 55 146 66 177 c 0
 79 225 102 361 115 481 c 0
 140 737 191 1112 246 1330 c 0
 267 1414 292 1495 305 1510 c 0
 316.282856857 1523.01868099 343.384412152 1533.77754792 366.691466968 1533.77754792 c 0
 370.238578296 1533.77754792 373.697801648 1533.52835174 377 1533 c 0
EndSplineSet
EndChar

StartChar: J
Encoding: 74 74 23
Width: 755
Flags: HW
LayerCount: 2
Fore
SplineSet
617 649 m 0
 617 689 625 767 625 808 c 0
 625 825 624 836 622 837 c 0
 617 839 591 834 562 824 c 0
 539 816 514 812 489 812 c 0
 442 812 397 826 372 851 c 0
 358.641902925 864.358097075 348.979283075 883.523372649 348.979283075 899.002645273 c 0
 348.979283075 913.651996955 357.633556364 925 380 925 c 0
 392 925 406 920 416 910 c 0
 428 898 460 884 484 884 c 0
 506 884 539 893 574 908 c 0
 610 924 647 937 655 938 c 0
 687 938 707 896 707 857 c 0
 707 833 701 671 695 498 c 0
 687 262 677 153 658 60 c 0
 644 -9 625 -80 615 -98 c 0
 591 -148 552 -164 473 -164 c 0
 378 -164 201 -132 144 -114 c 0
 102 -103 73 -86 61 -67 c 0
 45 -43 44 -33 56 -20 c 0
 63 -11 71 -8 80 -8 c 0
 100 -8 123 -27 140 -38 c 0
 174 -61 374 -93 450 -93 c 0
 486 -93 518 -78 536 -57 c 0
 553 -39 567 3 579 72 c 0
 595 162 620 476 620 597 c 0
 620 627 617 616 617 649 c 0
EndSplineSet
EndChar

StartChar: K
Encoding: 75 75 24
Width: 1765
VWidth: 3230
Flags: HW
LayerCount: 2
Fore
SplineSet
1272 1537 m 0
 1311 1537 1331 1501 1331 1452 c 0
 1331 1402 1282 1322 1142 1112 c 0
 1038 952 915 741 869 642 c 0
 826 546 792 451 792 419 c 0
 792 377 828 363 937 340 c 0
 1157 300 1345 255 1539 160 c 0
 1666 95 1712 59 1716 23 c 0
 1716.64499878 17.195010981 1716.97797999 11.9360527086 1716.97797999 7.19796881407 c 0
 1716.97797999 -17.4474688873 1707.96875763 -28 1687 -28 c 0
 1668 -28 1590 0 1520 36 c 0
 1351 120 1205 163 981 186 c 0
 894 194 791 211 749 222 c 0
 731 228 717 232 704 232 c 0
 668 232 639 202 546 106 c 0
 417 -25 407 -28 295 -28 c 0
 127 -28 48 63 48 223 c 0
 48 294 59 404 82 528 c 0
 107 678 141 934 154 1096 c 0
 169 1265 190 1398 205 1408 c 0
 218 1418 237 1427 247 1427 c 0
 257 1427 278 1412 297 1391 c 0
 318 1372 333 1326 333 1292 c 0
 333 1193 265 713 242 633 c 0
 227 576 196 388 196 260 c 0
 196 222 199 189 205 167 c 0
 216 121 235 106 283 106 c 0
 317 106 367 125 394 148 c 0
 436 180 606 407 606 475 c 0
 606 498 650 600 703 703 c 0
 758 807 899 1038 1015 1218 c 0
 1183 1473 1236 1537 1272 1537 c 0
EndSplineSet
EndChar

StartChar: L
Encoding: 76 76 25
Width: 1458
VWidth: 3682
Flags: HW
LayerCount: 2
Fore
SplineSet
475 1560 m 0
 505 1560 557 1535 557 1495 c 0
 557 1455 525 1376 443 1194 c 0
 371 1030 287 816 255 718 c 0
 228 624 205 489 205 415 c 0
 205 342 220 250 235 210 c 0
 265 146 296 129 354 129 c 0
 392 129 443 136 513 142 c 0
 607 152 797 182 935 210 c 0
 1094 240 1237 265 1325 265 c 0
 1385 265 1410 251 1410 231 c 0
 1410 209 1379 181 1331 156 c 0
 1285 134 1175 106 1085 92 c 0
 845 52 953 60 673 10 c 0
 553 -12 413 -30 365 -30 c 0
 127 -30 48 163 48 387 c 0
 48 500 68 622 99 730 c 0
 155 946 287 1328 383 1484 c 0
 409 1524 451 1560 475 1560 c 0
EndSplineSet
EndChar

StartChar: M
Encoding: 77 77 26
Width: 1832
VWidth: 3292
Flags: HW
LayerCount: 2
Fore
SplineSet
1593 1471 m 0
 1634 1471 1663 1409 1663 1359 c 0
 1663 1327 1647 1235 1627 1152 c 0
 1605 1060 1593 900 1593 733 c 0
 1593 716 1593 699 1593 683 c 0
 1593 500 1603 426 1636 322 c 0
 1659 246 1708 150 1739 101 c 0
 1765.78541948 63.3330038603 1784.16311985 24.2647212039 1784.16311985 6.08099253095 c 0
 1784.16311985 2.54098758711 1783.46660077 -0.207487945252 1782 -2 c 0
 1775 -15 1746 -27 1721 -27 c 0
 1690 -27 1654 2 1623 47 c 0
 1594 88 1551 173 1528 236 c 0
 1445 447 1478 1080 1447 1080 c 0
 1438 1080 1395 1048 1346 1008 c 0
 1236 909 1032 776 893 702 c 0
 808 659 752 646 642 646 c 0
 545 646 484 657 448 682 c 0
 417 702 379 738 365 760 c 0
 351 782 329 797 320 797 c 0
 286 797 244 344 239 281 c 0
 230 187 212 110 194 90 c 0
 176 72 149 61 135 61 c 0
 117 61 93 75 79 95 c 0
 59 117 48 201 48 338 c 0
 48 352 48 368 48 385 c 0
 48 621 70 1174 99 1328 c 0
 110 1398 123 1418 164 1422 c 0
 195 1426 222 1453 236 1494 c 0
 250 1539 269 1557 309 1557 c 0
 343 1557 364 1540 371 1508 c 0
 378 1479 385 1361 389 1242 c 0
 400 1028 421 910 506 815 c 0
 529 790 574 776 637 776 c 0
 700 776 777 798 862 841 c 0
 1015 918 1205 1035 1317 1147 c 0
 1360 1190 1437 1281 1487 1348 c 0
 1537 1415 1584 1471 1593 1471 c 0
EndSplineSet
EndChar

StartChar: N
Encoding: 78 78 27
Width: 1670
VWidth: 3096
Flags: HW
LayerCount: 2
Fore
SplineSet
324 1345 m 0
 324 1422 353 1469 423 1469 c 0
 448 1469 494 1446 519 1417 c 0
 564 1367 569 1336 587 1012 c 0
 598 819 621 580 641 481 c 0
 666 350 693 281 742 225 c 0
 776 182 825 146 848 146 c 0
 879 146 902 173 933 243 c 0
 955 295 1003 441 1039 565 c 0
 1120 853 1243 1136 1392 1354 c 0
 1453 1440 1517 1523 1537 1534 c 0
 1552.4826409 1542.5154525 1568.71438233 1547.58504256 1582.79571067 1547.58504256 c 0
 1605.09403727 1547.58504256 1622 1534.87256683 1622 1503 c 0
 1622 1479 1589 1412 1543 1345 c 0
 1422 1170 1370 1049 1284 835 c 0
 1248 741 1190 574 1159 461 c 0
 1127 346 1087 220 1073 180 c 0
 1055 139 1012 82 976 50 c 0
 936 19 890 -5 868 -5 c 0
 773 -5 713 41 648 113 c 1
 592 169 556 237 524 347 c 0
 499 433 473 560 466 630 c 0
 457 697 445 754 438 754 c 0
 429 754 394 650 362 522 c 0
 330 392 288 237 270 176 c 0
 250 115 216 43 193 20 c 0
 170 -5 129 -27 106 -27 c 0
 84 -27 48 -11 48 15 c 0
 48 58 87 246 137 459 c 0
 193 686 258 965 281 1073 c 0
 304 1183 324 1305 324 1345 c 0
EndSplineSet
EndChar

StartChar: O
Encoding: 79 79 28
Width: 1436
VWidth: 3081
Flags: HW
LayerCount: 2
Fore
SplineSet
389 1104 m 0
 381 1104 358 1123 358 1144 c 0
 358 1164 380 1191 424 1230 c 0
 464 1267 550 1320 611 1352 c 0
 674 1384 701 1398 701 1404 c 0
 701 1407 694 1408 680 1408 c 0
 674 1408 667 1408 659 1408 c 0
 544 1408 465 1362 390 1298 c 0
 294 1220 214 1055 182 914 c 0
 171 865 166 809 166 752 c 0
 166 614 195 463 232 366 c 0
 259 292 298 211 317 184 c 0
 361 125 421 90 517 90 c 0
 532 90 548 91 565 93 c 0
 616 99 719 133 789 168 c 0
 944 242 1141 428 1213 582 c 0
 1258 673 1266 716 1266 854 c 0
 1264 980 1252 1035 1222 1094 c 0
 1200 1136 1160 1191 1131 1218 c 0
 1106.53931592 1241.2958896 1092.25422819 1251.36350394 1082.02095628 1251.36350394 c 0
 1074.68327969 1251.36350394 1069.42883588 1246.18726072 1064 1237 c 0
 1054 1221 1045 1194 1045 1176 c 0
 1045 1120 910 1009 856 1006 c 0
 842 1005 822 1005 801 1005 c 0
 780 1005 757 1005 739 1006 c 0
 702 1006 659 1020 640 1038 c 0
 621 1055 613 1069 613 1078 c 0
 613 1101 664 1104 736 1104 c 0
 872 1104 898 1136 922 1230 c 0
 923.951612903 1239.58064516 924.927419355 1248.78355879 924.927419355 1257.44119868 c 0
 924.927419355 1297.58116545 903.951612903 1326 862 1326 c 0
 839 1326 805 1318 744 1298 c 0
 667 1276 569 1227 510 1181 c 0
 452 1139 399 1104 389 1104 c 0
786 1533 m 0
 877 1527 910 1514 958 1472 c 1
 1030 1400 1171 1336 1240 1262 c 0
 1326 1176 1388 1011 1388 838 c 0
 1388 785 1383 732 1370 680 c 0
 1327 494 1242 384 1101 254 c 0
 1027 188 918 109 859 74 c 0
 771 26 624 -24 491 -24 c 0
 410 -24 335 -6 280 42 c 0
 250 68 202 128 173 174 c 0
 104 296 48 516 48 710 c 0
 48 1004 108 1195 254 1347 c 1
 367 1456 503 1536 709 1536 c 0
 734 1536 759 1535 786 1533 c 0
EndSplineSet
EndChar

StartChar: P
Encoding: 80 80 29
Width: 1047
VWidth: 2926
Flags: HW
LayerCount: 2
Fore
SplineSet
249 937 m 0
 249 989 235 1244 221 1244 c 0
 215 1244 208 1218 194 1174 c 0
 176 1116 160 1032 160 987 c 0
 160 921 164 845 210 845 c 0
 226 845 239 859 245 878 c 0
 248 885 249 907 249 937 c 0
520 1459 m 0
 488 1459 444 1451 423 1443 c 0
 393 1432 387 1402 384 1154 c 0
 383 1101 382 1058 382 1023 c 0
 382 909 393 886 436 886 c 0
 447 886 461 888 477 890 c 0
 531 896 632 928 701 963 c 0
 795 1011 834 1045 861 1099 c 0
 878 1133 887 1152 887 1171 c 0
 887 1191 878 1212 859 1253 c 0
 814 1360 774 1390 664 1432 c 0
 620 1447 560 1459 526 1459 c 0
 524 1459 522 1459 520 1459 c 0
379 57 m 0
 379 14 358 -24 325 -24 c 0
 309 -24 282 6 264 38 c 0
 202 150 101 589 71 738 c 0
 56 815 48 897 48 979 c 0
 48 1163 87 1340 176 1429 c 0
 232 1490 310 1534 392 1558 c 0
 411 1565 454 1569 503 1569 c 0
 704 1569 837 1505 922 1395 c 0
 956 1351 999 1225 999 1126 c 0
 999 1093 995 1063 983 1040 c 0
 932 944 869 907 743 856 c 0
 677 827 571 798 507 790 c 0
 443 780 387 768 379 762 c 0
 367 747 341 463 341 379 c 0
 341 309 348 255 362 187 c 0
 374 130 379 88 379 57 c 0
EndSplineSet
EndChar

StartChar: Q
Encoding: 81 81 30
Width: 1550
VWidth: 2831
Flags: HW
LayerCount: 2
Fore
SplineSet
1051 1010 m 0
 1051 1070 1037 1210 1015 1210 c 0
 999 1210 956 1190 905 1155 c 0
 849 1119 765 1079 720 1068 c 0
 688 1060 647 1056 606 1056 c 0
 560.4675976 1056 435.22740326 1070.34740255 435.22740326 1103.31195736 c 0
 435.22740326 1107.27038941 437.033311545 1111.49727256 441 1116 c 0
 451 1124 516 1135 586 1138 c 0
 691 1144 727 1151 796 1193 c 0
 841 1221 887 1262 898 1284 c 0
 904 1297 907 1311 907 1326 c 0
 907 1368 885 1410 864 1424 c 0
 853 1431 830 1436 810 1436 c 0
 792 1436 751 1418 719 1394 c 0
 687 1370 656 1352 649 1352 c 0
 642 1352 635 1368 635 1386 c 0
 635 1404 625 1419 615 1419 c 0
 604 1419 555 1396 506 1369 c 0
 447 1335 395 1286 343 1212 c 0
 256 1094 209 1001 173 858 c 0
 160 816 150 736 150 677 c 0
 150 673 150 669 150 665 c 0
 150 480 200 387 320 327 c 0
 361 307 417 297 481 297 c 0
 537 297 608 308 642 322 c 0
 676 336 702 357 702 367 c 0
 702 378 687 424 670 472 c 0
 653 517 629 585 618 620 c 0
 611 642 607 661 607 676 c 0
 607 700 617 714 643 714 c 0
 682 714 699 687 721 628 c 0
 736 586 762 522 777 487 c 0
 790 454 797 439 808 439 c 0
 817 439 830 451 854 474 c 0
 931 547 1001 724 1032 850 c 0
 1044 904 1051 955 1051 1010 c 0
762 1548 m 0
 870 1548 905 1539 962 1496 c 0
 1003 1464 1042 1408 1077 1337 c 0
 1125 1236 1128 1208 1134 1039 c 0
 1135 999 1137 967 1137 939 c 0
 1137 849 1128 805 1097 712 c 0
 1051 558 1010 491 922 403 c 0
 894 376 870 338 870 316 c 0
 870 259 1029 107 1071 89 c 0
 1095 78 1199 70 1304 70 c 0
 1441 70 1495 64 1501 50 c 0
 1507 39 1490 21 1465 11 c 0
 1433 0 1229 -21 1147 -21 c 0
 1094 -21 1067 -15 1038 1 c 0
 962 39 849 124 803 190 c 0
 781 221 752 246 737 246 c 0
 722 246 679 235 643 221 c 0
 607 207 531 197 475 196 c 0
 315 196 258 219 166 309 c 0
 62 408 48 466 48 656 c 0
 48 935 135 1105 254 1272 c 0
 327 1373 469 1493 588 1529 c 0
 625 1542 698 1548 762 1548 c 0
EndSplineSet
EndChar

StartChar: R
Encoding: 82 82 31
Width: 1566
VWidth: 2873
Flags: HW
LayerCount: 2
Fore
SplineSet
475 843 m 0
 446 843 428 803 428 779 c 0
 428 728 493 723 555 723 c 0
 595.506524508 723 610.65024181 724.95098517 610.65024181 736.346954772 c 0
 610.65024181 741.268510432 607.825786343 747.951650607 603 757 c 0
 594 773 521 843 475 843 c 0
330 1102 m 0
 330 1188 324 1286 312 1286 c 0
 306 1286 296 1274 281 1254 c 0
 228 1184 180 1024 180 901 c 0
 180 792 209 579 252 512 c 0
 265 492 272 480 278 480 c 0
 294 480 307 606 307 644 c 0
 307 687 299 706 299 746 c 0
 299 786 305 839 313 880 c 0
 323 928 330 1020 330 1102 c 0
727 1488 m 0
 629 1480 495 1461 465 1381 c 0
 455 1355 447 1256 447 1162 c 0
 447 991 449 991 510 978 c 0
 550 970 607 929 665 870 c 0
 724 808 746 786 768 786 c 0
 780 786 793 793 811 803 c 0
 905 863 983 997 983 1144 c 0
 983 1276 927 1372 844 1434 c 0
 802 1464 749 1488 727 1488 c 0
716 1603 m 0
 717 1603 719 1603 720 1603 c 0
 760 1603 823 1580 879 1549 c 0
 1014 1470 1097 1321 1097 1112 c 0
 1097 1052 1089 995 1079 960 c 0
 1063 912 1017 850 950 784 c 0
 908 745 882 721 882 691 c 0
 882 645 944 584 1102 430 c 0
 1244 291 1393 157 1431 130 c 0
 1469 103 1507 66 1513 48 c 0
 1516 38 1518 28 1518 20 c 0
 1518 -10 1497 -24 1460 -24 c 0
 1439 -24 1368 19 1302 75 c 0
 1238 129 1084 275 959 395 c 0
 735 617 736 618 582 618 c 0
 473 618 427 610 419 592 c 0
 413 576 409 486 409 387 c 0
 409 253 401 204 380 186 c 0
 375 182 369 179 363 179 c 0
 343 179 313 205 246 275 c 0
 118 414 94 488 62 704 c 0
 53 766 48 826 48 882 c 0
 48 1097 115 1266 235 1390 c 0
 342 1502 392 1537 547 1574 c 0
 603 1590 679 1603 716 1603 c 0
EndSplineSet
EndChar

StartChar: S
Encoding: 83 83 32
Width: 1695
VWidth: 3290
Flags: HW
LayerCount: 2
Fore
SplineSet
1207 1571 m 0
 1264 1584 1321 1593 1374 1593 c 0
 1442 1593 1504 1579 1560 1543 c 0
 1621 1503 1647 1460 1647 1411 c 0
 1647 1361 1621 1304 1578 1233 c 0
 1536 1165 1485 1096 1464 1083 c 0
 1449.78729881 1073.99862258 1438.26794262 1069.71059891 1428.05960865 1069.71059891 c 0
 1416.72031315 1069.71059891 1406.99862258 1075.00137742 1397 1085 c 0
 1390 1092 1386 1099 1386 1110 c 0
 1386 1131 1401 1163 1431 1216 c 0
 1463 1271 1490 1344 1490 1376 c 0
 1490 1438 1438 1456 1373 1456 c 0
 1332 1456 1285 1449 1243 1440 c 0
 1112 1413 912 1305 857 1216 c 0
 842 1195 835 1181 835 1165 c 0
 835 1147 845 1126 863 1089 c 0
 884 1047 1036 878 1203 711 c 0
 1385 531 1527 369 1557 310 c 0
 1582 255 1604 187 1604 160 c 0
 1604 67 1469 31 1370 4 c 0
 1304 -11 1175 -28 1084 -28 c 0
 993 -28 764 -13 582 6 c 0
 369 29 210 59 147 86 c 0
 81 116 48 143 48 173 c 0
 48 218 70 234 102 234 c 0
 132 234 172 220 208 200 c 0
 259 175 377 142 476 129 c 0
 575 116 789 101 952 101 c 0
 974 101 995 100 1014 100 c 0
 1201 100 1274 109 1336 137 c 0
 1391 162 1422 191 1422 218 c 0
 1422 241 1391 304 1355 352 c 0
 1275 456 812 907 732 1011 c 0
 696 1059 666 1129 666 1163 c 0
 666 1201 692 1259 734 1305 c 0
 810 1394 1078 1541 1207 1571 c 0
EndSplineSet
EndChar

StartChar: T
Encoding: 84 84 33
Width: 2360
VWidth: 3330
Flags: HW
LayerCount: 2
Fore
SplineSet
958 1296 m 0
 959 1292 1052 1082 1071 1082 c 0
 1090 1082 1107 1217 1110 1240 c 0
 1110.44444444 1245.77777778 1110.69135802 1251.01234568 1110.69135802 1255.76406036 c 0
 1110.69135802 1293.77777778 1094.88888889 1300.88888889 1038 1308 c 0
 1027 1309 1016.5 1309.5 1006.9375 1309.5 c 0
 978.25 1309.5 958 1305 958 1296 c 0
94 1127 m 0
 67 1127 48 1159 48 1178 c 0
 48 1194 90 1250 146 1300 c 0
 198 1348 294 1420 354 1458 c 0
 424 1502 496 1528 554 1528 c 0
 602 1528 688 1512 746 1492 c 0
 800 1472 854 1464 972 1464 c 0
 1043 1464 1138 1467 1270 1472 c 0
 1500 1484 1812 1492 1966 1492 c 0
 2158 1490 2258 1480 2282 1458 c 0
 2299.73718811 1445.10022683 2312.27424659 1424.40025924 2312.27424659 1408.47768956 c 0
 2312.27424659 1404.65098834 2311.55011342 1401.10022683 2310 1398 c 0
 2287 1343 1345 1364 1280 1310 c 0
 1254 1288 1246 1212 1246 968 c 0
 1246 742 1258 614 1284 520 c 0
 1308 438 1330 309 1330 194 c 0
 1330 136 1324 81 1310 38 c 0
 1296 -14 1278 -30 1226 -30 c 0
 1190 -30 1146 -16 1130 0 c 0
 1110 20 1102 116 1102 282 c 0
 1102 476 1090 576 1052 690 c 0
 1026 774 956 936 898 1048 c 0
 840 1160 776 1268 754 1288 c 0
 735 1302 718 1310 688 1310 c 0
 664 1310 631 1305 582 1294 c 0
 510 1280 378 1230 286 1190 c 0
 208 1154 126 1127 94 1127 c 0
EndSplineSet
EndChar

StartChar: U
Encoding: 85 85 34
Width: 1469
VWidth: 3187
Flags: HW
LayerCount: 2
Fore
SplineSet
303 1584 m 0
 344 1584 381 1532 381 1482 c 0
 381 1457 370 1434 343 1398 c 0
 271 1297 197 922 179 755 c 0
 176 717 174 682 174 649 c 0
 174 485 216 375 307 278 c 0
 384 193 402 185 492 185 c 0
 640 185 773 298 852 381 c 0
 944 476 1034 622 1034 804 c 0
 1034 997 1068 1243 1133 1382 c 0
 1162 1449 1199 1506 1219 1515 c 0
 1223.73770409 1516.69203718 1228.72989617 1517.48064201 1233.85887804 1517.48064201 c 0
 1274.19859457 1517.48064201 1323 1468.69828352 1323 1427 c 0
 1323 1405 1317 1372 1306 1317 c 0
 1270 1168 1197 804 1174 646 c 0
 1172 630 1172 613 1172 596 c 0
 1172 452 1223 284 1273 199 c 0
 1296 158 1339 109 1370 91 c 0
 1399 71 1421 43 1421 25 c 0
 1421 0 1368 -27 1326 -27 c 0
 1313 -27 1300 -25 1291 -19 c 0
 1248 10 1079 259 1066 318 c 0
 1057 352 1046 379 1039 379 c 0
 1032 379 964 318 881 242 c 0
 773 143 704 98 636 80 c 0
 582 67 509 57 469 57 c 0
 350 57 222 136 164 210 c 0
 92 307 48 488 48 666 c 0
 48 829 75 1004 107 1144 c 0
 129 1252 170 1389 195 1447 c 0
 220 1508 252 1560 265 1569 c 0
 278 1580 291 1584 303 1584 c 0
EndSplineSet
EndChar

StartChar: V
Encoding: 86 86 35
Width: 1649
VWidth: 3635
Flags: HW
LayerCount: 2
Fore
SplineSet
1313 1389 m 0
 1366 1443 1485 1562 1554 1562 c 0
 1571 1562 1601 1550 1601 1517 c 0
 1601 1495 1524 1398 1427 1301 c 0
 1329 1201 1219 1065 1185 1001 c 0
 1093 829 1019 731 941 527 c 0
 907 435 841 281 793 183 c 0
 743 75 687 -3 653 -19 c 0
 636.550004133 -26.4772708487 623.454583026 -30.32041904 611.414455808 -30.32041904 c 0
 591.249979335 -30.32041904 574.045458303 -19.5409124724 549 3 c 0
 521 27 461 119 421 205 c 0
 377 291 317 457 281 575 c 0
 245 695 175 943 123 1127 c 0
 70 1313 48 1417 48 1464 c 0
 48 1478 49 1486 53 1491 c 0
 67 1507 99 1521 123 1521 c 0
 147 1521 181 1497 201 1469 c 1
 217 1437 257 1307 285 1175 c 0
 353 885 399 649 507 413 c 0
 546 327 593 259 608 259 c 0
 623 259 690 395 759 549 c 0
 903 867 1099 1175 1313 1389 c 0
EndSplineSet
EndChar

StartChar: W
Encoding: 87 87 36
Width: 1578
VWidth: 3276
Flags: HW
LayerCount: 2
Fore
SplineSet
100 1589 m 0
 129 1589 164 1575 178 1557 c 0
 192 1537 237 1338 277 1109 c 0
 313 880 369 592 394 468 c 0
 419 344 451 225 462 202 c 0
 473 180 493 171 502 180 c 0
 525 203 673 801 673 848 c 0
 673 877 692 909 714 920 c 0
 725.448823182 926.647703783 735.806486721 930.021928634 746.382687548 930.021928634 c 0
 764.443685535 930.021928634 783.141991951 920.181859941 809 900 c 0
 856 860 864 837 878 630 c 0
 887 506 899 376 910 344 c 0
 916 319 920 304 926 304 c 0
 934 304 945 328 968 382 c 0
 991 436 1094 725 1193 1024 c 0
 1353 1515 1369 1566 1418 1566 c 0
 1481 1566 1504 1549 1520 1490 c 0
 1526 1472 1530 1457 1530 1442 c 0
 1530 1412 1516 1385 1486 1339 c 0
 1454 1292 1353 1019 1258 731 c 0
 1148 400 1063 182 1027 135 c 0
 986 81 953 59 910 59 c 0
 878 59 838 74 824 92 c 0
 811 110 781 179 759 247 c 0
 740.713998204 306.845096788 723.809723109 342.509976304 714.60373895 342.509976304 c 0
 712.733947565 342.509976304 711.181726701 341.038725803 710 338 c 0
 688 279 633 69 597 22 c 0
 577 -7 539 -27 514 -27 c 0
 437 -27 346 62 323 121 c 0
 312 152 280 290 251 425 c 0
 220 560 178 776 156 900 c 0
 133 1024 100 1175 80 1233 c 0
 62 1294 48 1399 48 1467 c 0
 48 1580 50 1589 100 1589 c 0
EndSplineSet
EndChar

StartChar: X
Encoding: 88 88 37
Width: 1300
VWidth: 2865
Flags: HW
LayerCount: 2
Fore
SplineSet
217 1483 m 0
 217 1513 243 1527 274 1527 c 0
 300 1527 331 1506 358 1470 c 0
 382 1437 424 1365 452 1311 c 0
 479 1257 542 1145 592 1064 c 0
 642 982 684 914 692 914 c 0
 700 914 739 959 781 1017 c 0
 868 1129 1016 1311 1078 1437 c 0
 1098 1482 1128 1530 1144 1542 c 0
 1160 1552 1184 1563 1196 1563 c 0
 1211 1563 1232 1549 1232 1529 c 0
 1232 1506 1213 1451 1187 1397 c 0
 1124 1259 905 1007 824 890 c 0
 794 848 772 803 772 786 c 0
 772 784 772 783 773 782 c 0
 779 770 837 678 901 579 c 0
 1009 414 1135 233 1231 105 c 0
 1245.28571429 85.7142857143 1252.42857143 64.387755102 1252.42857143 42.8425655977 c 0
 1252.42857143 34.2244897959 1251.28571429 25.5714285714 1249 17 c 0
 1241.80776406 -11.7689437438 1234.61552813 -22.4329972722 1215.51795349 -22.4329972722 c 0
 1208.06248565 -22.4329972722 1198.79260907 -20.807764064 1187 -18 c 0
 1106 3 1094 28 1052 108 c 0
 1031 150 940 299 850 440 c 0
 762 580 685 695 679 695 c 0
 673 697 635 652 593 600 c 0
 551 546 427 403 317 279 c 0
 205 156 99 54 83 54 c 0
 64 54 48 79 48 112 c 0
 48 152 92 205 265 393 c 0
 387 525 510 666 538 704 c 0
 565 742 587 785 587 800 c 0
 587 812 533 911 469 1017 c 0
 405 1123 330 1233 304 1259 c 0
 267 1301 217 1405 217 1483 c 0
EndSplineSet
EndChar

StartChar: Y
Encoding: 89 89 38
Width: 951
VWidth: 2611
Flags: HW
LayerCount: 2
Fore
SplineSet
48 1480 m 0
 48 1501 71 1514 88 1514 c 0
 105 1514 137 1488 160 1456 c 0
 182 1424 201 1389 201 1383 c 0
 201 1377 232 1331 270 1283 c 0
 308 1235 367 1169 399 1138 c 0
 434 1106 480 1057 503 1031 c 0
 528 1005 562 983 576 983 c 0
 597 983 617 1012 646 1076 c 0
 698 1190 730 1300 779 1410 c 0
 804 1470 819 1483 850 1483 c 0
 880 1483 892 1472 900 1446 c 0
 902.161178186 1436.49081598 903.201390495 1424.92652786 903.201390495 1413.16446766 c 0
 903.201390495 1397.7143797 901.406586177 1381.92305162 898 1370 c 0
 892 1349 778 1117 647 849 c 0
 516 581 385 316 359 256 c 0
 330 195 317 152 317 124 c 0
 317 111 321 100 321 89 c 0
 321 52 248 -20 216 -20 c 0
 183 -20 157 10 157 47 c 0
 157 54 158 61 160 68 c 0
 166 91 201 163 239 229 c 0
 331 390 391 525 469 701 c 0
 499 767 514 800 514 825 c 0
 514 850 500 868 472 904 c 0
 352 1054 154 1223 70 1400 c 0
 57 1430 48 1462 48 1480 c 0
EndSplineSet
EndChar

StartChar: Z
Encoding: 90 90 39
Width: 1389
VWidth: 2652
Flags: HW
LayerCount: 2
Fore
SplineSet
162 1245 m 0
 141 1245 117 1268 117 1288 c 0
 117 1323 184 1345 227 1362 c 0
 328 1401 472 1483 590 1503 c 1
 688 1524 720 1531 817 1537 c 1
 898 1537 965 1494 992 1435 c 0
 999 1419 1001 1401 1001 1378 c 0
 1001 1193 888 985 817 868 c 0
 800.857505441 840.199037148 789.540568856 814.810853284 789.540568856 805.539469919 c 0
 789.540568856 801.713774994 791.589112395 802 796 802 c 0
 833 802 1011 848 1027 848 c 0
 1053.33575959 848 1067.78170947 837.242553116 1067.78170947 815.727659349 c 0
 1067.78170947 808.649442702 1066.21814644 800.406889586 1063 791 c 0
 1057 777 1031 756 1000 746 c 0
 969 736 888 719 819 708 c 0
 694 688 693 688 609 576 c 0
 563 513 459 386 376 292 c 0
 297 202 237 123 237 110 c 0
 237 101 339 96 437 96 c 0
 591 96 939 111 1139 111 c 0
 1228 111 1293 108 1307 103 c 0
 1332 93 1343 76 1340 58 c 0
 1334 33 1306 27 1116 19 c 0
 994 12 778 -2 635 -12 c 0
 543 -18 463 -21 400 -21 c 0
 281 -21 202 -5 121 25 c 0
 84 36 48 59 48 75 c 0
 48 94 119 174 226 284 c 0
 327 385 446 518 489 582 c 0
 538 650 557 677 557 699 c 0
 557 720.917647059 511.531626298 768.534809689 511.531626298 792.638659882 c 0
 511.531626298 798.227958478 513.976470588 802.552941176 520 805 c 0
 531 808 573 816 608 817 c 0
 675 823 676 821 775 1017 c 0
 855 1168 878 1233 885 1307 c 0
 887 1330 888 1348 888 1362 c 0
 888 1403 878 1410 846 1425 c 0
 830 1432 809 1435 784 1435 c 0
 673 1435 494 1371 437 1345 c 0
 385 1320 298 1285 248 1268 c 0
 203 1252 179 1245 162 1245 c 0
EndSplineSet
EndChar

StartChar: Adieresis
Encoding: 196 196 40
Width: 1359
VWidth: 2147
Flags: HW
LayerCount: 2
Fore
SplineSet
869 984 m 0
 862 984 791 810 787 796 c 0
 778 770 751 706 726 654 c 0
 701 601 685 558 685 537 c 0
 685 493 785 460 822 451 c 0
 827 450 832 449 835 449 c 0
 851 449 852 473 853 612 c 0
 853 704 857 825 863 879 c 0
 867 921 870 960 870 976 c 0
 870 980 870 984 869 984 c 0
139 353 m 0
 139 328 131 286 131 255 c 0
 131 162 163 70 243 63 c 1
 296 63 376 117 401 151 c 0
 415 173 541 415 541 459 c 0
 541 475 533 485 520 502 c 0
 502 524 479 563 470 587 c 0
 462.870325885 603.805660413 459.371526984 615.683704466 459.371526984 625.275658385 c 0
 459.371526984 634.518696459 462.620411678 641.638936552 469 649 c 0
 478 660 499 669 514 669 c 0
 529 669 558 660 573 648 c 0
 588 637 607 632 614 636 c 0
 622 642 640 666 653 692 c 0
 684 754 821 1104 842 1178 c 0
 853 1215 871 1263 883 1285 c 0
 900 1315 913 1336 942 1336 c 0
 973 1336 992 1281 992 1237 c 0
 992 1200 986 1141 972 1032 c 0
 954 897 943 732 943 620 c 0
 943 432 945 432 979 424 c 0
 988 422 1003 420 1023 420 c 0
 1067 420 1150 433 1186 433 c 0
 1213 433 1230 425 1230 404 c 0
 1230 363 1125 350 1086 350 c 0
 1081 350 1075 350 1069 350 c 0
 1056 350 1039 349 1009 345 c 0
 966 339 954 338 954 313 c 0
 954 261 972 187 988 150 c 0
 998 126 1003 110 1003 94 c 0
 1003 82 1000 69 995 54 c 0
 984 21 974 10 950 10 c 0
 929 10 916 21 903 52 c 0
 883 103 716 353 682 389 c 0
 667 404 645 418 634 418 c 0
 623 418 614 412 614 404 c 0
 614 396 588 335 556 268 c 0
 524 202 479 123 457 92 c 0
 409 26 347 -16 240 -16 c 0
 178 -16 162 -11 122 24 c 0
 64 74 48 132 48 234 c 0
 48 294 54 313 86 351 c 0
 105 373 118 383 126 383 c 0
 134 383 139 372 139 353 c 0
776 1485 m 0
 797 1485 822 1473 822 1447 c 0
 822 1434 818 1415 812 1387 c 0
 803 1345 795 1280 794 1243 c 0
 793 1176 787 1170 742 1170 c 0
 722 1170 718 1181 712 1216 c 0
 709 1233 708 1253 708 1276 c 0
 708 1343 720 1425 739 1452 c 0
 751 1471 767 1485 776 1485 c 0
1221 1477 m 0
 1221 1506 1226 1525 1250 1525 c 0
 1284 1525 1311 1501 1311 1467 c 0
 1311 1452 1308 1432 1301 1404 c 0
 1292 1366 1280 1299 1276 1255 c 0
 1269 1195 1262 1174 1243 1172 c 0
 1230 1170 1212 1174 1201 1182 c 0
 1187 1194 1181 1227 1181 1287 c 0
 1181 1339 1189 1389 1201 1411 c 0
 1212 1431 1221 1462 1221 1477 c 0
EndSplineSet
EndChar

StartChar: Odieresis
Encoding: 214 214 41
Width: 1079
VWidth: 2243
Flags: HW
LayerCount: 2
Fore
SplineSet
723 926 m 0
 669 949 608 960 543 960 c 0
 498 960 452 955 405 944 c 0
 284 919 243 885 193 783 c 0
 157 709 153 687 153 537 c 0
 153 382 156 365 200 263 c 0
 225 203 261 143 278 127 c 0
 321 87 391 65 476 65 c 0
 596 65 689 95 783 139 c 0
 859 171 879 187 904 239 c 0
 931 293 943 370 943 451 c 0
 943 562 921 681 892 753 c 0
 874 800 865 808 830 808 c 0
 793 808 788 815 788 853 c 0
 788 890 781 901 723 926 c 0
802 1007 m 0
 802 1035 665 1071 632 1071 c 0
 578 1071 480 1048 463 1031 c 0
 462.539506928 1030.40135901 462.318634728 1029.8620931 462.318634728 1029.37800335 c 0
 462.318634728 1026.68391902 469.159509771 1025.69875608 479.609594124 1025.69875608 c 0
 508.058409951 1025.69875608 563.255813953 1033 580 1033 c 0
 618 1033 656 1028 698 1017 c 0
 745 1004 789 994 794 994 c 0
 799 994 802 1000 802 1007 c 0
916 994 m 0
 916 976 911 941 911 921 c 0
 911 890 918 872 940 844 c 0
 1007 756 1020 681 1027 500 c 0
 1029 454 1031 418 1031 388 c 0
 1031 121 857 43 628 -2 c 0
 571 -13 513 -18 458 -18 c 0
 440 -18 422 -17 405 -16 c 0
 280 -8 252 19 192 79 c 0
 112 165 64 319 50 476 c 0
 49 492 48 510 48 528 c 0
 48 638 71 777 106 835 c 1
 152 923 186 946 271 1011 c 0
 313 1042 387 1086 435 1109 c 0
 497 1139 522 1149 579 1149 c 0
 727 1149 830 1121 894 1053 c 0
 909 1037 916 1021 916 994 c 0
502 1522 m 0
 516 1522 534 1513 541 1505 c 0
 548 1496 553 1447 553 1392 c 0
 553 1316 545 1259 530 1250 c 0
 518 1243 498 1245 481 1257 c 0
 460 1271 447 1308 447 1343 c 0
 447 1365 452 1386 462 1402 c 0
 470 1419 475 1445 470 1457 c 0
 467 1465 465 1474 465 1481 c 0
 465 1504 480 1522 502 1522 c 0
733 1537 m 0
 765 1537 770 1523 770 1489 c 0
 770 1462 768 1421 764 1379 c 0
 752 1261 752 1258 717 1258 c 0
 689 1258 683 1262 683 1303 c 0
 683 1358 690 1431 696 1477 c 0
 704 1523 711 1537 733 1537 c 0
EndSplineSet
EndChar

StartChar: Udieresis
Encoding: 220 220 42
Width: 1066
VWidth: 2466
Flags: HW
LayerCount: 2
Fore
SplineSet
946 194 m 0
 897 194 833 251 833 304 c 0
 833 329 826 349 820 349 c 0
 814 349 790 313 768 266 c 0
 683 97 550 -20 297 -20 c 0
 252 -20 238 -8 191 33 c 0
 138 80 119 108 87 211 c 0
 60 301 48 368 48 458 c 0
 48 608 99 863 135 971 c 0
 149 1014 189 1099 221 1160 c 0
 272 1252 287 1272 318 1272 c 0
 356 1272 369 1247 369 1214 c 0
 369 1157 330 1077 309 1062 c 0
 292 1050 260 979 233 895 c 0
 208 814 176 691 164 618 c 0
 153 554 148 512 148 475 c 0
 148 420 158 379 174 300 c 0
 186 236 204 193 243 149 c 0
 282 105 308 87 339 87 c 0
 409 87 535 132 577 166 c 0
 600 184 641 241 667 293 c 0
 731 415 777 581 811 734 c 0
 825 798 840 905 846 971 c 0
 854 1065 862 1094 884 1108 c 0
 892.719564564 1113.30756104 899.570697219 1116.31551357 906.079062026 1116.31551357 c 0
 916.738113029 1116.31551357 926.47778757 1108.24754341 942 1089 c 0
 964 1063 971 1031 971 958 c 0
 971 842 926 583 926 469 c 0
 926 421 934 363 944 341 c 0
 953 319 972 302 989 302 c 0
 1007 302 1018 292 1018 267 c 0
 1018 221 990 194 946 194 c 0
576 1572 m 0
 604 1572 609 1543 609 1501 c 0
 609 1476 605 1440 605 1415 c 0
 605 1375 611 1344 624 1314 c 0
 634.752443412 1285.32681757 651.125062345 1263.07669288 660.887850521 1263.07669288 c 0
 662.020581962 1263.07669288 663.064332559 1263.37622171 664 1264 c 0
 672 1269 678 1300 678 1331 c 0
 678 1363 689 1403 701 1420 c 0
 713 1437 725 1468 728 1488 c 0
 731 1520 752 1533 785 1533 c 0
 796 1533 800 1527 800 1508 c 0
 800 1493 797 1469 793 1431 c 0
 787 1386 783 1322 783 1274 c 0
 783 1252 784 1236 784 1216 c 0
 784 1171 778 1145 763 1133 c 0
 752 1124 742 1120 733 1120 c 0
 708 1120 688 1147 677 1173 c 0
 670 1195 663 1203 656 1203 c 0
 643 1203 627 1180 602 1180 c 0
 588 1180 561 1194 543 1211 c 0
 514 1238 510 1261 510 1348 c 0
 510 1406 520 1478 532 1505 c 0
 545 1535 554 1572 576 1572 c 0
EndSplineSet
EndChar

StartChar: uni1E9E
Encoding: 7838 7838 43
Width: 1050
Flags: HW
LayerCount: 2
Fore
SplineSet
850 1447 m 0
 927 1447 949 1391 949 1308 c 0
 949 1202 921 1129 873 1061 c 0
 852 1032 837 1004 837 993 c 0
 837 992 838 991 838 990 c 0
 863 953 959 816 980 769 c 0
 997 731 1002 689 1002 620 c 0
 1002 549 995 512 976 469 c 0
 932 378 861 308 762 260 c 0
 716 239 660 221 640 221 c 0
 609 221 604 226 604 250 c 0
 604 299 638 300 692 314 c 0
 781 338 844 386 883 468 c 0
 908 521 923 568 923 619 c 0
 923 654 916 691 900 733 c 0
 881 783 845 838 790 902 c 0
 745 954 718 993 718 1007 c 0
 718 1017 743 1038 761 1052 c 0
 779 1067 807 1109 825 1145 c 0
 853 1201 858 1240 858 1308 c 0
 858 1350 855 1357 827 1357 c 0
 780 1357 733 1341 677 1315 c 0
 577 1267 469 1203 400 1128 c 1
 289 997 214 834 175 627 c 0
 156 527 129 381 129 260 c 0
 129 190 139 131 168 92 c 0
 185 68 196 46 192 40 c 0
 188 35 178 31 171 31 c 0
 163 31 138 44 114 59 c 0
 76 85 70 97 57 170 c 0
 51 200 48 225 48 253 c 0
 48 288 53 330 61 400 c 0
 90 623 102 744 174 921 c 0
 235 1079 326 1195 454 1283 c 0
 544 1343 615 1383 723 1419 c 0
 766 1434 823 1447 850 1447 c 0
EndSplineSet
EndChar

StartChar: a
Encoding: 97 97 44
Width: 1260
VWidth: 2816
Flags: HW
LayerCount: 2
Fore
SplineSet
549 451 m 0
 531 451 504 465 504 488 c 0
 504 524 572 582 572 607 c 0
 572 639 479 701 449 701 c 0
 433 701 384 674 339 640 c 0
 287 602 240 548 210 484 c 0
 182 430 161 359 161 325 c 0
 161 249 226 148 266 116 c 0
 282 104 322 94 354 94 c 0
 386 94 455 112 503 133 c 0
 620 183 704 284 720 428 c 0
 734 536 758 638 818 688 c 0
 836.543774485 705.660737604 866.004106815 715.523933891 894.675618841 715.523933891 c 0
 898.47331922 715.523933891 902.257180167 715.350889359 906 715 c 0
 949 709 962 696 962 638 c 0
 962 597 944 529 911 452 c 0
 883 378 858 300 858 278 c 0
 858 251 881 211 915 179 c 0
 957 141 972 130 1027 130 c 0
 1056 130 1120 135 1148 135 c 0
 1202 135 1212 125 1212 91 c 0
 1212 36 1149 9 1088 9 c 0
 1056 9 1016 15 983 22 c 0
 935 34 858 72 812 106 c 0
 769 139 748 154 730 154 c 0
 714 154 700 141 674 116 c 0
 594 45 504 -22 367 -22 c 0
 216 -22 129 61 75 157 c 0
 58 189 48 245 48 315 c 0
 48 320 48 324 48 329 c 0
 48 423 57 463 95 527 c 0
 139 602 324 802 414 814 c 0
 446 817 487 823 507 823 c 0
 508 823 l 0
 527 823 575 791 618 748 c 0
 686 682 696 660 696 596 c 0
 696 532 689 517 639 487 c 0
 607 467 567 451 549 451 c 0
EndSplineSet
Substitution2: "ss02" a.ss02
Substitution2: "ss01" a.ss01
EndChar

StartChar: b
Encoding: 98 98 45
Width: 1041
VWidth: 3040
Flags: HW
LayerCount: 2
Fore
SplineSet
861 277 m 0
 861 455 757 589 613 619 c 0
 606 621 599 622 592 622 c 0
 535 622 386 498 367 463 c 0
 357 442 347 389 347 343 c 0
 347 297 334 247 323 234 c 0
 316 228 314 221 314 215 c 0
 314 174 442 133 503 115 c 0
 567 96 619 86 664 86 c 0
 720 86 765 102 813 139 c 0
 853 169 861 194 861 277 c 0
331 1451 m 0
 339 1451 355 1439 373 1423 c 0
 389 1407 396 1384 396 1337 c 0
 396 1317 394 1293 392 1264 c 0
 379 1107 349 891 330 749 c 0
 326 721 324 698 324 680 c 0
 324 651 330 636 343 636 c 0
 354 636 369 646 391 666 c 0
 444 711 535 746 634 746 c 0
 765 746 873 618 927 512 c 0
 964 437 993 351 993 266 c 0
 993 153 940 75 867 23 c 0
 812 -14 780 -24 687 -24 c 0
 679 -24 672 -24 663 -24 c 0
 565 -24 498 -9 424 23 c 0
 366 47 269 109 207 160 c 0
 143 210 77 276 64 303 c 0
 53.5626930588 322.925767797 48.0770850351 335.649064441 48.0770850351 346.08185371 c 0
 48.0770850351 357.639541985 54.8094221551 366.386153027 69 379 c 0
 81 392 90 398 99 398 c 0
 121 398 136 365 159 365 c 0
 165 365 177 445 183 543 c 0
 194 690 236 1249 263 1375 c 0
 271 1415 296 1451 331 1451 c 0
EndSplineSet
EndChar

StartChar: c
Encoding: 99 99 46
Width: 1393
VWidth: 3204
Flags: HW
LayerCount: 2
Fore
SplineSet
1050 704 m 0
 1050 655 900 556 849 556 c 0
 813 556 797 570 797 590 c 0
 797 606 808 625 827 644 c 0
 851 668 869 696 869 706 c 0
 869 711.126035856 850.935082525 714.609806488 823.749702406 714.609806488 c 0
 808.507942519 714.609806488 790.39925797 713.514718626 771 711 c 0
 601 692 422 587 322 480 c 0
 269 426 221 356 213 325 c 0
 210 315 209 305 209 296 c 0
 209 220 290 156 348 129 c 1
 399 100 465 92 609 92 c 0
 733 92 868 107 992 136 c 0
 1097 158 1217 182 1259 182 c 0
 1264 182 1269 182 1274 182 c 0
 1322 182 1345 169 1345 151 c 0
 1345 136 1330 118 1300 100 c 0
 1269 80 1150 45 1033 19 c 0
 887 -12 750 -25 597 -25 c 0
 583 -25 570 -26 558 -26 c 0
 415 -26 353 -17 295 10 c 0
 201 52 101 123 64 213 c 0
 55 236 48 266 48 292 c 0
 48 303 49 313 52 321 c 0
 59 347 104 419 152 480 c 0
 259 614 412 721 579 787 c 0
 654 819 739 837 807 837 c 0
 890 837 932 824 983 792 c 1
 1020 763 1050 728 1050 704 c 0
EndSplineSet
EndChar

StartChar: d
Encoding: 100 100 47
Width: 1472
VWidth: 2637
Flags: HW
LayerCount: 2
Fore
SplineSet
408 687 m 0
 407 687 374 674 336 657 c 0
 238 612 212 561 173 449 c 0
 157 402 148 374 148 343 c 0
 148 321 152 296 160 262 c 0
 177 175 214 91 301 91 c 0
 339 91 370 109 427 169 c 0
 467 211 486 231 486 242 c 0
 486 251 472 254 448 260 c 0
 412 270 397 285 397 305 c 0
 397 323 422 352 453 370 c 0
 502 399 526 443 526 501 c 0
 526 527 520 556 511 587 c 0
 498 637 482 662 453 672 c 0
 429 682 409 687 408 687 c 0
853 1235 m 0
 846 1235 835 1215 825 1190 c 0
 797 1116 699 714 686 619 c 0
 682 592 681 570 681 554 c 0
 681 534 684 522 689 522 c 0
 721 522 817 812 825 846 c 0
 839 900 858 1091 858 1187 c 0
 858 1216 857 1235 853 1235 c 0
1389 318 m 0
 1410 318 1424 299 1424 281 c 0
 1424 266 1392 242 1349 224 c 0
 1279 193 1068 147 941 147 c 0
 923 147 906 148 892 150 c 0
 849 157 777 182 734 210 c 0
 704 228 685 239 667 239 c 0
 637 239 608 209 530 127 c 0
 431 22 392 -9 342 -17 c 0
 326 -20 312 -21 298 -21 c 0
 225 -21 177 17 132 62 c 0
 61 129 48 208 48 349 c 0
 48 507 91 579 171 659 c 0
 242 730 285 762 397 780 c 0
 415 782 428 783 440 783 c 0
 472 783 491 774 528 746 c 0
 557.736071257 724.118740018 572.677199514 713.884562824 581.830657931 713.884562824 c 0
 588.991839464 713.884562824 592.610579482 720.148564603 597 732 c 0
 604 749 624 837 644 928 c 0
 682 1102 709 1241 779 1359 c 0
 799 1395 827 1434 840 1445 c 0
 850 1453 860 1456 870 1456 c 0
 902 1456 932 1420 944 1397 c 0
 953 1378 958 1333 958 1251 c 0
 958 1216 957 1175 955 1126 c 0
 948 955 935 857 910 767 c 0
 890 701 852 602 824 547 c 0
 797 492 769 441 759 433 c 0
 751 423 744 399 744 379 c 0
 744 355 764 325 798 300 c 0
 848 262 870 258 993 258 c 0
 1083 258 1175 269 1255 293 c 0
 1309 308 1364 318 1389 318 c 0
EndSplineSet
Substitution2: "ss01" d.ss01
EndChar

StartChar: e
Encoding: 101 101 48
Width: 1290
VWidth: 3078
Flags: HW
LayerCount: 2
Fore
SplineSet
606 729 m 0
 598 727 573 721 551 718 c 0
 463 694 303 565 252 490 c 0
 223 446 199 401 199 389 c 0
 199 379 234 369 276 369 c 0
 404 369 531 454 607 527 c 0
 655 575 682 617 682 653 c 0
 682 704 648 729 606 729 c 0
606 852 m 0
 727 852 817 772 817 650 c 0
 817 576 785 512 745 474 c 0
 716 448 638 388 573 344 c 0
 486 286 426 260 356 253 c 0
 303 250 259 236 259 228 c 0
 259 220 272 204 286 192 c 0
 298 180 368 156 441 136 c 0
 538 110 656 99 901 97 c 0
 1141 95 1234 89 1241 70 c 0
 1244 58 1240 33 1228 19 c 0
 1202 -11 1088 -26 1007 -26 c 0
 809 -26 458 13 362 29 c 1
 274 48 233 70 150 148 c 0
 58 236 48 255 48 335 c 0
 48 400 65 445 109 508 c 0
 180 617 347 745 464 806 c 0
 512 830 575 852 606 852 c 0
EndSplineSet
Substitution2: "ss02" e.ss02
Substitution2: "ss01" e.ss01
EndChar

StartChar: f
Encoding: 102 102 49
Width: 892
VWidth: 2760
Flags: HW
LayerCount: 2
Fore
SplineSet
678 1314 m 0
 678 1340 661 1331 643 1302 c 0
 600 1240 530 1054 506 970 c 0
 502 952 471 836 471 789 c 0
 471 777 473 770 478 770 c 0
 486 770 521 831 555 904 c 0
 590 980 633 1100 651 1173 c 0
 666 1233 678 1290 678 1314 c 0
721 1526 m 0
 774 1512 815 1460 815 1386 c 0
 815 1275 766 1097 735 1003 c 0
 680 856 641 764 535 651 c 0
 466 575 443 537 436 485 c 0
 434.158002809 473.948016854 433.352741456 463.555774696 433.352741456 454.459828359 c 0
 433.352741456 433.927239817 437.455996255 420 443 420 c 0
 451 420 526 449 607 485 c 0
 691 521 773 553 794 553 c 0
 823 553 844 533 844 511 c 0
 844 501 839 490 829 480 c 0
 815 469 741 430 663 396 c 0
 583 361 499 315 474 291 c 0
 444 263 434 251 434 211 c 0
 434 193 436 170 439 138 c 0
 446 78 465 -43 485 -128 c 0
 503 -203 510 -251 510 -280 c 0
 510 -295 508 -304 504 -311 c 0
 494 -326 467 -350 443 -364 c 0
 423.392995634 -374.042611993 411.790281397 -379.282649907 402.28609549 -379.282649907 c 0
 391.916178505 -379.282649907 384.044509533 -373.044509533 371 -360 c 0
 333 -322 323 -181 282 -145 c 0
 264 -128 248 -105 248 -98 c 0
 248 -90 232 -81 212 -75 c 0
 166 -64 48 31 48 86 c 0
 48 110 55 136 62 144 c 0
 69 154 119 197 174 240 c 0
 278 317 278 318 285 448 c 0
 287 474 288 500 288 524 c 0
 288 565 284 599 280 611 c 0
 278.2 616.4 277.3 623.33 277.3 631.034 c 0
 277.3 649.01 282.2 671.2 292 688 c 0
 303 712 335 821 362 929 c 0
 421 1152 482 1328 608 1458 c 0
 658 1509 684 1528 707 1528 c 0
 712 1528 716 1527 721 1526 c 0
EndSplineSet
EndChar

StartChar: g
Encoding: 103 103 50
Width: 831
VWidth: 2660
Flags: HW
LayerCount: 2
Fore
SplineSet
400 362 m 0
 418 362 485 441 485 457 c 0
 485 464 481 469 472 475 c 0
 460 484 448 503 448 517 c 0
 448 531 463 566 481 595 c 0
 496 621 507 658 507 682 c 0
 507 716 502 731 485 710 c 0
 450 662 382 506 382 420 c 0
 382 381 387 362 400 362 c 0
519 881 m 0
 548 881 577 868 595 848 c 0
 618 822 625 794 625 703 c 0
 625 596 627 588 658 588 c 0
 676 588 702 572 716 550 c 0
 741 511 783 275 783 192 c 0
 783 151 778 111 767 46 c 0
 740 -111 706 -232 624 -319 c 0
 576 -367 563 -373 468 -378 c 0
 452 -379 437 -380 423 -380 c 0
 377 -380 343 -373 322 -362 c 0
 249 -323 147 -218 99 -144 c 0
 70 -102 48 -53 48 -27 c 0
 48 2 59 24 79 34 c 0
 96 43 117 47 125 42 c 0
 133 37 153 3 170 -32 c 0
 200 -102 294 -213 356 -244 c 0
 387 -259 421 -273 460 -273 c 0
 473 -273 488 -271 502 -267 c 0
 520 -262 553 -227 576 -184 c 0
 623 -94 664 29 664 160 c 0
 664 205 638 404 622 404 c 0
 617 404 577 368 534 322 c 0
 461 244 448 235 391 235 c 0
 351 235 314 245 288 267 c 0
 253 294 248 310 248 387 c 0
 248 537 326 697 399 791 c 0
 459 865 479 881 519 881 c 0
EndSplineSet
EndChar

StartChar: h
Encoding: 104 104 51
Width: 1048
VWidth: 3189
Flags: HW
LayerCount: 2
Fore
SplineSet
203 1512 m 0
 211 1512 234 1495 254 1473 c 0
 274 1451 282 1431 282 1368 c 0
 282 1029 218 759 193 458 c 0
 188 399 185 346 185 312 c 0
 185 288 186 273 189 273 c 0
 196 273 218 303 240 344 c 0
 315 468 437 606 570 691 c 0
 638 737 713 772 745 772 c 0
 854 772 902 636 929 517 c 0
 948 442 971 325 983 259 c 0
 992 218 1000 173 1000 136 c 0
 1000 87 986 52 944 52 c 0
 922 52 895 70 883 94 c 0
 869 116 839 234 813 356 c 0
 787 478 757 586 747 596 c 0
 735 608 709 611 689 604 c 0
 667 597 601 543 541 485 c 0
 480 427 394 318 352 242 c 0
 310 164 253 72 227 36 c 0
 198 -3 160 -26 128 -26 c 0
 98 -26 71 -6 58 41 c 0
 51 63 48 124 48 198 c 0
 48 239 50 283 52 327 c 0
 72 650 99 770 131 1095 c 0
 143 1207 149 1321 149 1375 c 0
 149 1392.64102564 147.653517423 1409.60880999 147.653517423 1425.28189956 c 0
 147.653517423 1447.81196581 150.435897436 1467.66666667 164 1483 c 0
 178 1498 195 1512 203 1512 c 0
EndSplineSet
EndChar

StartChar: i
Encoding: 105 105 52
Width: 544
VWidth: 2172
Flags: HW
LayerCount: 2
Fore
SplineSet
190 -18 m 0
 115 -18 48 45 48 121 c 0
 48 141 51 165 58 196 c 0
 66 243 98 334 128 399 c 0
 176 500 189 515 220 515 c 0
 256 515 268 493 268 462 c 0
 268 426 251 378 236 333 c 0
 216 273 196 194 191 157 c 0
 187.33809621 133.807942665 185.166141239 113.595782967 185.166141239 101.364899361 c 0
 185.166141239 93.5555782406 186.051586491 89 188 89 c 0
 193 89 218 96 244 106 c 0
 270 114 323 150 361 184 c 0
 403 222 439 243 458 243 c 0
 475 243 496 226 496 212 c 0
 496 197 473 159 443 127 c 0
 412 93 355 49 318 29 c 0
 272 4 232 -18 190 -18 c 0
186 784 m 0
 186 845 187 856 241 856 c 0
 294 856 342 767 342 707 c 0
 342 664 331 648 313 648 c 0
 295 648 270 663 242 685 c 0
 194 723 186 738 186 784 c 0
EndSplineSet
Substitution2: "ss01" i.ss01
EndChar

StartChar: j
Encoding: 106 106 53
Width: 645
VWidth: 2076
Flags: HW
LayerCount: 2
Fore
SplineSet
453 406 m 0
 453 432 473 453 491 453 c 0
 513 453 533 421 549 388 c 0
 582 324 597 219 597 112 c 0
 597 -77 563 -221 474 -310 c 1
 416 -362 383 -380 279 -380 c 0
 207 -380 200 -377 137 -320 c 0
 94 -280 66 -243 57 -210 c 0
 51 -190 48 -177 48 -166 c 0
 48 -143 74 -119 92 -119 c 0
 102 -119 126 -148 142 -182 c 0
 158 -217 182 -253 194 -263 c 0
 207 -274 259 -286 298 -286 c 0
 417 -286 457 -189 483 -87 c 0
 493 -51 501 24 501 80 c 0
 501 138 488 229 472 298 c 0
 459 355 453 386 453 406 c 0
480 845 m 0
 516 845 562 770 562 731 c 0
 562 693 529 662 493 662 c 0
 449 662 435 707 435 753 c 0
 435 790 449 845 480 845 c 0
EndSplineSet
EndChar

StartChar: k
Encoding: 107 107 54
Width: 1140
VWidth: 3375
Flags: HW
LayerCount: 2
Fore
SplineSet
1044 159 m 0
 1073 159 1092 129 1092 101 c 0
 1092 76 1063 41 1023 16 c 0
 974 -15 915 -27 832 -27 c 0
 726 -27 699 -18 631 41 c 0
 588 79 537 144 523 184 c 0
 508 217 500 235 486 235 c 0
 469 235 444 208 388 149 c 0
 327 82 260 36 220 27 c 0
 205 24 192 22 179 22 c 0
 149 22 122 31 96 49 c 0
 60 72 48 80 48 154 c 0
 48 474 129 1009 166 1283 c 0
 177 1362 174 1472 251 1472 c 0
 299 1472 329 1423 329 1372 c 0
 329 1332 319 1249 307 1166 c 0
 296 1089 267 877 240 693 c 0
 219 536 204 400 204 326 c 0
 204 286 215 218 228 218 c 0
 236 218 249 230 271 250 c 0
 296 275 370 380 431 477 c 0
 490 578 554 693 568 736 c 0
 586 789 615 822 650 822 c 0
 682 822 744 774 744 734 c 0
 744 711 733 677 710 610 c 0
 685 536 665 430 665 374 c 0
 665 250 704 155 789 121 c 0
 806 114 822 111 840 111 c 0
 889 111 997 159 1044 159 c 0
EndSplineSet
EndChar

StartChar: l
Encoding: 108 108 55
Width: 1092
VWidth: 2751
Flags: HW
LayerCount: 2
Fore
SplineSet
321 734 m 0
 321 730 322 729 325 729 c 0
 336 729 369 759 406 798 c 0
 480 885 552 998 573 1123 c 0
 575.926077718 1138.8844219 577.279555899 1153.7204441 577.279555899 1165.60901487 c 0
 577.279555899 1182.16124554 574.65591118 1193 570 1193 c 0
 563 1193 521 1133 478 1056 c 0
 436 980 381 879 356 830 c 0
 336 787 321 748 321 734 c 0
635 1444 m 0
 708 1444 711 1372 714 1278 c 0
 714 1085 646 902 562 794 c 0
 544 770 490 711 444 665 c 0
 392 610 337 570 296 559 c 0
 243 542 228 525 196 454 c 0
 175 405 159 332 159 286 c 0
 159 279 158 272 158 266 c 0
 158 158 193 115 304 102 c 0
 325 99 344 98 363 98 c 0
 401 98 438 104 478 116 c 0
 555 144 898 340 951 388 c 0
 964 399 985 407 1003 407 c 0
 1031.21612137 407 1043.19134571 390.06800098 1043.19134571 369.610402768 c 0
 1043.19134571 355.266452551 1037.30410346 339.189252423 1027 326 c 0
 1017 312 929 250 838 188 c 0
 744 126 615 52 548 25 c 0
 467 -10 427 -21 374 -21 c 0
 239 -21 132 20 82 102 c 0
 57 144 48 185 48 279 c 0
 48 457 117 593 173 727 c 0
 237 884 409 1211 511 1337 c 0
 567 1406 614 1444 635 1444 c 0
EndSplineSet
EndChar

StartChar: m
Encoding: 109 109 56
Width: 1394
VWidth: 1953
Flags: HW
LayerCount: 2
Fore
SplineSet
1274 -12 m 0
 1238 -12 1141 -11 1141 -10 c 0
 1141 -7 1322 0 1333 8 c 0
 1336 12 1340 16 1342 16 c 0
 1344 16 1346 8 1346 1 c 0
 1346 -9 1332 -12 1274 -12 c 0
325 780 m 0
 325 748 317 665 317 631 c 0
 317 623 317 620 319 620 c 0
 320 620 322 622 325 627 c 0
 338 647 432 760 457 769 c 0
 468 772 483 768 494 758 c 0
 508 746 512 729 512 693 c 0
 512 671 512 660 519 660 c 0
 527 660 543 675 577 708 c 0
 612 743 660 783 685 800 c 0
 710 816 738 830 748 830 c 0
 758 830 769 824 774 818 c 0
 780 808 796 485 797 467 c 0
 797 443 768 423 743 423 c 0
 727 423 722 431 713 477 c 0
 707 507 702 568 702 614 c 0
 702 627 702 639 702 649 c 0
 702 683 699 703 686 703 c 0
 679 703 670 698 656 687 c 0
 642 675 601 629 564 586 c 0
 514 526 488 504 457 492 c 0
 439 486 427 482 419 482 c 0
 411 482 393 498 405 498 c 0
 411 498 413 518 413 540 c 0
 413 565 410 593 406 593 c 0
 402 593 390 574 376 552 c 0
 350 510 307 456 259 445 c 0
 234 440 228 442 222 461 c 0
 218 473 217 490 217 508 c 0
 217 575 225 603 234 668 c 0
 236 686 237 697 237 704 c 0
 237 710 236 713 234 713 c 0
 231 713 226 709 218 704 c 0
 196 690 110 564 84 552 c 0
 62 544 48 550 48 571 c 0
 48 578 62 612 78 643 c 0
 95 674 142 737 183 780 c 0
 225 823 265 858 275 858 c 0
 307 858 325 817 325 780 c 0
EndSplineSet
Substitution2: "ss01" m.ss01
EndChar

StartChar: n
Encoding: 110 110 57
Width: 781
VWidth: 962
Flags: HW
LayerCount: 2
Fore
SplineSet
667 45 m 0
 670 45 673 38 673 35 c 0
 673 31 670 26 666 23 c 0
 659 17 667 -6 649 -6 c 0
 644 -6 640 -4 640 -2 c 0
 640 3 653 13 653 18 c 0
 653 24 661 45 667 45 c 0
679 305 m 0
 665 316 692 324 690 311 c 0
 690 308 689 298 689 289 c 0
 688 269 677 269 665 264 c 0
 662 262 660 265 662 271 c 0
 665 280 685 286 678 294 c 0
 674 299 674 300 679 300 c 0
 685 300 685 302 679 305 c 0
113 288 m 0
 107 288 104 285 105 295 c 0
 105 300 106 301 107 301 c 0
 109 301 113 298 115 298 c 0
 117 298 118 300 118 307 c 0
 118 314 120 320 123 320 c 0
 129 320 137 283 137 278 c 0
 137 275 135 272 133 272 c 0
 128 272 121 288 113 288 c 0
681 378 m 0
 685 390 695 386 694 373 c 0
 692 359 719 363 707 351 c 0
 703 346 673 336 670 348 c 0
 668 351 672 353 676 353 c 0
 687 353 677 368 681 378 c 0
722 459 m 0
 729 459 733 442 733 430 c 0
 733 404 712 430 712 440 c 0
 712 445 709 449 706 449 c 0
 698 449 718 459 722 459 c 0
330 480 m 0
 331 490 340 496 350 496 c 0
 351 496 345 485 345 479 c 0
 345 472 347 468 353 468 c 0
 358 468 362 466 362 463 c 0
 362 461 359 460 355 460 c 0
 351 460 347 461 343 461 c 0
 339 461 335 460 335 457 c 0
 335 455 350 423 332 442 c 0
 328 446 326 450 326 455 c 0
 326 463 330 471 330 480 c 0
151 496 m 0
 151 484 132 484 132 477 c 0
 132 475 102 492 99 490 c 0
 96 488 94 487 94 489 c 0
 94 490 98 495 102 499 c 0
 117 514 116 487 128 496 c 0
 133 500 151 511 151 496 c 0
694 502 m 0
 694 510 702 511 715 511 c 0
 716 511 715 511 716 511 c 0
 731 511 731 511 731 490 c 0
 731 478 729 468 726 468 c 0
 723 468 714 479 714 486 c 0
 714 489 719 492 713 492 c 0
 710 492 707 491 707 488 c 0
 707 486 705 483 703 483 c 0
 699 483 694 494 694 502 c 0
403 530 m 0
 417 530 391 550 411 550 c 0
 413 550 415 546 415 542 c 0
 415 541 415 539 415 538 c 0
 415 534 415 530 415 527 c 0
 415 521 416 516 424 516 c 0
 432 516 434 514 434 504 c 0
 434 481 412 504 407 489 c 0
 401 475 395 496 395 510 c 0
 395 526 397 530 403 530 c 0
431 575 m 0
 437 575 441 568 441 563 c 0
 441 555 453 551 453 566 c 0
 453 576 456 578 466 578 c 0
 479 578 478 579 468 571 c 0
 462 567 458 560 460 556 c 0
 464 546 448 546 448 538 c 0
 448 535 459 523 466 523 c 0
 470 523 473 530 467 530 c 0
 463 530 462 532 467 535 c 0
 471 537 475 545 475 551 c 0
 475 563 491 569 491 554 c 0
 491 548 493 545 496 547 c 0
 507 554 485 566 511 563 c 0
 521 562 527 564 528 568 c 0
 530 571 527 574 523 574 c 0
 519 574 515 576 515 578 c 0
 515 584 521 588 527 588 c 0
 535 588 553 578 545 567 c 0
 542 563 539 556 541 552 c 0
 545 542 536 548 527 548 c 0
 515 548 495 530 504 518 c 0
 507 513 511 506 511 501 c 0
 511 496 513 492 517 492 c 0
 528 492 515 511 527 511 c 0
 531 511 535 508 535 505 c 0
 535 496 524 488 515 488 c 0
 488 488 500 432 487 432 c 0
 482 432 473 438 467 438 c 0
 465 438 436 422 436 417 c 0
 436 414 443 413 445 413 c 0
 466 413 471 253 471 229 c 0
 471 218 457 199 446 203 c 0
 442 205 439 210 439 215 c 0
 439 220 436 231 431 240 c 0
 426 250 423 272 421 300 c 0
 419 337 418 343 411 343 c 0
 400 343 389 335 376 325 c 0
 352 307 338 267 320 244 c 0
 314 235 307 229 305 231 c 0
 299 234 296 224 291 224 c 0
 284 224 278 244 278 258 c 0
 278 263 279 268 281 270 c 0
 290 284 298 332 298 353 c 0
 298 362 296 366 292 366 c 0
 288 366 283 363 276 358 c 0
 268 352 249 333 235 314 c 0
 220 296 204 280 200 278 c 0
 194 276 189 268 185 268 c 0
 180 268 178 280 178 288 c 0
 178 301 189 318 202 336 c 0
 214 352 223 366 223 368 c 0
 223 372 269 408 271 412 c 0
 279 427 245 435 263 450 c 0
 271 456 295 452 295 460 c 0
 295 464 296 468 297 468 c 0
 303 468 314 478 314 464 c 0
 314 458 310 452 306 450 c 0
 301 447 300 444 303 444 c 0
 306 444 309 441 309 437 c 0
 309 433 308 430 305 430 c 0
 303 430 300 427 300 425 c 0
 300 419 323 425 331 425 c 0
 346 425 348 397 348 379 c 0
 348 369 348 364 351 364 c 0
 356 364 413 406 415 406 c 0
 418 406 419 409 417 411 c 0
 415 414 409 416 402 416 c 0
 395 416 391 418 391 422 c 0
 391 434 400 433 400 450 c 0
 400 459 403 464 407 464 c 0
 415 464 417 449 424 449 c 0
 426 449 429 452 429 456 c 0
 429 462 418 467 420 470 c 0
 426 476 453 467 451 460 c 0
 445 447 459 452 467 457 c 0
 475 462 476 467 474 476 c 0
 472 486 473 488 481 488 c 0
 486 488 493 492 496 497 c 0
 499 503 500 506 497 506 c 0
 491 506 477 516 477 503 c 0
 477 498 454 478 445 488 c 0
 443 490 448 492 453 492 c 0
 459 492 463 495 463 499 c 0
 463 505 455 515 452 506 c 0
 451 502 435 530 434 530 c 0
 432 530 431 537 431 545 c 0
 431 554 430 561 425 564 c 0
 422 566 420 567 420 569 c 0
 420 572 426 575 431 575 c 0
583 607 m 0
 576 607 563 588 555 588 c 0
 552 588 549 592 549 596 c 0
 549 602 552 603 559 601 c 0
 568 599 568 600 566 611 c 0
 562 628 567 614 571 614 c 0
 577 614 581 636 585 636 c 0
 587 636 586 630 584 624 c 0
 578 600 606 618 606 603 c 0
 606 597 607 592 607 590 c 0
 607 588 604 584 601 584 c 0
 594 584 589 607 583 607 c 0
670 569 m 0
 668 569 665 570 665 572 c 0
 665 578 683 596 683 599 c 0
 683 601 680 602 676 602 c 0
 672 602 669 601 669 598 c 0
 669 596 665 593 661 593 c 0
 657 593 654 595 654 597 c 0
 654 602 682 622 687 622 c 0
 694 622 696 641 704 641 c 0
 711 641 714 639 714 635 c 0
 714 628 703 617 697 617 c 0
 682 617 684 600 695 600 c 0
 699 600 701 604 704 604 c 0
 711 604 712 576 723 578 c 0
 728 579 731 576 731 569 c 0
 731 564 728 559 725 559 c 0
 720 559 721 559 725 556 c 0
 728 554 729 547 729 539 c 0
 729 532 727 526 725 526 c 0
 720 526 718 559 707 559 c 0
 698 559 695 575 688 575 c 0
 682 575 676 569 670 569 c 0
79 646 m 0
 75 646 72 672 68 672 c 0
 66 672 63 665 57 665 c 0
 50 665 47 672 49 677 c 0
 51 682 58 684 70 684 c 0
 80 684 89 682 89 680 c 0
 89 675 84 646 79 646 c 0
664 724 m 0
 664 727 712 744 712 736 c 0
 712 727 687 731 701 720 c 0
 711 712 712 720 719 720 c 0
 733 720 733 677 717 686 c 0
 710 690 718 701 711 705 c 0
 706 709 701 694 697 694 c 0
 695 694 692 698 691 704 c 0
 690 718 664 714 664 724 c 0
469 753 m 0
 469 735 455 765 453 765 c 0
 451 765 448 762 448 758 c 0
 448 754 446 751 443 751 c 0
 441 751 439 755 439 760 c 0
 439 765 441 770 443 770 c 0
 446 770 448 774 448 779 c 0
 448 788 442 793 442 796 c 0
 442 798 446 799 464 799 c 0
 479 799 491 798 491 796 c 0
 491 783 483 776 467 786 c 0
 459 791 453 792 453 790 c 0
 453 787 455 784 457 784 c 0
 459 784 469 763 469 753 c 0
297 798 m 0
 320 798 339 797 339 790 c 0
 339 779 335 771 325 771 c 0
 314 771 298 774 305 782 c 0
 308 786 309 789 309 790 c 0
 309 791 308 792 306 792 c 0
 300 792 284 784 281 784 c 0
 278 784 276 788 276 792 c 0
 276 797 280 798 297 798 c 0
EndSplineSet
Substitution2: "ss01" n.ss01
EndChar

StartChar: o
Encoding: 111 111 58
Width: 827
VWidth: 977
Flags: HW
LayerCount: 2
Fore
SplineSet
508 5 m 0
 508 13 520 28 525 28 c 0
 535 28 539 19 552 17 c 0
 564 15 565 16 554 5 c 0
 548 -1 537 -6 529 -6 c 0
 517 -6 508 -3 508 5 c 0
710 62 m 0
 714 62 741 35 741 31 c 0
 741 29 734 28 726 28 c 0
 717 28 706 31 702 33 c 0
 696 37 697 38 704 38 c 0
 718 38 704 62 710 62 c 0
297 12 m 0
 297 13 334 13 334 18 c 0
 334 21 328 23 322 23 c 0
 315 23 309 25 307 28 c 0
 303 36 292 24 288 35 c 0
 286 39 282 42 278 42 c 0
 274 42 271 39 271 35 c 0
 271 31 268 28 264 28 c 0
 259 28 256 23 256 13 c 0
 256 5 255 -1 254 -1 c 0
 250 -1 237 -10 237 0 c 0
 237 4 240 14 244 21 c 0
 251 35 251 36 241 38 c 0
 227 42 241 46 238 60 c 0
 237 67 236 72 238 72 c 0
 246 72 254 67 254 58 c 0
 254 57 254 56 254 54 c 0
 251 43 251 42 261 47 c 0
 271 52 295 46 298 54 c 0
 300 58 304 62 307 62 c 0
 311 61 332 48 332 40 c 0
 332 35 331 32 342 28 c 0
 355 23 355 22 347 16 c 0
 335 8 346 -4 328 -4 c 0
 311 -5 322 0 306 7 c 0
 300 10 297 11 297 12 c 0
162 76 m 0
 177 76 141 42 165 36 c 0
 177 32 200 53 190 31 c 0
 186 20 175 31 171 21 c 0
 169 17 166 13 164 13 c 0
 162 13 159 18 157 24 c 0
 153 39 151 23 144 23 c 0
 139 23 145 52 140 55 c 0
 131 62 157 76 162 76 c 0
459 93 m 0
 459 83 450 63 440 63 c 0
 433 63 432 71 434 80 c 0
 437 91 436 92 427 90 c 0
 420 88 417 89 419 93 c 0
 421 99 459 103 459 93 c 0
631 35 m 0
 623 35 610 25 610 36 c 0
 610 46 623 38 630 42 c 0
 632 43 633 44 635 44 c 0
 641 44 648 39 654 39 c 0
 665 39 665 47 650 50 c 0
 631 54 634 64 623 72 c 0
 620 74 623 76 631 76 c 0
 642 76 644 78 644 91 c 0
 644 99 646 106 649 106 c 0
 655 106 659 89 666 89 c 0
 672 89 704 102 711 102 c 0
 715 102 717 100 717 95 c 0
 717 93 713 91 708 91 c 0
 703 91 695 88 690 84 c 0
 685 80 683 76 687 76 c 0
 690 76 693 75 693 72 c 0
 693 70 690 67 686 67 c 0
 681 67 657 52 680 52 c 0
 693 52 694 51 691 37 c 0
 689 29 689 22 691 24 c 0
 699 31 712 15 712 8 c 0
 712 -16 678 3 678 3 c 1
 678 9 660 14 655 16 c 0
 646 21 661 -1 661 -2 c 0
 661 -5 656 -5 644 -5 c 0
 633 -5 625 -5 625 -3 c 0
 625 1 644 20 644 26 c 0
 644 32 638 35 631 35 c 0
126 72 m 0
 112 71 113 86 103 86 c 0
 96 86 72 67 72 61 c 0
 72 56 83 61 87 61 c 0
 92 61 95 58 95 54 c 0
 95 50 93 46 89 42 c 0
 81 33 81 33 89 33 c 0
 94 33 97 30 95 27 c 0
 94 23 89 22 82 22 c 0
 62 22 39 26 54 42 c 0
 58 47 62 54 62 58 c 0
 62 67 73 69 69 79 c 0
 65 91 48 74 48 92 c 0
 48 110 58 85 64 98 c 0
 69 112 80 91 83 91 c 0
 83 91 91 93 100 95 c 0
 113 98 114 99 112 93 c 0
 110 89 114 86 120 86 c 0
 126 86 131 88 133 91 c 0
 137 97 150 90 150 86 c 0
 150 84 142 81 134 81 c 0
 101 81 151 72 126 72 c 0
366 52 m 0
 356 52 346 54 346 65 c 0
 346 79 355 106 362 108 c 0
 369 111 370 112 361 115 c 0
 356 117 354 120 356 120 c 0
 366 120 382 115 382 104 c 0
 382 98 399 73 392 69 c 0
 389 67 388 61 390 56 c 0
 394 41 377 52 366 52 c 0
575 118 m 0
 587 118 596 111 596 124 c 0
 596 130 592 134 585 136 c 0
 575 138 576 138 588 139 c 0
 595 139 600 137 600 134 c 0
 600 132 606 126 614 122 c 0
 630 112 611 118 596 109 c 0
 584 102 579 101 576 105 c 0
 568 119 557 87 557 74 c 0
 557 55 568 37 577 53 c 0
 579 57 585 60 589 60 c 0
 594 60 598 62 600 66 c 0
 602 70 599 72 592 70 c 0
 581 66 572 85 572 93 c 0
 572 95 591 89 591 86 c 0
 591 79 574 75 598 79 c 0
 625 83 610 72 610 56 c 0
 610 50 607 47 601 47 c 0
 586 47 579 33 557 33 c 0
 548 33 548 38 548 62 c 0
 548 96 538 95 556 110 c 0
 563 115 568 118 575 118 c 0
232 129 m 0
 232 119 226 113 214 113 c 0
 213 113 213 113 212 113 c 0
 204 113 198 116 198 119 c 0
 198 122 193 125 187 125 c 0
 177 125 165 112 159 118 c 0
 156 121 147 124 139 122 c 0
 116 117 136 127 125 136 c 0
 113 144 127 162 138 158 c 0
 143 156 146 154 144 154 c 0
 138 153 160 134 163 134 c 0
 168 134 169 138 169 143 c 0
 169 147 168 152 168 156 c 0
 168 163 170 168 179 168 c 0
 184 168 188 166 188 164 c 0
 188 157 166 157 180 149 c 0
 185 146 188 141 186 136 c 0
 184 129 184 129 188 134 c 0
 196 145 207 128 220 132 c 0
 228 134 232 133 232 129 c 0
420 171 m 0
 420 167 413 164 409 164 c 0
 405 164 402 161 402 157 c 0
 402 150 424 145 416 140 c 0
 405 133 429 110 412 110 c 0
 406 110 402 114 402 120 c 0
 402 129 400 129 384 127 c 0
 367 124 366 125 375 132 c 0
 380 136 396 143 388 147 c 0
 380 151 393 161 378 156 c 0
 376 155 374 155 372 155 c 0
 363 155 358 164 358 172 c 0
 358 178 372 185 381 185 c 0
 386 185 390 183 390 179 c 0
 390 177 388 174 388 172 c 0
 388 170 390 169 393 169 c 0
 400 169 412 173 417 173 c 0
 419 173 420 172 420 171 c 0
655 136 m 0
 657 136 659 135 661 135 c 0
 670 135 680 148 680 157 c 0
 680 168 674 170 694 166 c 0
 698 165 701 165 704 165 c 0
 714 165 715 171 726 171 c 0
 735 171 750 167 753 172 c 0
 759 180 770 167 770 182 c 0
 770 188 772 193 774 193 c 0
 776 193 776 185 776 175 c 0
 776 159 775 138 775 137 c 0
 775 131 779 112 779 102 c 0
 779 85 778 76 762 79 c 0
 755 81 736 92 736 86 c 0
 736 81 716 90 728 98 c 0
 732 101 739 109 739 117 c 0
 739 125 730 125 739 134 c 0
 743 137 746 140 746 138 c 0
 746 136 748 132 748 129 c 0
 748 127 751 122 754 122 c 0
 759 122 768 135 768 146 c 0
 768 153 763 159 752 159 c 0
 738 159 748 149 739 152 c 0
 727 158 723 141 708 150 c 0
 703 153 696 154 694 152 c 0
 690 147 702 144 702 139 c 0
 702 137 695 134 686 134 c 0
 674 134 667 131 662 124 c 0
 658 118 654 117 654 120 c 0
 654 130 636 118 636 127 c 0
 636 132 648 136 655 136 c 0
671 169 m 0
 664 169 643 183 637 183 c 0
 634 183 629 186 626 189 c 0
 622 193 625 196 639 196 c 0
 659 197 655 194 655 184 c 0
 655 181 657 180 662 180 c 0
 667 180 685 183 689 183 c 0
 691 183 691 183 691 182 c 0
 691 179 674 169 671 169 c 0
543 167 m 0
 554 167 560 179 576 179 c 0
 580 179 584 178 584 173 c 0
 584 163 562 166 562 156 c 0
 562 152 557 149 551 149 c 0
 538 149 520 166 508 161 c 0
 501 159 499 160 499 165 c 0
 499 172 494 175 488 175 c 0
 457 175 498 151 492 146 c 0
 482 136 460 167 460 176 c 0
 460 183 464 183 478 183 c 0
 508 184 480 192 480 200 c 0
 480 202 483 202 487 202 c 0
 491 202 495 197 497 191 c 0
 499 181 526 167 543 167 c 0
578 233 m 0
 578 237 582 246 578 246 c 0
 574 246 562 234 558 238 c 0
 554 242 566 251 568 256 c 0
 570 261 583 265 596 265 c 0
 608 265 619 262 619 254 c 0
 619 238 596 251 596 242 c 0
 596 239 603 236 612 236 c 0
 632 236 630 227 645 227 c 0
 650 227 654 223 654 219 c 0
 654 211 634 218 627 209 c 0
 612 189 626 229 617 229 c 0
 613 229 606 216 606 214 c 0
 606 210 602 207 598 207 c 0
 594 207 591 210 591 214 c 0
 591 224 578 223 578 233 c 0
688 291 m 0
 695 291 712 270 718 270 c 0
 723 270 731 257 736 257 c 0
 738 257 787 292 770 267 c 0
 768 265 767 263 767 261 c 0
 767 256 772 253 772 248 c 0
 772 242 760 235 760 227 c 0
 760 221 757 219 744 219 c 0
 735 219 727 220 727 222 c 0
 727 228 736 231 736 239 c 0
 736 243 734 246 730 246 c 0
 720 246 721 266 705 266 c 0
 694 266 684 275 684 286 c 0
 684 289 685 291 688 291 c 0
241 266 m 0
 241 262 247 259 247 255 c 0
 247 249 218 268 218 271 c 0
 218 277 232 279 232 287 c 0
 232 290 229 294 225 296 c 0
 220 298 218 305 218 317 c 0
 218 327 228 362 235 346 c 0
 237 341 242 338 247 338 c 0
 253 338 256 342 256 347 c 0
 256 351 262 365 267 365 c 0
 271 365 279 354 284 350 c 0
 289 346 290 344 286 346 c 0
 277 350 259 343 273 332 c 0
 280 327 283 318 283 302 c 0
 283 290 283 280 281 280 c 0
 276 280 266 309 258 309 c 0
 254 309 252 311 252 313 c 0
 252 316 267 331 253 331 c 0
 244 331 227 316 227 311 c 0
 227 300 248 299 248 290 c 0
 248 284 241 272 241 266 c 0
380 384 m 0
 380 387 384 392 378 392 c 0
 375 392 367 386 361 380 c 0
 351 370 344 340 344 315 c 0
 344 305 346 299 356 299 c 0
 390 299 409 335 409 371 c 0
 409 374 408 375 406 375 c 0
 404 375 400 374 397 374 c 0
 390 374 380 378 380 384 c 0
322 238 m 0
 318 238 317 245 317 248 c 0
 317 255 292 256 289 266 c 0
 287 274 288 274 294 274 c 0
 299 274 300 282 302 312 c 0
 305 381 321 436 387 440 c 0
 412 440 437 432 450 418 c 0
 456 411 466 406 471 406 c 0
 485 406 528 393 528 380 c 0
 528 372 519 353 510 353 c 0
 504 353 499 355 492 349 c 0
 481 339 471 352 459 352 c 0
 449 352 446 342 442 326 c 0
 437 308 404 261 383 261 c 0
 377 261 370 254 370 249 c 0
 370 243 382 241 382 237 c 0
 382 235 377 234 370 234 c 0
 351 232 365 251 362 251 c 0
 360 251 331 238 322 238 c 0
732 448 m 0
 732 442 744 416 736 416 c 0
 734 416 731 420 730 426 c 0
 729 434 726 438 717 438 c 0
 710 438 704 441 704 445 c 0
 704 457 706 459 720 459 c 0
 729 459 732 457 732 448 c 0
271 449 m 0
 271 446 259 435 259 431 c 0
 259 425 276 428 276 420 c 0
 276 418 273 415 270 415 c 0
 269 415 267 415 266 415 c 0
 262 415 258 416 254 416 c 0
 241 416 242 401 230 412 c 0
 226 417 219 420 217 420 c 0
 215 420 213 425 213 431 c 0
 213 445 227 433 227 440 c 0
 227 443 235 445 245 445 c 0
 257 445 262 447 260 451 c 0
 257 460 237 450 237 462 c 0
 237 474 222 462 226 472 c 0
 228 475 229 479 231 479 c 0
 235 479 271 453 271 449 c 0
332 455 m 0
 332 461 326 466 326 471 c 0
 326 480 334 489 342 493 c 0
 350 497 351 508 352 508 c 0
 360 508 368 497 368 488 c 0
 368 484 367 482 364 482 c 0
 359 482 352 486 346 486 c 0
 342 486 339 483 339 474 c 0
 339 470 346 456 353 456 c 0
 355 456 356 457 358 459 c 0
 362 468 371 458 378 462 c 0
 387 468 365 479 382 479 c 0
 390 479 391 476 391 466 c 0
 390 454 387 453 368 451 c 0
 355 450 313 432 317 420 c 0
 320 416 300 401 300 413 c 0
 300 423 308 415 312 423 c 0
 314 427 312 430 310 430 c 0
 307 430 305 434 305 438 c 0
 305 452 319 432 321 436 c 0
 323 439 332 447 332 455 c 0
152 527 m 0
 169 527 166 506 179 502 c 0
 184 500 188 496 188 492 c 0
 188 485 180 500 174 496 c 0
 166 491 184 475 175 475 c 0
 169 475 160 490 160 492 c 0
 160 497 143 502 147 507 c 0
 151 513 140 517 140 523 c 0
 140 525 146 527 152 527 c 0
395 502 m 0
 395 513 413 513 427 513 c 0
 441 513 452 512 449 520 c 0
 445 529 455 536 460 527 c 0
 463 523 465 524 467 532 c 0
 473 555 498 508 498 533 c 0
 498 542 489 547 489 555 c 0
 489 558 490 561 492 561 c 0
 498 561 512 539 513 534 c 0
 513 531 510 527 506 525 c 0
 497 522 502 507 502 496 c 0
 502 495 502 494 501 494 c 0
 500 494 497 497 492 504 c 0
 486 511 477 518 471 518 c 0
 465 518 460 514 460 510 c 0
 460 506 458 503 456 503 c 0
 453 503 452 493 452 486 c 0
 452 475 449 465 440 465 c 0
 429 465 423 480 418 462 c 0
 416 455 413 450 411 450 c 0
 409 450 405 454 402 459 c 0
 393 477 433 473 430 485 c 0
 429 488 425 491 423 491 c 0
 415 491 412 495 402 495 c 0
 398 495 395 498 395 502 c 0
238 552 m 0
 238 556 243 561 245 561 c 0
 250 561 267 541 275 541 c 0
 279 541 276 539 268 537 c 0
 258 535 253 531 253 525 c 0
 253 516 273 511 273 503 c 0
 273 500 269 497 263 497 c 0
 254 497 247 500 247 491 c 0
 247 486 243 484 235 484 c 0
 228 484 222 486 222 490 c 0
 222 505 251 492 235 515 c 0
 227 528 227 529 237 536 c 0
 242 539 244 541 244 543 c 0
 244 546 238 547 238 552 c 0
440 557 m 0
 448 557 460 556 460 546 c 0
 460 538 425 537 421 543 c 0
 418 548 416 547 416 543 c 0
 416 540 415 537 413 537 c 0
 408 537 394 556 394 564 c 0
 394 574 411 561 416 564 c 0
 417 565 419 565 420 565 c 0
 426 565 433 557 440 557 c 0
383 589 m 0
 374 589 373 580 362 580 c 0
 356 580 353 584 353 590 c 0
 353 595 356 600 360 600 c 0
 370 600 370 623 379 606 c 0
 382 599 389 595 396 595 c 0
 408 595 407 588 397 588 c 0
 393 588 387 589 383 589 c 0
65 579 m 0
 65 589 48 590 48 600 c 0
 48 612 51 616 62 608 c 0
 68 605 76 589 76 575 c 0
 76 571 75 567 74 564 c 0
 69 550 92 567 92 558 c 0
 92 556 89 551 87 549 c 0
 78 540 85 500 69 499 c 0
 63 498 58 499 58 502 c 0
 58 507 79 511 62 512 c 0
 51 512 48 515 48 525 c 0
 48 532 51 538 55 540 c 0
 58 541 59 543 59 545 c 0
 59 550 55 556 55 561 c 0
 55 567 65 571 65 579 c 0
140 619 m 0
 142 619 145 617 145 614 c 0
 145 612 155 610 167 610 c 0
 187 610 188 609 188 597 c 0
 188 581 179 588 179 598 c 0
 179 609 162 603 164 594 c 0
 165 587 174 571 162 571 c 0
 158 571 132 580 146 580 c 0
 162 580 136 610 135 610 c 0
 128 610 136 619 140 619 c 0
134 694 m 0
 134 698 131 711 131 715 c 0
 131 721 135 721 146 721 c 0
 162 721 162 722 150 712 c 0
 140 704 139 701 145 697 c 0
 150 694 150 692 146 692 c 0
 143 692 140 687 140 680 c 0
 140 673 137 668 133 668 c 0
 127 668 111 672 111 678 c 0
 111 684 134 684 134 694 c 0
259 786 m 0
 275 794 300 782 300 765 c 0
 300 763 276 728 276 742 c 0
 276 760 257 750 251 738 c 0
 247 731 244 727 243 727 c 0
 242 727 242 732 242 740 c 0
 242 748 245 755 247 755 c 0
 250 755 252 758 252 762 c 0
 252 766 254 770 257 770 c 0
 264 770 257 782 259 786 c 0
766 766 m 0
 766 759 782 736 766 736 c 0
 757 736 752 763 758 772 c 0
 762 777 766 783 766 785 c 0
 766 787 764 787 762 787 c 0
 758 787 751 785 746 785 c 0
 743 785 741 786 741 788 c 0
 741 795 757 797 763 798 c 0
 767 798 776 789 776 782 c 0
 776 776 766 775 766 766 c 0
247 780 m 0
 247 777 241 773 236 773 c 0
 227 773 208 780 208 785 c 0
 208 790 224 792 220 799 c 0
 219 801 218 802 218 804 c 0
 218 811 229 813 238 813 c 0
 255 813 252 801 244 801 c 0
 238 801 227 794 227 788 c 0
 227 786 232 784 237 784 c 0
 242 784 247 782 247 780 c 0
EndSplineSet
Substitution2: "ss01" o.ss01
EndChar

StartChar: p
Encoding: 112 112 59
Width: 1195
VWidth: 1095
Flags: HW
LayerCount: 2
Fore
SplineSet
634 -379 m 0
 633.728813559 -379.016949153 633.453318012 -379.025280092 633.173674037 -379.025280092 c 0
 616.95432347 -379.025280092 586.779661017 -351 574 -351 c 0
 569 -351 564 -353 564 -357 c 0
 564 -361 560 -366 553 -368 c 0
 534 -375 553 -360 553 -354 c 0
 553 -344 525 -347 525 -338 c 0
 525 -330 539 -325 526 -319 c 0
 520 -316 521 -315 530 -315 c 0
 537 -314 542 -310 542 -305 c 0
 542 -301 547 -303 551 -311 c 0
 555 -319 564 -333 574 -333 c 0
 584 -333 587 -327 599 -339 c 0
 606 -346 619 -357 629 -365 c 0
 646 -378 647 -379 634 -379 c 0
154 -304 m 0
 150 -304 143 -299 143 -306 c 0
 143 -310 147 -314 154 -314 c 0
 163 -314 165 -319 163 -332 c 0
 160 -345 164 -351 175 -356 c 0
 190 -364 190 -365 174 -365 c 0
 165 -366 156 -368 154 -372 c 0
 152 -376 146 -380 142 -380 c 0
 138 -380 135 -368 135 -354 c 0
 135 -338 131 -326 123 -322 c 0
 110 -315 110 -315 123 -314 c 0
 130 -314 135 -311 135 -307 c 0
 135 -299 159 -271 166 -271 c 0
 169 -270 175 -274 175 -279 c 0
 175 -287 163 -304 154 -304 c 0
210 -254 m 0
 210 -243 223 -241 239 -243 c 0
 254 -244 279 -260 279 -275 c 0
 279 -276 277 -277 274 -277 c 0
 256 -277 210 -269 210 -254 c 0
592 -260 m 0
 582 -248 602 -228 613 -228 c 0
 623 -228 633 -234 635 -246 c 0
 637 -259 635 -263 625 -263 c 0
 603 -263 635 -252 628 -245 c 0
 618 -235 608 -252 608 -260 c 0
 608 -266 605 -270 601 -270 c 0
 597 -270 593 -275 593 -281 c 0
 593 -291 617 -299 611 -307 c 0
 610.255537341 -308.276221702 609.103889223 -308.851179559 607.640085866 -308.851179559 c 0
 595.340104878 -308.851179559 561 -268.255537341 561 -262 c 0
 561 -251 579 -253 586 -258 c 0
 592 -262 595 -264 592 -260 c 0
889 -216 m 0
 889 -224 885 -231 885 -239 c 0
 885 -248 892 -250 900 -250 c 0
 903 -250 907 -250 911 -249 c 0
 925 -247 909 -270 919 -270 c 0
 930 -270 932 -256 943 -256 c 0
 947 -256 950 -263 950 -273 c 0
 950 -292 972 -313 988 -315 c 0
 995 -315 995 -316 988 -318 c 0
 968 -328 958 -299 938 -321 c 0
 931 -329 923 -336 919 -336 c 0
 915 -336 943 -304 943 -302 c 0
 943 -293 934 -284 923 -284 c 0
 910 -284 899 -298 899 -309 c 0
 899 -314.436261741 895.815656564 -316.520583022 890.952267465 -316.520583022 c 0
 875.239393938 -316.520583022 842 -294.763640794 842 -294 c 0
 841 -289 846 -285 854 -285 c 0
 869 -285 888 -260 875 -243 c 0
 873 -240 865 -215 865 -198 c 0
 865 -190 866 -183 872 -183 c 0
 882 -183 889 -200 889 -216 c 0
166 -221 m 0
 166 -211 174 -191 182 -191 c 0
 188 -191 194 -198 196 -207 c 0
 198 -223 199 -223 205 -209 c 0
 214 -188 239 -171 230 -211 c 0
 226 -225 223 -229 209 -229 c 0
 190 -229 166 -229 166 -221 c 0
55 -264 m 0
 55 -251 68 -188 81 -188 c 0
 98 -188 97 -193 87 -213 c 0
 77 -233 78 -235 88 -246 c 0
 105 -263 82 -270 68 -270 c 0
 61 -270 55 -268 55 -264 c 0
806 -147 m 0
 817 -148 861 -169 851 -183 c 0
 849 -187 840 -191 831 -191 c 0
 818 -191 817 -191 826 -198 c 0
 836 -205 836 -206 826 -203 c 0
 810 -199 813 -174 800 -167 c 0
 794 -164 790 -158 790 -154 c 0
 790 -150 796 -147 806 -147 c 0
48 -145 m 0
 48 -125 54 -108 71 -108 c 0
 81 -108 86 -118 97 -118 c 0
 111 -118 131 -133 117 -151 c 0
 107 -164 106 -165 102 -149 c 0
 98 -138 92 -132 78 -133 c 0
 68 -133 63 -135 68 -137 c 0
 72 -138 77 -149 77 -159 c 0
 77 -191 61 -156 53 -167 c 0
 50 -169 48 -159 48 -145 c 0
160 -125 m 0
 153 -125 85 -94 85 -87 c 0
 85 -83 92 -81 102 -81 c 0
 112 -81 123 -75 130 -65 c 0
 141 -50 142 -49 143 -63 c 0
 143 -66 144 -69 144 -72 c 0
 144 -77 143 -81 143 -85 c 0
 143 -89 144 -92 146 -92 c 0
 148 -92 152 -89 159 -80 c 0
 168 -69 181 -60 188 -60 c 0
 195 -60 200 -57 200 -53 c 0
 200 -49 188 -45 172 -45 c 0
 151 -45 143 -42 143 -34 c 0
 143 -28 147 -23 153 -23 c 0
 159 -23 166 -28 169 -32 c 0
 172 -36 184 -37 198 -34 c 0
 221 -30 223 -31 223 -47 c 0
 223 -72 208 -80 186 -83 c 0
 172 -84 167 -91 166 -105 c 0
 165 -116 162 -125 160 -125 c 0
1095 -30 m 0
 1095 -21 1021 -23 1021 -20 c 0
 1021 -5 1081 -22 1081 -2 c 0
 1081 11 1086 21 1096 21 c 0
 1100 21 1100 11 1098 -2 c 0
 1094 -22 1095 -23 1110 -23 c 0
 1139 -23 1141 -33 1144 -65 c 0
 1145 -83 1143 -96 1139 -96 c 0
 1135 -96 1132 -101 1132 -108 c 0
 1132 -114 1135 -116 1139 -114 c 0
 1143 -111 1146 -122 1146 -139 c 0
 1146 -164 1143 -169 1132 -169 c 0
 1113 -169 1114 -154 1098 -154 c 0
 1092 -154 1088 -161 1088 -170 c 0
 1088 -181 1085 -183 1076 -180 c 0
 1069 -178 1054 -176 1040 -176 c 0
 1026 -176 1015 -173 1015 -169 c 0
 1015 -165 1026 -161 1040 -161 c 0
 1058 -161 1067 -157 1076 -143 c 0
 1083 -133 1093 -125 1099 -125 c 0
 1108 -125 1110 -120 1106 -106 c 0
 1102 -93 1106 -81 1113 -70 c 0
 1124 -53 1125 -38 1105 -38 c 0
 1099 -38 1095 -34 1095 -30 c 0
931 91 m 0
 933 91 934 91 936 91 c 0
 965 91 989 88 991 60 c 0
 992 40 991 41 983 52 c 0
 978 59 971 64 968 64 c 0
 964 64 965 62 967 60 c 0
 971 55 955 28 965 28 c 0
 976 28 954 6 958 4 c 0
 958 4 997 -15 997 -19 c 0
 997 -21 993 -22 988 -22 c 0
 972 -22 952 -4 947 -22 c 0
 946 -29 942 -41 938 -49 c 0
 933 -63 933 -63 947 -50 c 0
 955 -43 966 -38 970 -38 c 0
 975 -38 979 -42 979 -48 c 0
 979 -54 985 -60 995 -61 c 0
 1008 -62 1012 -68 1013 -91 c 0
 1014 -105 1019 -116 1023 -114 c 0
 1027 -111 1030 -112 1030 -116 c 0
 1030 -120 1022 -123 1012 -123 c 0
 999 -123 992 -119 989 -106 c 0
 985 -91 996 -74 983 -74 c 0
 967 -74 972 -49 956 -68 c 0
 950 -75 937 -83 924 -85 c 0
 913 -88 906 -88 910 -84 c 0
 914 -81 918 -65 919 -49 c 0
 920 -32 918 -24 914 -30 c 0
 909 -38 904 -38 885 -30 c 0
 874 -25 869 -23 869 -21 c 0
 869 -19 877 -18 896 -16 c 0
 929 -12 931 -11 932 9 c 0
 933 25 937 64 950 64 c 0
 954 64 957 68 957 74 c 0
 957 81 948 86 934 88 c 0
 910 91 909 91 931 91 c 0
1118 115 m 0
 1129 115 1116 86 1124 86 c 0
 1129 86 1137 104 1141 100 c 0
 1146 95 1147 59 1147 31 c 0
 1147 18 1147 6 1147 1 c 0
 1147 -12 1143 -23 1139 -23 c 0
 1135 -23 1132 -19 1132 -13 c 0
 1132 -7 1121 6 1110 19 c 0
 1094 35 1090 47 1090 66 c 0
 1090 86 1094 97 1101 94 c 0
 1113 90 1107 102 1109 110 c 0
 1109 113 1114 115 1118 115 c 0
220 89 m 0
 220 94 186 123 186 126 c 0
 186 128 195 129 205 129 c 0
 215 129 226 123 231 115 c 0
 236 107 245 100 251 100 c 0
 274 100 223 86 257 86 c 0
 266 86 274 82 274 78 c 0
 274 74 266 71 256 71 c 0
 245 71 239 68 240 60 c 0
 240 45 223 36 223 57 c 0
 223 71 220 71 197 67 c 0
 182 64 172 66 172 70 c 0
 172 78 220 84 220 89 c 0
249 186 m 0
 249 194 243 210 251 210 c 0
 255 210 259 206 259 202 c 0
 259 198 264 195 270 195 c 0
 276 195 281 191 281 187 c 0
 281 177 259 174 259 165 c 0
 259 161 264 159 271 159 c 0
 280 159 281 156 275 149 c 0
 271 145 262 143 247 143 c 0
 232 143 203 146 188 146 c 0
 167 146 157 132 157 150 c 0
 157 163 162 166 179 166 c 0
 192 166 200 163 200 159 c 0
 200 155 204 151 208 151 c 0
 212 151 215 158 216 168 c 0
 216 184 216 184 224 168 c 0
 228 158 234 151 237 151 c 0
 244 151 249 171 249 186 c 0
1127 160 m 0
 1122 160 1120 169 1109 169 c 0
 1102 169 1093 168 1086 168 c 0
 1079 168 1073 168 1073 172 c 0
 1073 183 1108 194 1108 206 c 0
 1108 215 1125 241 1138 241 c 0
 1144 241 1143 233 1138 227 c 0
 1130 217 1134 197 1134 180 c 0
 1134 169 1132 160 1127 160 c 0
63 182 m 0
 54 182 49 194 49 202 c 0
 49 221 71 215 58 238 c 0
 53 246 48 263 48 276 c 0
 48 296 49 298 59 289 c 0
 78 273 47 279 66 265 c 0
 73 261 79 246 79 235 c 0
 79 233 79 231 79 229 c 0
 79 212 74 182 63 182 c 0
130 275 m 0
 154 275 142 325 167 325 c 0
 186 325 162 280 158 277 c 0
 150 271 148 269 155 268 c 0
 159 268 164 264 164 260 c 0
 164 256 160 253 154 253 c 0
 148 253 143 250 143 247 c 0
 143 243 134 236 124 232 c 0
 106 224 101 231 101 252 c 0
 101 268 114 275 130 275 c 0
620 333 m 0
 620 326 608 325 608 317 c 0
 608 313 612 312 619 312 c 0
 628 312 640 314 649 314 c 0
 658 314 665 312 665 306 c 0
 665 297 654 293 637 292 c 0
 635 292 635 292 633 292 c 0
 612 292 586 293 586 307 c 0
 586 313 591 323 598 330 c 0
 618 350 593 341 593 355 c 0
 593 359 595 362 599 362 c 0
 600 362 620 343 620 333 c 0
271 355 m 0
 283 355 284 379 293 379 c 0
 300 379 310 364 310 358 c 0
 310 345 276 338 276 325 c 0
 276 318 281 311 270 311 c 0
 264 311 259 316 259 321 c 0
 259 325 255 324 251 317 c 0
 247 310 238 304 233 304 c 0
 227 304 223 308 223 313 c 0
 223 318 231 334 241 348 c 0
 251 362 259 368 259 363 c 0
 259 358 264 355 271 355 c 0
204 362 m 0
 204 350 201 324 196 324 c 0
 192 324 186 331 176 335 c 0
 161 341 168 362 168 383 c 0
 168 391 167 396 163 396 c 0
 158 396 144 381 137 386 c 0
 127 399 156 409 169 409 c 0
 193 408 204 388 204 362 c 0
502 59 m 0
 523 59 557 80 557 97 c 0
 557 103 552 108 546 108 c 0
 540 108 535 103 535 96 c 0
 535 82 519 93 524 101 c 0
 527 105 522 108 514 108 c 0
 500 108 477 91 477 78 c 2
 477 66 l 2
 477 62 491 59 502 59 c 0
513 185 m 0
 529 185 574 176 591 176 c 0
 596 176 600 176 602 177 c 0
 606 180 607 179 605 175 c 0
 602 171 607 159 615 149 c 0
 623 138 626 126 626 113 c 0
 626 88 613 62 599 45 c 0
 588 32 579 19 581 15 c 0
 585 9 542 -2 542 -12 c 0
 542 -19 546 -22 552 -19 c 0
 558 -15 557 -18 550 -26 c 0
 540 -37 540 -37 527 -26 c 0
 512 -12 473 -14 459 -2 c 0
 457.95427844 -1.26184360489 456.935043853 -0.909640238193 455.942296238 -0.909640238193 c 0
 440.796226314 -0.909640238193 431.815460901 -82.8911125475 429 -127 c 0
 425 -201 422 -215 409 -228 c 0
 401 -235 389 -240 377 -240 c 0
 369 -240 361 -237 356 -232 c 0
 353 -229 355 -227 359 -227 c 0
 368 -227 362 -185 362 -167 c 0
 362 -87 383 91 387 139 c 0
 389 171 396 205 401 214 c 0
 411 228 411 230 392 234 c 0
 371 239 359 227 341 227 c 0
 329 227 317 231 317 238 c 0
 317 241 324 246 334 249 c 0
 344 251 355 261 359 271 c 0
 363 281 365 289 361 289 c 0
 352 289 349 273 335 280 c 0
 329 282 324 286 324 290 c 0
 324 294 333 297 343 297 c 0
 354 297 361 300 361 307 c 0
 361 312 355 321 348 325 c 0
 335 332 335 332 348 345 c 0
 355 353 361 363 361 369 c 0
 361 374 355 383 348 389 c 0
 335 399 335 400 348 396 c 0
 355 394 364 391 368 391 c 0
 372 391 375 384 375 375 c 0
 376 365 380 350 386 340 c 0
 396 323 396 323 392 351 c 0
 390 367 386 382 385 383 c 0
 380 388 406 406 392 411 c 0
 387 413 382 418 382 424 c 0
 382 430 386 435 390 435 c 0
 401 435 403 413 415 413 c 0
 428 413 445 380 460 393 c 0
 466 397 479 402 490 403 c 0
 504 404 507 404 499 399 c 0
 489 392 490 389 500 371 c 0
 511 352 507 325 487 331 c 0
 482 333 477 331 477 327 c 0
 477 317 440 311 432 307 c 0
 422 303 419 305 419 314 c 0
 419 321 423 325 427 325 c 0
 437 325 424 340 420 340 c 0
 415 340 401 316 401 302 c 0
 401 299 402 296 404 294 c 0
 411 287 402 268 411 268 c 0
 415 268 419 269 419 273 c 0
 419 277 446 302 455 302 c 0
 463 302 491 271 501 271 c 0
 511 271 535 284 535 289 c 0
 535 297 522 308 509 308 c 0
 506 308 504 307 502 306 c 0
 489 302 489 302 498 313 c 0
 505 321 514 324 527 321 c 0
 560 314 521 333 530 333 c 0
 534 333 524 357 524 362 c 0
 523 371 545 404 539 413 c 0
 537 417 537 420 540 420 c 0
 548 420 558 390 558 377 c 0
 558 362 548 345 559 337 c 0
 564 333 566 326 566 317 c 0
 566 286 551 268 523 268 c 0
 512 268 506 263 506 253 c 0
 506 245 511 238 517 238 c 0
 523 238 528 243 528 249 c 0
 528 255 533 260 539 260 c 0
 545 260 550 258 550 254 c 0
 550 242 535 240 535 225 c 0
 535 215 530 213 505 215 c 0
 454 218 506 210 484 196 c 0
 481 194 479 193 477 193 c 0
 462 193 454 226 454 242 c 0
 454 284 428 253 428 235 c 0
 428 211 448 207 448 186 c 0
 448 173 455 168 464 168 c 0
 481 168 495 185 513 185 c 0
1140 452 m 0
 1142 452 1144 400 1144 386 c 0
 1144 373 1144 365 1142 363 c 0
 1138 360 1127 376 1116 376 c 0
 1109 376 1102 380 1102 384 c 0
 1102 397 1134 401 1134 415 c 0
 1134 425 1124 440 1124 445 c 0
 1124 448 1139 441 1140 451 c 0
 1140 452 1140 452 1140 452 c 0
780 462 m 0
 783 449 784 450 793 461 c 0
 799 468 806 471 811 468 c 0
 825 458 798 448 812 438 c 0
 818 434 815 429 804 420 c 0
 788 407 786 407 772 421 c 0
 763 429 750 439 742 443 c 0
 729 449 731 449 748 447 c 0
 762 445 768 448 772 459 c 0
 776 473 777 473 780 462 c 0
96 515 m 0
 103 515 106 511 103 504 c 0
 100 496 105 493 120 493 c 0
 135 493 142 488 145 477 c 0
 148 468 149 460 148 459 c 0
 148 459 115 451 97 451 c 0
 90 451 85 453 85 456 c 0
 85 460 93 464 103 464 c 0
 113 464 120 467 117 471 c 0
 113.060577833 476.909133251 49.9547889265 474.088802557 49.9547889265 480.688781022 c 0
 49.9547889265 492.165530133 85 490.839219749 85 505 c 0
 85 511 89 515 96 515 c 0
577 545 m 0
 577 557 581 561 598 561 c 0
 607 561 612 558 612 553 c 0
 612 539 576 511 557 511 c 0
 552 511 550 514 550 520 c 0
 550 532 577 534 577 545 c 0
419 605 m 0
 419 594 406 588 406 572 c 0
 406 554 414 529 423 529 c 0
 429 529 433 525 433 519 c 0
 433 513 431 507 428 507 c 0
 421 507 389 525 389 537 c 0
 389 547 400 548 387 561 c 0
 380 568 375 576 375 581 c 0
 375 588 374 589 367 582 c 0
 362 577 353 573 348 573 c 0
 343 573 339 578 339 584 c 0
 339 591 332 594 319 595 c 0
 300 595 300 596 315 602 c 0
 324 606 335 616 340 625 c 0
 347 639 348 639 355 629 c 0
 359 622 368 616 375 616 c 0
 397 616 375 595 391 595 c 0
 397 595 405 598 410 603 c 0
 415 608 419 609 419 605 c 0
979 660 m 0
 983 660 986 656 986 651 c 0
 986 647 1011 610 1017 626 c 0
 1018 631 1022 625 1024 612 c 0
 1027 592 1024 588 1013 588 c 0
 996 588 983 635 972 641 c 0
 961 648 969 660 979 660 c 0
1090 713 m 0
 1098 713 1109 698 1109 713 c 0
 1109 720 1106 727 1102 729 c 0
 1091 736 1102 747 1110 747 c 0
 1119 747 1105 733 1127 733 c 0
 1141 733 1146 729 1146 718 c 0
 1146 710 1143 704 1139 704 c 0
 1135 704 1132 707 1132 712 c 0
 1132 718 1126 718 1126 713 c 0
 1126 704 1144 680 1144 671 c 0
 1144 664 1136 667 1133 672 c 0
 1130 676 1118 685 1110 685 c 0
 1106 685 1102 683 1102 675 c 0
 1102 667 1107 660 1113 660 c 0
 1119 660 1124 657 1124 653 c 0
 1124 650 1118 648 1111 648 c 0
 1100 648 1086 652 1086 661 c 0
 1086 668 1086 675 1081 675 c 0
 1068 675 1093 698 1060 693 c 0
 1056 693 1053 692 1050 692 c 0
 1038 692 1035 704 1035 724 c 0
 1035 734 1037 738 1040 738 c 0
 1049 738 1050 704 1061 704 c 0
 1069 704 1080 713 1090 713 c 0
1099 849 m 0
 1125 849 1146 835 1146 815 c 0
 1146 810 1141 809 1135 809 c 0
 1126 809 1115 812 1110 812 c 0
 1098 814 1114 856 1084 835 c 0
 1075 828 1073 828 1073 838 c 0
 1073 847 1079 849 1099 849 c 0
EndSplineSet
EndChar

StartChar: q
Encoding: 113 113 60
Width: 1379
VWidth: 1338
Flags: HW
LayerCount: 2
Fore
SplineSet
686 -238 m 0
 693 -238 715 -286 715 -300 c 0
 715 -315 702 -326 691 -311 c 0
 686 -303 676 -298 668 -298 c 0
 646 -298 652 -316 620 -304 c 0
 606 -300 595 -291 595 -284 c 0
 595 -277 603 -272 612 -272 c 0
 621 -272 628 -277 628 -284 c 0
 628 -291 634 -298 638 -298 c 0
 643 -298 646 -294 646 -290 c 0
 646 -277 628 -276 628 -263 c 0
 628 -259 638 -255 649 -255 c 0
 661 -255 672 -251 675 -247 c 0
 678 -242 682 -238 686 -238 c 0
494 -245 m 0
 494 -269 570 -270 570 -294 c 0
 570 -305 610 -323 610 -334 c 0
 610 -344.762831393 572.176464938 -351.792879376 572.176464938 -339.89399036 c 0
 572.176464938 -322.20470317 538.287056676 -289 521 -289 c 0
 498 -289 513 -306 503 -306 c 0
 498 -306 494 -302 494 -298 c 0
 494 -289 462 -305 456 -298 c 0
 453 -294 455 -289 459 -286 c 0
 463 -283 466 -272 463 -263 c 0
 457 -245 468 -228 486 -228 c 0
 501 -228 519 -236 519 -246 c 0
 519 -257 508 -257 502 -247 c 0
 496 -238 494 -237 494 -245 c 0
274 -221 m 0
 296 -221 325 -223 325 -243 c 0
 325 -250 330 -255 334 -255 c 0
 339 -255 347 -246 352 -234 c 0
 361 -214 363 -215 370 -228 c 0
 374 -236 384 -247 392 -254 c 0
 404 -264 404 -265 388 -261 c 0
 377 -257 366 -259 360 -267 c 0
 342 -288 386 -280 368 -301 c 0
 359 -311 366 -339 366 -355 c 0
 366 -365 359 -365 335 -365 c 0
 315 -365 299 -369 298 -375 c 0
 295 -383 290 -381 279 -370 c 0
 264 -355 264 -354 279 -343 c 0
 294 -332 294 -332 279 -315 c 0
 267 -302 267 -297 276 -296 c 0
 284 -296 284 -295 277 -292 c 0
 273 -290 232 -304 232 -298 c 0
 232 -294 237 -287 241 -284 c 0
 246 -281 249 -266 249 -250 c 0
 249 -224 252 -221 274 -221 c 0
79 -296 m 0
 64 -296 48 -280 48 -263 c 0
 48 -259 49 -255 51 -250 c 0
 61 -223 51 -199 69 -179 c 0
 77 -171 87 -163 92 -163 c 0
 96 -163 97 -172 94 -183 c 0
 90 -196 93 -204 101 -207 c 0
 107 -210 114 -220 117 -230 c 0
 121 -244 119 -246 110 -238 c 0
 105 -234 100 -232 96 -232 c 0
 90 -232 86 -236 86 -242 c 0
 86 -251 96 -262 96 -273 c 0
 96 -285 90 -296 79 -296 c 0
1182 -158 m 0
 1183 -163 1190 -188 1190 -199 c 0
 1190 -202 1190 -205 1188 -205 c 0
 1177 -205 1171 -191 1162 -191 c 0
 1158 -191 1154 -193 1149 -200 c 0
 1130 -224 1124 -193 1133 -189 c 0
 1139 -188 1143 -182 1143 -175 c 0
 1143 -168 1146 -163 1151 -163 c 0
 1165 -163 1138 -133 1165 -139 c 0
 1173 -140 1182 -149 1182 -158 c 0
243 -135 m 0
 243 -110 251 -96 276 -98 c 0
 289 -99 300 -103 300 -107 c 0
 300 -110 303 -111 306 -111 c 0
 314 -111 327 -106 335 -106 c 0
 339 -106 341 -107 341 -110 c 0
 341 -119 325 -126 311 -127 c 0
 290 -128 267 -145 250 -145 c 0
 245 -145 243 -142 243 -135 c 0
489 -93 m 0
 489 -87 502 -85 502 -77 c 0
 502 -73 493 -70 481 -70 c 0
 468 -70 460 -65 460 -57 c 0
 460 -48 468 -45 486 -46 c 0
 521 -48 513 -73 539 -85 c 0
 554 -93 555 -94 543 -94 c 0
 534 -95 528 -102 528 -112 c 0
 528 -121 526 -129 523 -129 c 0
 522 -129 489 -104 489 -93 c 0
72 -61 m 0
 72 -75 87 -102 87 -118 c 0
 87 -133 69 -171 59 -168 c 0
 53.8787878788 -166.424242424 52.3269054178 -160.192837466 52.3269054178 -151.078693269 c 0
 52.3269054178 -137.056932966 56 -116.212121212 56 -95 c 0
 57 -67 61 -44 65 -44 c 0
 69 -44 72 -52 72 -61 c 0
1286 -2 m 0
 1306 -2 1313 -7 1313 -14 c 0
 1313 -31 1270 -61 1262 -61 c 0
 1249 -61 1268 -36 1250 -36 c 0
 1243 -36 1236 -43 1233 -51 c 0
 1224 -72 1209 -47 1214 -37 c 0
 1218 -32 1229 -28 1241 -28 c 0
 1254 -28 1261 -23 1261 -15 c 0
 1261 -7 1270 -2 1286 -2 c 0
261 39 m 0
 265 40 260 9 265 3 c 0
 270 -3 266 -12 253 -21 c 0
 244.652173913 -27.2608695652 238.482041588 -29.5746691871 233.459932605 -29.5746691871 c 0
 219.230623819 -29.5746691871 214.217391304 -11 195 -11 c 0
 187 -11 182 -6 182 -2 c 0
 182 3 190 6 201 6 c 0
 212 6 228 14 237 22 c 0
 245 31 257 39 261 39 c 0
514 48 m 0
 495 48 480 27 480 6 c 0
 480 -5 487 -11 503 -11 c 0
 511 -11 519 -14 519 -18 c 0
 519 -25 493 -41 487 -28 c 0
 486 -23 480 -19 473 -19 c 0
 458 -19 444 6 426 6 c 0
 418 6 405 14 397 23 c 0
 389 32 384 40 388 40 c 0
 388 40 435 12 435 22 c 0
 435 27 440 31 447 31 c 0
 455 31 465 42 469 54 c 0
 474.676056338 67.5352112676 481.495933347 71.3479468359 489.792574132 71.3479468359 c 0
 500.49791708 71.3479468359 513.661971831 65 530 65 c 0
 538 65 543 61 540 56 c 0
 537 52 526 48 514 48 c 0
367 145 m 0
 367 163 401 163 401 183 c 0
 401 201 406 225 423 225 c 0
 430 225 435 233 436 241 c 0
 437 250 438 247 442 234 c 0
 446 220 456 212 473 208 c 0
 498 203 498 203 474 194 c 0
 461 188 449 184 445 184 c 0
 441 185 434 185 429 184 c 0
 423 184 420 175 421 165 c 0
 422 150 418 145 401 145 c 0
 388 145 378 139 377 130 c 0
 374 119 366 116 339 116 c 0
 314 116 299 121 288 133 c 0
 278 144 261 150 240 150 c 0
 216.392097515 150 194.712683126 162.0530506 194.712683126 175.781546459 c 0
 194.712683126 181.82477151 198.913552412 188.192651389 209 194 c 0
 220 200 229 204 232 204 c 0
 235 205 256 208 279 212 c 0
 303 216 327 224 335 231 c 0
 341 237 351 241 359 241 c 0
 370 241 380 235 380 221 c 0
 380 208 373 203 346 202 c 0
 327 201 304 199 294 199 c 0
 292 199 290 199 289 199 c 0
 276 199 269 194 269 185 c 0
 269 167 290 158 310 158 c 0
 323 158 336 153 339 145 c 0
 343 138 348 133 355 133 c 0
 362 133 367 138 367 145 c 0
1283 138 m 0
 1268 138 1246 130 1219 130 c 0
 1213 130 1207 129 1203 129 c 0
 1181 129 1180 134 1174 163 c 0
 1169 187 1159 201 1142 211 c 0
 1125 220 1120 229 1124 238 c 0
 1127 246 1124 256 1117 260 c 0
 1108 266 1107 268 1118 268 c 0
 1134 268 1136 247 1152 247 c 0
 1156 247 1160 248 1164 248 c 0
 1186 248 1193 231 1188 203 c 0
 1185 186 1187 175 1192 175 c 0
 1202 175 1207 139 1219 145 c 0
 1232 154 1209 179 1233 173 c 0
 1248 170 1253 160 1261 160 c 0
 1282 160 1283 200 1307 175 c 0
 1315 167 1320 157 1320 153 c 0
 1320 139 1303 185 1303 157 c 0
 1303 149 1306 141 1310 141 c 0
 1314 141 1317 130 1318 117 c 0
 1319 101 1314 91 1306 87 c 0
 1271 71 1300 106 1300 119 c 0
 1300 130 1294 138 1283 138 c 0
217 265 m 0
 217 259 223 242 220 242 c 0
 214 242 190 227 190 245 c 0
 190 261 157 262 157 276 c 0
 157 282 163 284 173 280 c 0
 193 273 214 306 229 298 c 0
 235 295 242 297 246 302 c 0
 255 320 256 297 260 278 c 0
 264 258 263 251 255 251 c 0
 241 251 240 281 229 281 c 0
 223 281 217 274 217 265 c 0
932 192 m 0
 932 204 966 214 966 229 c 0
 966 236 962 242 958 242 c 0
 954 242 950 248 947 255 c 0
 943 262 951 279 964 293 c 0
 987 318 987 318 991 299 c 0
 995 287 1004 279 1015 278 c 0
 1025 277 1034 269 1034 262 c 0
 1034 255 1030 254 1025 254 c 0
 1020 254 1014 255 1009 255 c 0
 1003 255 997 253 997 244 c 0
 997 241 998 237 999 232 c 0
 999 228 995 225 988 225 c 0
 975 225 971 216 971 205 c 0
 971 197 986 154 974 154 c 0
 966 154 944 160 944 168 c 0
 944 173 968 183 948 183 c 0
 940 183 932 187 932 192 c 0
1279 251 m 0
 1293 251 1310 301 1319 301 c 0
 1323 301 1327 286 1327 266 c 0
 1327 246 1326 222 1323 214 c 0
 1319 197 1318 197 1306 214 c 0
 1287 240 1288 203 1270 212 c 0
 1260 219 1253 283 1244 290 c 0
 1240 293 1236 286 1236 277 c 0
 1236 267 1233 259 1228 259 c 0
 1224 259 1219 272 1219 285 c 0
 1219 302 1224 310 1232 310 c 0
 1239 310 1245 315 1245 321 c 0
 1246 326 1249 322 1250 312 c 0
 1251 301 1259 293 1266 293 c 0
 1272 293 1274 289 1274 283 c 0
 1274 276 1272 267 1272 260 c 0
 1272 255 1273 251 1279 251 c 0
1121 304 m 2
 1121 304 1104 385 1106 385 c 0
 1109 385 1114 376 1118 364 c 0
 1124 350 1127 345 1139 345 c 0
 1149 345 1194 353 1195 346 c 0
 1196 342 1198 311 1198 283 c 0
 1198 261 1196 242 1192 242 c 0
 1182 242 1177 268 1164 268 c 0
 1150 268 1147 293 1132 293 c 0
 1125 293 1121 298 1121 304 c 2
1265 419 m 0
 1284 419 1328 413 1328 393 c 0
 1328 382 1323 377 1311 377 c 0
 1287 377 1290 346 1273 340 c 0
 1266 337 1261 339 1261 343 c 0
 1261 359 1290 380 1268 397 c 0
 1260 403 1253 410 1253 414 c 0
 1253 417 1258 419 1265 419 c 0
136 425 m 0
 156 416 156 415 134 409 c 0
 112 402 97 417 97 395 c 0
 97 385 102 377 109 377 c 0
 122 377 128 370 128 361 c 0
 128 344 107 330 131 322 c 0
 156 314 129 276 116 276 c 0
 108 276 104 278 108 281 c 0
 111 285 109 296 103 309 c 0
 95 325 84 363 84 390 c 0
 84 410.999265776 102.917316169 428.084604068 122.311973375 428.084604068 c 0
 126.930588478 428.084604068 131.576273571 427.115695249 136 425 c 0
726 445 m 0
 733 445 738 442 738 437 c 0
 738 433 747 428 758 427 c 0
 776 427 775 426 759 419 c 0
 744 412 745 412 766 412 c 0
 779 411 789 407 789 402 c 0
 789 398 782 396 772 396 c 0
 746 396 699 406 698 406 c 0
 690 414 719 445 726 445 c 0
1135 432 m 0
 1135 445 1160 454 1177 454 c 0
 1185 454 1192 452 1192 447 c 0
 1192 444 1188 439 1181 433 c 0
 1166 422 1166 421 1188 425 c 0
 1206 429 1211 426 1211 415 c 0
 1211 405 1205 401 1195 404 c 0
 1184 408 1174 401 1163 385 c 0
 1155 372 1145 360 1142 360 c 0
 1126 360 1129 390 1140 398 c 0
 1161 413 1135 415 1135 432 c 0
972 498 m 0
 975 492 983 487 991 487 c 0
 1008 487 1014 505 1030 499 c 0
 1037 496 1039 489 1036 481 c 0
 1028 459 1051 483 1051 472 c 0
 1051 468 1043 461 1034 455 c 0
 1025 449 995 442 968 441 c 0
 942 440 928 439 936 442 c 0
 954 447 973 460 973 482 c 0
 973 486 969 508 972 498 c 0
1111 521 m 0
 1122 521 1143 512 1143 499 c 0
 1143 492 1140 487 1135 487 c 0
 1131 487 1126 479 1126 469 c 0
 1126 457 1122 452 1114 455 c 0
 1107 458 1099 452 1093 439 c 0
 1081 414 1069 424 1083 438 c 0
 1089 444 1093 458 1093 471 c 0
 1093 487 1097 496 1110 500 c 0
 1124 505 1126 507 1117 513 c 0
 1110 517 1107 521 1111 521 c 0
657 186 m 0
 652 198 651 232 638 232 c 0
 623 232 603 195 603 187 c 0
 603 169 575 174 598 154 c 0
 608 146 622 143 631 146 c 0
 642 149 722 197 722 210 c 0
 722 214 718 217 714 217 c 0
 706.512 217 677.565056 181.004352 663.442781184 181.004352 c 0
 660.591168 181.004352 658.344 182.472 657 186 c 0
830 369 m 0
 838 369 848 348 848 332 c 0
 848 316 844 293 838 260 c 0
 826 200 815 117 815 40 c 0
 815 -32 830 -107 841 -163 c 0
 844 -180 846 -192 846 -201 c 0
 846 -218.6 826.8 -240.04 826.8 -256.616 c 0
 826.8 -260.76 828 -264.6 831 -268 c 0
 839 -278 839 -280 828 -280 c 0
 820 -280 814 -276 814 -272 c 0
 814 -267 811 -263 807 -263 c 0
 803 -263 797 -271 796 -279 c 0
 795 -289 788 -283 775 -258 c 0
 761 -232 756 -208 756 -161 c 0
 756 -78 738 -29 738 56 c 0
 738 97 737 111 733 111 c 0
 721 111 713 76 713 65 c 0
 713 45 710 43 682 42 c 0
 651 39 647 28 628 41 c 0
 619 46 625 48 649 48 c 0
 668 48 680 51 677 54 c 0
 674 57 658 58 638 59 c 0
 582 59 643 74 598 74 c 0
 560 74 511 125 511 164 c 0
 511 213 528 228 565 269 c 0
 589 294 620 330 635 348 c 0
 649 366 663 375 663 369 c 0
 663 354 680 371 680 379 c 0
 680 383 676 385 671 385 c 0
 664 385 654 382 647 382 c 0
 642 382 639 383 639 387 c 0
 639 392 646 403 638 398 c 0
 637.424276205 397.616184137 636.738066448 397.436971908 635.954720849 397.436971908 c 0
 624.897033635 397.436971908 594.483984539 433.146937115 582.266258625 433.146937115 c 0
 581.819197149 433.146937115 581.396497705 433.099124426 581 433 c 0
 575 430 570 433 570 437 c 0
 570 442 564 445 557 445 c 0
 550 445 544 437 544 429 c 0
 544 416 550 413 570 413 c 0
 588 414 609 410 609 394 c 0
 609 364 573 310 554 310 c 0
 549 310 544 300 544 288 c 0
 544 270 542 268 528 272 c 0
 515 276 506 272 493 256 c 0
 484 244 471 234 466 234 c 0
 459 234 460 237 465 241 c 0
 478 249 475 266 476 288 c 0
 477 303 481 308 494 307 c 0
 503 306 511 303 511 299 c 0
 511 295 514 293 519 297 c 0
 534 306 507 327 536 327 c 0
 550 327 553 330 548 342 c 0
 536 369 554 400 523 411 c 0
 511 416 501 419 498 419 c 0
 497 419 494 413 494 406 c 0
 494 399 489 394 483 394 c 0
 460 394 462 418 435 394 c 0
 416 378 416 376 430 360 c 0
 438 352 444 339 441 331 c 0
 437 323 441 318 453 318 c 0
 462.894117647 318 466.153356401 322.656055363 466.153356401 329.585361286 c 0
 466.153356401 342.966089965 454 364.823529412 454 378 c 0
 454 392 466 393 472 381 c 0
 475 374 482 369 490 369 c 0
 497 369 502 366 502 365 c 0
 502 364 504 355 508 347 c 0
 512 337 511 335 504 339 c 0
 498 343 494 339 494 332 c 0
 494 325 485 318 473 315 c 0
 455 311 453 306 457 289 c 0
 461 276 459 268 453 268 c 0
 448 268 437 282 429 299 c 0
 421 317 407 333 399 334 c 0
 391 335 384 331 384 323 c 0
 384 315 379 310 372 310 c 0
 366 310 363 312 363 317 c 0
 363 327 374 345 374 354 c 0
 374 365 365 354 359 344 c 0
 354 334 344 327 337 327 c 0
 317 327 338 350 325 356 c 0
 321 359 319 362 319 364 c 0
 319 372 339 377 353 377 c 0
 376 378 418 398 418 418 c 0
 418 430 454 429 454 441 c 0
 454 446 453 453 459 453 c 0
 463 453 468 461 471 469 c 0
 475 493 514 483 517 511 c 0
 518 521 517 529 512 529 c 0
 507 529 502 534 502 542 c 0
 502 558 533 544 542 556 c 0
 547 564 550 560 551 546 c 0
 552 535 550 523 545 518 c 0
 540 513 536 506 536 502 c 0
 536 498 542 495 549 495 c 0
 559 495 560 492 560 486 c 0
 560 470 581 445 595 445 c 0
 605 445 612 451 612 459 c 0
 612 481 624 456 626 442 c 0
 627 432 634 420 638 416 c 0
 644 410 646 413 646 421 c 0
 646 434 656 450 671 441 c 0
 683 434 669 425 669 416 c 0
 669 399 706 385 722 385 c 0
 735 385 759 380 773 372 c 0
 784 367 790 364 795 364 c 0
 802 364 806 368 815 379 c 0
 844 411 817 369 830 369 c 0
677 614 m 0
 704 614 727 582 727 553 c 0
 727 542 720 537 701 537 c 0
 690 537 678 534 677 529 c 0
 676 524 660 528 640 538 c 0
 620 547 600 560 594 567 c 0
 589 574 580 579 574 579 c 0
 567 579 565 586 568 596 c 0
 572 608 579 614 597 614 c 0
 617 614 621 617 617 627 c 0
 613 636 616 638 627 637 c 0
 637 636 642 625 643 605 c 0
 644 589 643 580 640 586 c 0
 637 591 624 596 610 596 c 0
 583 595 582 596 606 583 c 0
 615 578 626 575 636 575 c 0
 651 575 663 582 663 598 c 0
 663 607 668 614 677 614 c 0
974 639 m 0
 981 639 986 632 986 627 c 0
 986 616 969 605 961 605 c 0
 954 605 949 600 949 593 c 0
 949 580 971 577 963 565 c 0
 959 559 943 554 927 554 c 0
 901 554 898 556 903 572 c 0
 907 583 951 639 974 639 c 0
1322 651 m 0
 1328 651 1331 596 1331 581 c 0
 1331 568 1330 523 1319 550 c 0
 1313 564 1312 564 1312 544 c 0
 1311 531 1316 521 1320 521 c 0
 1325 521 1328 517 1328 512 c 0
 1328 508 1327 504 1323 504 c 0
 1319 505 1312 505 1307 504 c 0
 1301 504 1294 498 1291 490 c 0
 1287 479 1290 477 1307 480 c 0
 1325 484 1328 481 1328 466 c 0
 1328 449 1323 447 1285 443 c 0
 1270 441 1257 440 1247 440 c 0
 1229 440 1219 444 1219 462 c 0
 1219 472 1225 479 1235 479 c 0
 1244 479 1253 473 1256 468 c 0
 1260 460 1261 460 1270 468 c 0
 1279 476 1279 479 1267 479 c 0
 1259 479 1253 483 1253 489 c 0
 1253 495 1244 510 1235 520 c 0
 1222 534 1220 541 1228 546 c 0
 1232 549 1233 550 1233 552 c 0
 1233 557 1220 560 1208 560 c 0
 1198 560 1177 554 1177 562 c 0
 1177 572 1191 576 1204 576 c 0
 1220 576 1229 563 1240 563 c 0
 1251 563 1257 576 1257 595 c 0
 1257 596 1257 599 1257 600 c 0
 1257 620 1260 630 1268 630 c 0
 1273.6 630 1277.92 586.48 1290.688 586.48 c 0
 1293.88 586.48 1297.6 589.2 1302 596 c 0
 1306 602 1307 607 1307 610 c 0
 1307 617 1301 619 1301 625 c 0
 1301 630 1317 651 1322 651 c 0
840 650 m 0
 842 650 847 648 850 648 c 0
 854 648 855 651 855 655 c 0
 855 663 851 674 851 682 c 0
 851 686 853 689 857 689 c 0
 862 689 869 680 873 670 c 0
 883 644 865 652 865 630 c 0
 865 622 860 613 852 610 c 0
 830 601 851 588 871 588 c 0
 891 587 892 587 880 579 c 0
 875 576 869 574 864 574 c 0
 845 574 831 595 831 614 c 0
 831 621 831 626 831 632 c 0
 831 642 832 650 840 650 c 0
766 686 m 0
 779 678 783 667 782 652 c 0
 781 640 783 630 787 630 c 0
 799 630 793 673 805 673 c 0
 819 673 821 655 813 636 c 0
 805 620 796 614 779 614 c 0
 766 614 754 609 750 604 c 0
 746 597 742 598 735 605 c 0
 721 619 772 643 756 651 c 0
 751 655 747 666 747 678 c 0
 747 698 747 699 766 686 c 0
680 639 m 0
 669 639 638 670 638 681 c 0
 638 695 590 699 617 718 c 0
 625 724 630 733 626 738 c 0
 622 744 624 748 632 748 c 0
 650 748 650 729 672 735 c 0
 685 739 688 736 688 719 c 0
 688 707 692 698 696 698 c 0
 700 698 704 703 707 709 c 0
 709 716 727 656 730 656 c 0
 734 656 729 646 719 635 c 0
 704 618 700 617 694 627 c 0
 690 634 684 639 680 639 c 0
1324 824 m 0
 1327 824 1329 809 1328 789 c 0
 1327 769 1322 750 1317 746 c 0
 1310 741 1311 738 1319 734 c 0
 1325 733 1329 716 1328 699 c 0
 1328 682 1326 673 1323 679 c 0
 1318 694 1299 670 1311 697 c 0
 1319 711 1318 714 1307 714 c 0
 1299 714 1295 722 1295 735 c 0
 1295 747 1299 756 1304 756 c 0
 1315 756 1309 812 1314 810 c 0
 1318 807 1320 811 1320 815 c 0
 1320 820 1321 824 1324 824 c 0
770 802 m 0
 799 802 809 799 809 784 c 0
 809 767 774 765 754 765 c 0
 740 765 730 769 730 776 c 0
 730 784 718 787 694 787 c 0
 690 787 687 787 684 787 c 0
 660 787 658 791 656 810 c 0
 655 823 656 833 661 833 c 0
 672 833 677 813 692 819 c 0
 698 820 706 818 707 812 c 0
 710 805 724 802 751 802 c 0
 757 802 764 802 770 802 c 0
EndSplineSet
EndChar

StartChar: r
Encoding: 114 114 61
Width: 771
VWidth: 1210
Flags: HW
LayerCount: 2
Fore
SplineSet
108 41 m 0
 127 42 131 29 131 10 c 0
 131 1 129 -7 122 -7 c 0
 114 -7 74 -3 70 2 c 0
 65 8 76 30 83 30 c 0
 88 30 95 25 103 25 c 0
 112 25 128 30 107 36 c 0
 92 41 92 41 108 41 c 0
81 65 m 0
 77 65 71 59 71 68 c 0
 71 77 87 96 95 96 c 0
 103 96 108 87 100 81 c 0
 88 74 120 64 108 52 c 0
 106 50 104 49 102 49 c 0
 94 49 88 65 81 65 c 0
108 199 m 0
 112 199 112 193 110 187 c 0
 108 178 110 176 122 176 c 0
 130 176 137 178 137 181 c 0
 137 184 134 187 130 187 c 0
 122 187 141 195 144 195 c 0
 156.330800259 195 164.907313233 165.434987634 164.907313233 146.811658695 c 0
 164.907313233 138.249410553 163.094422035 132 159 132 c 0
 146 132 137 146 125 149 c 0
 110 152 106 180 91 158 c 0
 82 146 80 144 70 154 c 0
 64 160 59 167 59 170 c 0
 59 173 66 173 76 171 c 0
 91 168 93 169 97 183 c 0
 99 192 104 199 108 199 c 0
148 276 m 0
 148 283 143 289 152 289 c 0
 161 289 164 286 164 281 c 0
 164 273 152 255 152 247 c 0
 152 242 155 238 162 230 c 0
 176 216 176 216 161 220 c 0
 152 223 140 228 140 237 c 0
 140 239 140 240 141 242 c 0
 145 248 125 253 125 259 c 0
 125 267 148 265 148 276 c 0
295 427 m 0
 295 419 287 409 281 409 c 0
 277 409 278 414 278 418 c 0
 278 427 247 425 247 434 c 0
 247 444 282 438 282 446 c 0
 282 449 278 452 273 452 c 0
 268 452 255 465 255 474 c 0
 255 484 265 477 272 471 c 0
 277 466 295 443 295 427 c 0
384 518 m 0
 384 539 408 560 432 560 c 0
 448 560 460 556 474 544 c 0
 484 536 490 532 494 532 c 0
 497 532 499 534 502 538 c 0
 508 545 514 548 521 548 c 0
 534 548 548 537 556 525 c 0
 564 512 568 508 577 508 c 0
 614 508 655 548 676 568 c 0
 686 577 697 584 701 584 c 0
 713 584 721 570 721 555 c 0
 721 552 720 548 720 545 c 0
 720 534 723 529 723 523 c 0
 723 516 712 497 705 502 c 0
 697 506 693 493 681 492 c 0
 674 492 667 487 667 483 c 0
 667 478 664 476 658 478 c 0
 646 482 645 452 631 452 c 0
 625 452 619 450 618 446 c 0
 616 440 578 449 569 449 c 0
 557 449 553 438 543 447 c 0
 540 449 538 450 535 450 c 0
 511 450 505 350 505 322 c 0
 505 314 506 305 506 300 c 0
 506 286 501 279 483 279 c 0
 465 279 446 297 446 318 c 0
 446 341 458 441 458 467 c 0
 458 482 453 497 445 499 c 0
 434 504 446 469 432 469 c 0
 421 469 384 510 384 518 c 0
71 608 m 0
 75 608 77 606 77 602 c 0
 77 588 125 616 108 594 c 0
 103 588 102 583 102 577 c 0
 102 574 103 571 103 568 c 0
 103 565 102 563 102 559 c 0
 102 553 97 548 91 548 c 0
 83 548 56 555 70 565 c 0
 91 578 32 570 64 581 c 0
 71 583 77 588 77 591 c 0
 77 594 75 596 71 596 c 0
 68 596 65 599 65 602 c 0
 65 606 68 608 71 608 c 0
508 647 m 0
 503 647 499 638 499 632 c 0
 499 626 497 620 493 620 c 0
 490 620 487 616 487 612 c 0
 487 602 462 586 462 578 c 0
 462 575 464 572 466 572 c 0
 473 572 485 588 494 588 c 0
 498 588 500 586 502 577 c 0
 503 567 496 564 486 564 c 0
 467 564 438 577 438 585 c 0
 438 587 470 626 468 626 c 0
 465 626 462 629 462 632 c 0
 462 636 466 638 471 638 c 0
 476 638 481 642 481 646 c 0
 481 650 484 657 490 663 c 0
 499 673 499 673 487 670 c 0
 480 668 474 663 474 659 c 0
 474 654 471 650 466 650 c 0
 453 650 448 639 456 629 c 0
 462 622 462 620 456 620 c 0
 450 620 420 600 420 589 c 0
 420 588 420 586 421 585 c 0
 429 577 414 571 414 579 c 0
 414 583 410 581 406 575 c 0
 401 569 388 562 388 572 c 0
 388 578 401 584 401 591 c 0
 401 602 388 602 378 596 c 0
 366 590 364 590 370 596 c 0
 373 599 375 604 375 607 c 0
 375 614 368 620 359 620 c 0
 353 620 348 623 348 626 c 0
 348 630 352 632 357 632 c 0
 363 632 393 609 396 614 c 0
 400 622 444 634 444 647 c 0
 444 654 437 661 430 661 c 0
 426 661 414 650 414 654 c 0
 414 677 441 665 455 675 c 0
 465 685 489 677 496 686 c 0
 498 690 501 693 505 693 c 0
 508 693 511 690 511 686 c 0
 511 678 539 650 547 650 c 0
 552 650 573 664 567 671 c 0
 563 675 583 684 587 678 c 0
 593 673 560 647 570 637 c 0
 574 633 577 626 577 620 c 0
 577 618 576 617 575 617 c 0
 570 617 559 634 553 634 c 0
 545 634 556 608 547 608 c 0
 543 608 541 611 541 614 c 0
 541 622 518 647 508 647 c 0
468 761 m 0
 468 748 453 736 453 725 c 0
 453 720 451 717 447 718 c 0
 438 720 449 741 436 741 c 0
 430 741 426 738 426 734 c 0
 426 730 422 729 417 731 c 0
 405 735 397 711 384 711 c 0
 378 711 372 712 372 713 c 0
 372 714 380 724 390 735 c 0
 400 746 408 760 408 767 c 0
 408 779 411 789 419 789 c 0
 420 789 421 787 421 785 c 0
 421 777 415 758 415 748 c 0
 415 745 415 743 417 743 c 0
 429 743 420 765 426 765 c 0
 435 765 433 747 444 761 c 0
 450 767 450 771 445 771 c 0
 441 771 438 773 438 777 c 0
 438 781 444 783 452 782 c 0
 462 780 468 771 468 761 c 0
95 803 m 0
 95 799 78 782 78 775 c 0
 78 765 96 744 87 735 c 0
 82 730 86 729 102 729 c 0
 116 729 126 725 128 719 c 0
 132 708 120 714 108 710 c 0
 96 706 94 701 96 685 c 0
 97 671 96 666 88 664 c 0
 77 662 82 668 82 678 c 0
 82 692 73 711 62 711 c 0
 56 711 53 717 53 729 c 0
 53 743 56 747 62 745 c 0
 76 737 77 752 65 760 c 0
 60 764 48 782 48 794 c 0
 48 799 49 802 54 804 c 0
 60 806 62 813 60 824 c 0
 57 839 57 839 67 829 c 0
 78 819 67 807 82 807 c 0
 89 807 95 805 95 803 c 0
EndSplineSet
Substitution2: "ss01" r.ss01
EndChar

StartChar: s
Encoding: 115 115 62
Width: 723
VWidth: 2764
Flags: HW
LayerCount: 2
Fore
SplineSet
48 134 m 0
 48 163 66 179 97 179 c 0
 118 179 161 161 194 141 c 0
 229 119 255 110 290 110 c 0
 383 110 507 146 524 216 c 0
 526.497190923 224.740168229 527.781833581 235.385769445 527.781833581 246.134443816 c 0
 527.781833581 261.211606645 525.254213616 276.491572768 520 287 c 0
 510 303 440 347 365 383 c 0
 289 419 208 465 187 486 c 0
 165 506 146 537 146 555 c 0
 146 573 158 607 176 633 c 0
 210 687 347 785 419 801 c 0
 452 809 485 815 515 815 c 0
 588 815 644 767 644 692 c 0
 644 654 643 642 607 642 c 0
 584 642 523 649 493 649 c 0
 448 649 421 641 385 620 c 0
 350 598 334 588 334 577 c 0
 334 552 391 516 407 516 c 0
 464 516 592 417 625 384 c 0
 656 350 675 292 675 234 c 0
 675 198 668 162 652 132 c 0
 634 100 589 51 550 24 c 0
 493 -16 470 -22 378 -22 c 0
 366 -22 354 -22 340 -22 c 0
 230 -20 186 -11 136 21 c 0
 94 46 48 84 48 134 c 0
EndSplineSet
Substitution2: "ss01" s.ss01
EndChar

StartChar: t
Encoding: 116 116 63
Width: 778
VWidth: 3765
Flags: HW
LayerCount: 2
Fore
SplineSet
398 1485 m 0
 454 1485 481 1455 481 1390 c 0
 481 1339 463 1210 434 1088 c 0
 407 979 389 876 389 829 c 0
 389 782 427 766 495 766 c 0
 558 766 607 749 607 719 c 0
 607 669 512 638 458 638 c 0
 420 638 367 619 346 596 c 0
 314 569 306 506 306 380 c 0
 306 229 315 195 363 149 c 0
 401 114 432 100 507 100 c 0
 541 100 604 104 640 104 c 0
 711 104 730 96 730 71 c 0
 730 50 701 21 665 2 c 0
 629 -17 538 -32 460 -32 c 0
 342 -32 302 -19 233 40 c 0
 153 107 151 117 147 323 c 0
 145 491 132 548 94 592 c 0
 69 619 48 656 48 666 c 0
 48 679 75 708 109 729 c 0
 161 763 184 819 222 993 c 0
 249 1117 284 1264 294 1321 c 0
 309 1404 324 1485 398 1485 c 0
EndSplineSet
Substitution2: "ss01" t.ss01
EndChar

StartChar: u
Encoding: 117 117 64
Width: 852
VWidth: 3095
Flags: HW
LayerCount: 2
Fore
SplineSet
714 174 m 0
 738.9375 174 759.28125 178.01953125 774.277587891 178.01953125 c 0
 793.55859375 178.01953125 804 171.375 804 141 c 0
 804 85 736 56 680 56 c 0
 658 56 611 76 577 102 c 0
 551 121 534 133 520 133 c 0
 500 133 482 111 439 61 c 0
 371 -21 360 -26 266 -26 c 0
 190 -26 150 -13 106 24 c 0
 50 73 48 80 48 279 c 0
 51 497 71 637 142 758 c 0
 164.707299668 795.004488348 186.707299668 812.911885651 205.025765644 812.911885651 c 0
 208.488779129 812.911885651 211.820221977 812.271911209 215 811 c 0
 232 803 245 774 245 743 c 0
 245 714 228 643 206 585 c 0
 176 506 147 400 147 298 c 0
 147 207 175 62 255 62 c 0
 264 62 274 64 286 68 c 0
 308 76 351 115 378 156 c 0
 448 268 505 458 546 602 c 0
 571 694 583 717 611 717 c 0
 653 717 666 705 666 651 c 0
 666 578 659 480 650 386 c 0
 645 347 641 311 641 281 c 0
 641 216 658 174 714 174 c 0
EndSplineSet
EndChar

StartChar: v
Encoding: 118 118 65
Width: 1099
VWidth: 3205
Flags: HW
LayerCount: 2
Fore
SplineSet
1018 713 m 0
 1040 713 1051 690 1051 670 c 0
 1051 652 1024 620 993 598 c 0
 961 578 875 549 799 536 c 0
 664 513 664 511 635 414 c 0
 577 234 503 -27 278 -27 c 0
 157 -27 113 63 77 160 c 0
 61 209 48 353 48 481 c 0
 48 620 57 736 75 774 c 0
 91.431812546 811.428017466 111.197013531 830.522398518 135.056347593 830.522398518 c 0
 137.333388439 830.522398518 139.647718819 830.348486101 142 830 c 0
 174 823 179 790 181 547 c 0
 183 349 190 248 217 189 c 0
 240 131 267 106 298 106 c 0
 321 106 365 128 388 155 c 0
 485 261 524 545 556 709 c 0
 563 729 584 745 606 745 c 0
 628 745 662 724 682 697 c 0
 699 670 707 657 734 657 c 0
 757 657 794 666 863 684 c 0
 928 701 991 713 1018 713 c 0
EndSplineSet
EndChar

StartChar: w
Encoding: 119 119 66
Width: 1172
VWidth: 2851
Flags: HW
LayerCount: 2
Fore
SplineSet
950 739 m 0
 1004 739 1124 712 1124 663 c 0
 1124 648 1094 620 1056 604 c 0
 1000 578 984 557 974 507 c 0
 954 415 905 124 860 60 c 0
 826 9 798 -5 731 -5 c 0
 646 -5 610 47 578 108 c 0
 567 130 560 143 549 143 c 0
 535 143 511 122 460 76 c 0
 406 28 341 -11 308 -17 c 0
 290 -21 271 -23 254 -23 c 0
 181 -23 117 10 87 55 c 0
 54 99 48 132 48 310 c 0
 48 424 59 574 74 642 c 0
 88 710 111 780 126 795 c 0
 141 809 154 815 165 815 c 0
 185 815 202 786 202 745 c 0
 202 711 192 644 178 585 c 0
 160 503 136 384 136 281 c 0
 136 236 141 194 153 159 c 0
 171 114 194 69 237 69 c 0
 255 69 277 76 310 91 c 0
 409 135 453 240 486 351 c 0
 502 402 520 478 526 520 c 0
 534 562 551 605 566 619 c 0
 580 629 603 636 618 628 c 0
 640 620 646 583 646 439 c 0
 646 301 655 239 682 181 c 0
 700 137 728 102 738 102 c 0
 748 102 769 130 784 163 c 0
 816 241 867 486 867 597 c 0
 867 683 884 739 950 739 c 0
EndSplineSet
EndChar

StartChar: x
Encoding: 120 120 67
Width: 1032
VWidth: 2861
Flags: HW
LayerCount: 2
Fore
SplineSet
63 -23 m 0
 54 -23 48 12 48 31 c 0
 48 58 92 123 170 205 c 0
 248 286 276 316 276 383 c 0
 276 422 265 473 250 554 c 0
 231 656 219 752 219 790 c 0
 219 815.838015129 236.060966215 826.840407462 260.599822489 826.840407462 c 0
 264.552538983 826.840407462 268.6992823 826.554931316 273 826 c 0
 300 823 317 805 326 766 c 0
 332 732 374 431 409 431 c 0
 426 431 511 476 600 538 c 0
 692 601 810 688 860 734 c 0
 912 780 942 802 960 802 c 0
 981 802 988 768 981 751 c 0
 975 736 906 669 825 605 c 0
 744 542 631 454 574 412 c 0
 511 364 471 320 471 298 c 0
 471 278 499 244 532 220 c 0
 580 186 603 179 725 179 c 0
 751 179 790 179 818 179 c 0
 926 179 968 173 968 158 c 0
 968 144 954 124 936 110 c 0
 916 92 854 85 738 85 c 0
 627 85 548 94 514 112 c 0
 484 126 433 164 400 196 c 0
 376 217 362 230 345 230 c 0
 318 230 288 196 206 109 c 0
 137 34 75 -23 63 -23 c 0
EndSplineSet
EndChar

StartChar: y
Encoding: 121 121 68
Width: 774
VWidth: 2715
Flags: HW
LayerCount: 2
Fore
SplineSet
224 654 m 0
 224 708 237 847 271 847 c 0
 289 847 296 801 302 745 c 0
 310 645 332 582 420 582 c 0
 510 582 579 694 615 772 c 0
 636 820 662 865 671 871 c 0
 680 877 699 875 711 863 c 0
 722 854 726 839 726 806 c 0
 726 786 724 759 721 724 c 0
 700 504 638 233 574 22 c 0
 531 -116 496 -201 465 -240 c 0
 407 -312 326 -380 218 -380 c 0
 187 -380 155 -374 120 -362 c 0
 81 -346 48 -324 48 -311 c 0
 48 -291 67 -279 88 -279 c 0
 99 -279 111 -282 120 -290 c 0
 134 -302 172 -311 207 -311 c 0
 301 -311 374 -241 412 -177 c 0
 474 -57 491 14 539 193 c 0
 552 244 599 443 599 528 c 0
 599 552 595 566 586 566 c 0
 577 566 550 551 528 534 c 0
 499 512 464 503 408 503 c 0
 338 503 323 509 274 561 c 0
 236 602 224 616 224 654 c 0
EndSplineSet
EndChar

StartChar: z
Encoding: 122 122 69
Width: 808
VWidth: 2540
Flags: HW
LayerCount: 2
Fore
SplineSet
434 666 m 0
 434 705 416 726 396 726 c 0
 372 726 339 704 305 680 c 0
 266 651 214 596 190 555 c 0
 168 514 143 460 137 435 c 0
 134 422 131 412 131 405 c 0
 131 387 147 387 209 387 c 0
 269 387 306 396 327 417 c 0
 355 447 434 596 434 666 c 0
61 409 m 0
 61 420 61 431 61 442 c 0
 61 506 71 535 109 594 c 0
 183 705 284 817 438 834 c 1
 487 834 534 758 534 702 c 0
 534 668 523 612 506 558 c 0
 490 504 479 457 479 444 c 0
 479 439 483 439 492 439 c 0
 526 439 655 460 693 460 c 0
 728 460 760 445 760 419 c 0
 760 388 695 365 662 361 c 0
 577 348 421 328 372 279 c 0
 334 244 282 178 282 116 c 0
 282 80 302 68 333 68 c 0
 355 68 382 73 412 79 c 0
 458 87 537 111 587 132 c 0
 629 149 658 159 676 159 c 0
 695.076365356 159 704.836693203 142.114682015 704.836693203 124.78278855 c 0
 704.836693203 119.400851129 703.895563086 113.975853101 702 109 c 0
 695 94 649 67 596 46 c 0
 521 15 390 -21 294 -21 c 0
 263 -21 243 -15 216 -1 c 0
 177 20 162 40 162 71 c 0
 162 93 177 143 195 181 c 0
 213 219 230 257 230 267 c 0
 230 279.5 203.046875 281.84375 173.5546875 281.84375 c 0
 155.859375 281.84375 137.25 281 123 281 c 0
 85 281 48 287 48 309 c 0
 48 313 49 316 51 321 c 0
 57 330 61 368 61 409 c 0
EndSplineSet
EndChar

StartChar: adieresis
Encoding: 228 228 70
Width: 683
VWidth: 2004
Flags: HW
LayerCount: 2
Fore
SplineSet
116 156 m 0
 116 126 160 52 192 52 c 0
 203 52 216 57 239 64 c 0
 318 87 385 146 385 244 c 0
 385 270 377 292 352 332 c 0
 325 379 304 403 278 403 c 0
 257 403 234 387 202 355 c 0
 152 305 116 235 116 156 c 0
182 -16 m 0
 82 -16 48 68 48 173 c 0
 48 318 155 428 258 471 c 0
 281 479 302 487 304 487 c 0
 306 488 326 479 348 468 c 0
 371 456 393 429 403 399 c 0
 411 373 422 352 428 352 c 0
 432 352 456 371 480 395 c 0
 504 419 517 429 528 429 c 0
 553 429 566 395 566 371 c 0
 566 323 534 261 514 229 c 0
 492 193 483 174 483 160 c 0
 483 127 525 115 570 110 c 0
 612 104 635 95 635 82 c 0
 635 62 589 39 561 39 c 0
 519 39 442 74 415 74 c 0
 392 74 369 64 332 37 c 0
 292 9 235 -16 182 -16 c 0
406 707 m 0
 406 735.800165016 416.357329927 759.421665069 443.486888941 759.421665069 c 0
 445.559118492 759.421665069 447.729202597 759.283849675 450 759 c 0
 472 757 479 742 486 700 c 0
 490 670 498 631 504 615 c 0
 507 607 509 599 509 594 c 0
 509 582 501 577 492 577 c 0
 442 577 406 651 406 707 c 0
301 597 m 0
 253 597 216 633 216 687 c 0
 216 730 270 819 284 840 c 0
 291 848 302 857 308 857 c 0
 317 857 325 844 325 832 c 0
 325 808 296 727 296 702 c 0
 296 677.7 332.45 650.97 332.45 626.184 c 0
 332.45 623.43 332 620.7 331 618 c 0
 325 607 312 597 301 597 c 0
EndSplineSet
EndChar

StartChar: odieresis
Encoding: 246 246 71
Width: 769
VWidth: 2132
Flags: HW
LayerCount: 2
Fore
SplineSet
325 287 m 0
 325 301 327 328 327 345 c 0
 327 389 314 412 277 412 c 1
 231 404 208 363 182 310 c 0
 165 279 137 193 137 132 c 0
 137 92 150 61 187 61 c 0
 198 61 213 65 232 71 c 0
 263 82 310 117 344 157 c 0
 376 195 403 235 403 246 c 0
 403 257.764705882 391.235294118 260.186851211 376.66171382 260.186851211 c 0
 366.460207612 260.186851211 354.882352941 259 345 259 c 0
 330 259 325 265 325 287 c 0
564 356 m 0
 601 356 638 374 680 374 c 0
 703 374 721 368 721 347 c 0
 721 328 700 311 648 292 c 0
 608 278 559 264 540 264 c 0
 516 264 498 248 480 216 c 0
 467 190 417 130 373 84 c 0
 294 5 263 -18 160 -18 c 0
 142 -18 109 -5 86 13 c 0
 55 38 48 57 48 113 c 0
 48 213 81 320 122 386 c 0
 158 448 202 481 287 486 c 0
 319 486 355 474 379 455 c 0
 401 438 423 429 444 429 c 0
 454 429 466 433 475 433 c 0
 494 433 505 423 521 394 c 0
 536 366 543 356 564 356 c 0
446 753 m 0
 446 686 434 684 331 684 c 0
 283 684 238 689 230 696 c 0
 219 704 211 721 211 733 c 0
 211 744 221 776 232 804 c 0
 246 840 264 856 283 856 c 0
 301 856 314 846 314 834 c 0
 314 822 323 811 331 811 c 0
 354 811 375 831 397 831 c 0
 431 831 446 790 446 753 c 0
EndSplineSet
EndChar

StartChar: udieresis
Encoding: 252 252 72
Width: 666
VWidth: 1981
Flags: HW
LayerCount: 2
Fore
SplineSet
131 133 m 0
 131 92 143 69 158 69 c 0
 172 69 193 82 222 101 c 0
 309 164 364 245 407 365 c 0
 428 422 451 477 462 485 c 0
 469 492 477 495 485 495 c 0
 505 495 523 474 523 451 c 0
 523 409 455 244 455 200 c 0
 455 149 478 124 528 124 c 0
 549.387096774 124 574.382934443 129.112382934 592.59783156 129.112382934 c 0
 607.598335068 129.112382934 618 125.64516129 618 113 c 0
 618 83 550 55 512 55 c 0
 474 55 437 70 410 91 c 0
 391 106 372 119 366 119 c 0
 360 119 336 101 313 79 c 0
 281 47 192 -16 139 -16 c 0
 126 -16 100 -3 82 16 c 0
 58 39 48 65 48 101 c 0
 48 193 103 353 137 421 c 0
 158 461 180 499 188 509 c 0
 193.657634856 515.836308784 199.315269712 518.671513548 204.658504769 518.671513548 c 0
 221.981568372 518.671513548 236 488.870895573 236 469 c 0
 236 407 210 350 177 276 c 0
 144 208 131 167 131 133 c 0
284 749 m 0
 284 793 301 865 333 865 c 0
 339 865 349 857 357 847 c 0
 365 839 375 810 377 785 c 0
 381 750 388 736 396 736 c 0
 405 736 416 754 428 786 c 0
 441 823 457 850 479 850 c 0
 492 850 496 835 496 780 c 0
 496 774 496 767 496 761 c 0
 496 709 493 661 460 661 c 0
 450 661 436 674 428 690 c 0
 413 715 411 715 389 696 c 0
 376 684 352 675 336 675 c 0
 299 675 284 709 284 749 c 0
EndSplineSet
EndChar

StartChar: germandbls
Encoding: 223 223 73
Width: 1182
VWidth: 2942
Flags: HW
LayerCount: 2
Fore
SplineSet
88 395 m 0
 67 395 48 420 48 428 c 0
 48 438 72 475 99 510 c 0
 129 544 179 585 214 603 c 0
 300 649 302 654 315 785 c 0
 333 923 391 1076 442 1177 c 1
 498 1278 630 1415 752 1449 c 0
 792 1461 838 1467 884 1467 c 0
 955 1467 1024 1453 1061 1424 c 0
 1080 1405 1094 1364 1094 1321 c 0
 1094 1281 1076 1216 1054 1174 c 0
 1032 1134 1016 1084 1016 1062 c 0
 1016 1043 1043 980 1075 929 c 0
 1109 878 1134 810 1134 776 c 0
 1134 741 1109 676 1077 625 c 0
 1043 577 978 505 930 465 c 0
 895 436 832 385 794 385 c 0
 781 385 763 394 763 415 c 0
 763 436 795 479 845 520 c 0
 895 560 954 622 976 657 c 0
 998 692 1016 748 1016 780 c 0
 1016 815 988 877 946 936 c 0
 909 989 877 1045 877 1059 c 0
 877 1073 901 1123 928 1171 c 0
 953 1217 972 1271 972 1298 c 0
 972 1346 957 1348 850 1348 c 0
 735 1346 733 1347 632 1238 c 0
 491 1091 441 929 430 657 c 0
 427 548 413 283 402 65 c 0
 388 -153 369 -343 358 -354 c 0
 348 -368 323 -380 304 -380 c 0
 267 -380 259 -362 259 -321 c 0
 259 -283 262 -218 267 -152 c 0
 275 -53 283 134 283 268 c 0
 283 285 283 302 283 317 c 0
 283 457 277 510 261 510 c 0
 247 510 208 482 174 448 c 0
 139 413 107 395 88 395 c 0
EndSplineSet
EndChar

StartChar: one
Encoding: 49 49 74
Width: 1366
VWidth: 3467
Flags: HW
LayerCount: 2
Fore
SplineSet
159 526 m 0
 173 526 185 524 199 524 c 0
 247 524 312 538 353 557 c 0
 399 580 502 652 580 721 c 0
 746 864 1021 1149 1141 1330 c 0
 1185 1395 1235 1443 1252 1443 c 0
 1267 1443 1297 1411 1311 1390 c 0
 1316 1382 1318 1369 1318 1350 c 0
 1318 1296 1298 1194 1256 1017 c 0
 1210 836 1164 615 1145 525 c 0
 1132 458 1125 366 1125 278 c 0
 1125 207 1136 100 1136 46 c 0
 1136 -3 1129 -22 1112 -29 c 0
 1107.91029764 -30.5579818516 1103.02413502 -31.2815767672 1097.57048232 -31.2815767672 c 0
 1075.02045735 -31.2815767672 1042.76807259 -18.9102976397 1017 -2 c 0
 979 23 968 39 968 107 c 0
 968 142 971 191 975 261 c 0
 985 383 1019 603 1055 752 c 0
 1082 873 1100 980 1100 1022 c 0
 1100 1033 1099 1041 1093 1041 c 0
 1074 1041 1004 973 923 886 c 0
 780 726 467 420 251 391 c 0
 203 384 167 378 140 378 c 0
 98 378 75 392 53 435 c 0
 49 446 48 455 48 464 c 0
 48 511 98 526 159 526 c 0
EndSplineSet
EndChar

StartChar: two
Encoding: 50 50 75
Width: 1477
VWidth: 3578
Flags: HW
LayerCount: 2
Fore
SplineSet
95 966 m 0
 76 966 52 1016 52 1085 c 0
 52 1241 200 1376 324 1436 c 0
 418 1482 492 1500 596 1500 c 0
 716 1500 750 1490 800 1438 c 0
 852 1386 862 1356 862 1220 c 0
 862 996 784 770 688 626 c 0
 646 556 552 434 478 348 c 0
 404 262 344 172 344 152 c 0
 344 128 374 118 450 118 c 0
 542 118 1246 160 1318 180 c 0
 1325 181 1332.75 181.5 1340.75 181.5 c 0
 1364.75 181.5 1391 177 1406 168 c 0
 1421.27322746 158.454232837 1428.80111291 151.642115796 1428.80111291 143.431974179 c 0
 1428.80111291 134.440477672 1419.77219582 123.772195823 1402 106 c 0
 1378 78 1296 64 1144 54 c 0
 938 42 410 -30 216 -30 c 0
 148 -30 48 -24 48 24 c 0
 48 38 128 128 224 224 c 0
 320 318 454 478 520 580 c 0
 584 682 662 826 690 902 c 0
 722 988 736 1052 736 1134 c 0
 736 1212 719 1355 704 1368 c 0
 694.871290708 1377.12870929 649.07591475 1386.25741858 598.564354646 1386.25741858 c 0
 593.743272982 1386.25741858 588.879227966 1386.17425814 584 1386 c 0
 444 1386 286 1292 226 1210 c 1
 202 1170 164 1100 146 1048 c 0
 130 993 112 966 95 966 c 0
EndSplineSet
EndChar

StartChar: three
Encoding: 51 51 76
Width: 981
VWidth: 3020
Flags: HW
LayerCount: 2
Fore
SplineSet
321 1101 m 0
 321 1077 329 1041 329 1024 c 0
 329 1003 323 992 308 992 c 0
 297 992 283 997 262 1006 c 0
 219 1025 193 1060 193 1113 c 0
 193 1129 196 1148 201 1168 c 0
 216 1243 377 1393 442 1420 c 0
 471 1430 529 1442 568 1442 c 0
 670 1442 803 1376 852 1318 c 0
 880 1288 891 1233 891 1172 c 0
 891 1085 869 985 844 930 c 0
 820 876 772 794 736 748 c 0
 708 713 693 693 693 673 c 0
 693 646 722 620 789 558 c 0
 872 480 913 427 923 374 c 0
 929 345 933 317 933 291 c 0
 933 136 832 30 701 -2 c 0
 657 -14 553 -26 466 -26 c 0
 379 -26 256 -10 186 10 c 0
 120 29 58 56 51 73 c 0
 48.8693797647 78.3265505882 47.8282497503 84.2886371386 47.8282497503 90.3736414625 c 0
 47.8282497503 112.848416226 62.0310467764 137 88 137 c 0
 107 137 135 127 177 105 c 0
 243 71 306 60 405 60 c 0
 546 60 736 94 789 170 c 0
 806 196 820 250 820 294 c 0
 820 355 803 393 747 456 c 0
 669 543 610 564 500 593 c 0
 461 601 447 616 447 632 c 0
 447 659 485 691 522 712 c 0
 634 768 668 811 738 930 c 0
 777 1000 799 1064 799 1120 c 0
 799 1250 709 1334 591 1334 c 0
 556 1334 519 1327 481 1311 c 0
 409 1281 321 1199 321 1101 c 0
EndSplineSet
EndChar

StartChar: four
Encoding: 52 52 77
Width: 1154
VWidth: 2771
Flags: HW
LayerCount: 2
Fore
SplineSet
512 77 m 0
 512 154 553 469 553 540 c 0
 553 552 551 560 550 562 c 0
 548.582775046 563.417224954 545.380193141 564.053356242 540.787606225 564.053356242 c 0
 525.936899106 564.053356242 496.55183364 557.401754251 466 549 c 0
 408 533 297 512 218 512 c 0
 175 512 148 521 112 544 c 0
 72 570 48 600 48 624 c 0
 48 648 69 702 90 747 c 0
 200 957 352 1160 517 1336 c 0
 575 1397 637 1445 654 1445 c 0
 654 1445 l 0
 671 1442 691 1421 691 1400 c 0
 691 1378 665 1323 626 1275 c 0
 584 1224 499 1134 440 1075 c 0
 379 1016 298 908 258 838 c 0
 218 768 186 688 186 667 c 0
 186 632 197 624 250 624 c 0
 312 624 536 672 566 702 c 0
 593 729 621 893 627 944 c 0
 629 973 633 1007 635 1018 c 0
 635 1029 656 1035 682 1032 c 0
 713 1027 721 1022 721 966 c 0
 721 937 717 865 717 829 c 0
 717 765 731 750 800 750 c 0
 854 750 943 759 998 759 c 0
 1060 759 1106 749 1106 713 c 0
 1106 665 1069 664 957 664 c 0
 869 664 799 651 754 627 c 0
 685 593 685 595 648 373 c 0
 631 267 623 211 623 175 c 0
 623 135 633 121 656 90 c 0
 676.672436598 62.6394221494 685.884805132 45.260193903 685.884805132 30.4449068118 c 0
 685.884805132 20.8934600297 682.05576886 12.407691813 675 3 c 0
 661 -13 627 -24 595 -24 c 0
 532 -24 512 8 512 77 c 0
EndSplineSet
EndChar

StartChar: five
Encoding: 53 53 78
Width: 1457
VWidth: 3295
Flags: HW
LayerCount: 2
Fore
SplineSet
595 1438 m 0
 613 1438 643 1424 665 1404 c 0
 685 1387 704 1379 764 1379 c 0
 814 1379 891 1385 1020 1397 c 0
 1137 1408 1247 1414 1312 1414 c 0
 1344 1414 1365 1412 1371 1409 c 0
 1391 1402 1409 1382 1409 1364 c 0
 1409 1346 1377 1323 1339 1312 c 0
 1299 1299 1182 1283 1079 1274 c 0
 976 1265 806 1244 696 1224 c 0
 503 1186 498 1184 449 1098 c 0
 422 1051 411 1010 411 972 c 0
 411 856 520 781 617 722 c 0
 671 691 759 631 809 590 c 0
 883 531 905 498 916 421 c 0
 920 396 921 373 921 351 c 0
 921 234 867 163 793 92 c 0
 728 33 627 -27 516 -27 c 0
 495 -27 473 -25 451 -20 c 0
 411 -13 322 34 250 86 c 0
 158 154 109 211 86 274 c 0
 64 324 48 400 48 441 c 0
 48 491 60 523 89 536 c 0
 105 546 119 550 128 550 c 0
 156 550 158 512 158 457 c 0
 158 446 158 435 158 423 c 0
 158 322 165 306 262 207 c 0
 334 137 391 101 449 90 c 0
 480 84 507 81 531 81 c 0
 611 81 656 115 716 175 c 1
 784 236 793 263 793 346 c 0
 793 427 782 453 723 511 c 0
 683 549 609 602 557 625 c 0
 505 652 424 711 377 758 c 0
 298 837 289 858 289 961 c 0
 289 1049 305 1096 359 1184 c 0
 397 1245 458 1328 496 1368 c 0
 532 1406 577 1438 595 1438 c 0
EndSplineSet
EndChar

StartChar: six
Encoding: 54 54 79
Width: 986
VWidth: 3000
Flags: HW
LayerCount: 2
Fore
SplineSet
183 275 m 0
 183 120 238 87 406 87 c 0
 578 87 690 151 773 243 c 0
 807 282 834 335 834 357 c 0
 834 476 717 542 591 542 c 1
 472 537 399 483 326 418 c 0
 292 384 244 355 222 352 c 0
 190 346 183 331 183 275 c 0
729 1492 m 0
 748 1492 768 1457 768 1431 c 0
 768 1399 727 1322 655 1212 c 0
 580 1105 514 1025 480 1010 c 0
 449 998 404 961 378 932 c 0
 327 862 213 629 198 522 c 0
 195.287160848 504.172771284 194.076259709 487.697286781 194.076259709 474.203352989 c 0
 194.076259709 452.878585325 197.100387603 439 202 439 c 0
 210 439 251 467 292 503 c 0
 368 571 464 634 594 634 c 0
 737 634 816 578 892 514 c 0
 928 483 938 451 938 376 c 0
 938 298 926 265 868 197 c 0
 781 97 638 13 482 -13 c 0
 440 -21 401 -25 365 -25 c 0
 263 -25 182 5 123 61 c 0
 65 122 48 185 48 307 c 0
 48 487 95 643 164 779 c 0
 269 997 402 1178 565 1355 c 0
 639 1434 708 1492 729 1492 c 0
EndSplineSet
EndChar

StartChar: seven
Encoding: 55 55 80
Width: 1192
VWidth: 2860
Flags: HW
LayerCount: 2
Fore
SplineSet
414 599 m 0
 379 599 305 589 273 589 c 0
 235 589 213 598 213 636 c 0
 213 654 222 676 232 684 c 0
 242 690 310 700 382 708 c 0
 514 718 515 719 591 933 c 0
 635 1051 672 1185 674 1230 c 0
 674 1275 667 1321 658 1330 c 0
 654 1334 642 1337 623 1337 c 0
 593 1337 548 1332 488 1322 c 0
 402 1307 280 1294 218 1294 c 0
 203 1294 188 1294 174 1294 c 0
 103 1294 48 1299 48 1350 c 0
 48 1380 66 1382 200 1384 c 0
 282 1386 408 1397 477 1412 c 0
 556 1427 633 1439 673 1439 c 0
 759 1439 787 1375 787 1292 c 0
 787 1190 745 1058 716 974 c 0
 685 876 658 783 658 759 c 0
 658 743 680 742 711 742 c 0
 803 742 984 778 999 783 c 0
 1033 793 1082 801 1106 801 c 0
 1133 801 1144 790 1144 766 c 0
 1144 748 1130 726 1114 718 c 0
 1086 706 612 623 592 603 c 0
 559 570 450 278 441 218 c 0
 433 182 412 114 392 64 c 0
 360 -4 342 -22 309 -22 c 0
 282 -22 267 -12 267 10 c 0
 267 26 277 79 292 124 c 0
 307 169 348 278 384 366 c 0
 420 454 450 544 450 566 c 0
 450 591 447 599 414 599 c 0
EndSplineSet
EndChar

StartChar: eight
Encoding: 56 56 81
Width: 1304
VWidth: 2677
Flags: HW
LayerCount: 2
Fore
SplineSet
552 69 m 0
 650 69 692 92 692 188 c 0
 692 365 643 483 542 584 c 0
 493 633 445 671 430 671 c 0
 429 670 l 0
 373 670 212 579 188 543 c 0
 172 519 158 478 158 448 c 0
 158 292 289 156 405 104 c 0
 445 86 510 69 552 69 c 0
640 1311 m 0
 490 1311 356 1284 282 1210 c 1
 255 1177 244 1142 244 1105 c 0
 244 1027 294 948 348 894 c 0
 405 838 427 822 460 822 c 0
 469 822 480 823 492 825 c 0
 594 841 744 951 800 1026 c 0
 830 1066 852 1111 852 1126 c 0
 852 1139.92753623 844.531611006 1143.7626549 833.584994627 1143.7626549 c 0
 820.166561647 1143.7626549 801.52173913 1138 785 1138 c 0
 759 1138 745 1155 745 1175 c 0
 745 1187 750 1200 760 1212 c 0
 768.174942219 1222.89992296 772.637124422 1230.91214368 772.637124422 1239.22170647 c 0
 772.637124422 1249.20855804 766.191750128 1259.6249037 752 1276 c 0
 728 1301 702 1311 640 1311 c 0
1004 1511 m 0
 1035 1511 1043 1494 1043 1446 c 0
 1043 1441 1042 1436 1042 1431 c 0
 1042 1391 1036 1328 1028 1292 c 0
 1024 1274 1021 1261 1021 1251 c 0
 1021 1222 1045 1221 1134 1221 c 0
 1240 1221 1256 1218 1256 1186 c 0
 1256 1124 1127 1112 1052 1112 c 0
 970 1112 964 1109 920 1035 c 0
 850 915 788 874 664 792 c 0
 605 755 579 739 579 719 c 0
 579 703 596 684 626 651 c 0
 726 542 797 378 797 176 c 0
 797 96 780 36 724 6 c 0
 694 -9 624 -22 567 -22 c 0
 409 -22 284 60 200 148 c 0
 160 190 108 268 88 320 c 0
 66 371 48 436 48 466 c 0
 54 558 94 595 158 646 c 0
 192 672 240 702 264 711 c 0
 286 720 304 736 304 746 c 0
 304 756 272 804 232 852 c 0
 166 933 122 1002 122 1118 c 0
 122 1148 138 1197 158 1230 c 0
 182 1269 229 1307 291 1334 c 0
 373 1373 419 1377 614 1380 c 0
 840 1382 840 1382 906 1450 c 0
 944 1488 981 1511 1004 1511 c 0
EndSplineSet
EndChar

StartChar: nine
Encoding: 57 57 82
Width: 1148
VWidth: 3191
Flags: HW
LayerCount: 2
Fore
SplineSet
820 1247 m 0
 820 1297 797 1392 753 1392 c 0
 751 1392 750 1391 748 1391 c 0
 680 1391 622 1342 575 1292 c 0
 538 1252 476 1159 476 1077 c 0
 476 1027 509 974 552 974 c 1
 638 983 689 1039 750 1109 c 0
 791 1158 820 1215 820 1247 c 0
48 398 m 0
 48 482 54 523 96 523 c 0
 141 523 137 442 145 369 c 0
 161 230 199 175 298 121 c 0
 347 94 419 81 534 81 c 0
 887 81 953 236 971 589 c 0
 973 633 974 670 974 704 c 0
 974 803 966 863 943 929 c 0
 924 988 897 1052 883 1052 c 0
 866 1052 810 1014 754 963 c 0
 657 877 630 864 545 864 c 0
 468 864 439 875 403 922 c 0
 372 960 358 1012 358 1071 c 0
 358 1121 379 1206 408 1262 c 0
 457 1361 617 1505 752 1505 c 0
 876 1505 908 1463 926 1348 c 0
 937 1290 968 1207 995 1166 c 0
 1053 1068 1100 823 1100 639 c 0
 1100 613 1099 588 1097 565 c 0
 1079 392 1047 220 966 121 c 0
 894 33 707 -27 545 -27 c 0
 378 -27 257 11 172 90 c 1
 91 160 48 252 48 398 c 0
EndSplineSet
EndChar

StartChar: zero
Encoding: 48 48 83
Width: 1802
VWidth: 3588
Flags: HW
LayerCount: 2
Fore
SplineSet
1017 1010 m 0
 957 1010 944 1098 944 1162 c 0
 944 1269 841 1333 732 1333 c 0
 694 1333 655 1326 619 1309 c 0
 469 1242 371 1110 293 938 c 1
 222 793 210 733 210 531 c 0
 210 299 212 297 309 200 c 0
 380 129 405 109 469 109 c 0
 492 109 519 111 555 115 c 0
 757 140 985 299 1098 423 c 1
 1188 533 1254 670 1254 842 c 0
 1254 932 1217 1134 1169 1164 c 0
 1167.33105012 1165.07289635 1165.40629878 1165.5915562 1163.26809913 1165.5915562 c 0
 1147.46999319 1165.5915562 1120.01973236 1137.27788613 1098 1095 c 0
 1075 1049 1038 1010 1017 1010 c 0
732 1486 m 0
 735 1486 737 1486 740 1486 c 0
 788 1486 855 1469 898 1447 c 0
 939 1424 1024 1403 1084 1403 c 0
 1148 1403 1220 1383 1266 1346 c 0
 1314 1308 1348 1293 1419 1293 c 0
 1498 1293 1676 1317 1703 1322 c 0
 1724 1327 1744 1321 1753 1300 c 1
 1753.49691425 1297.91296017 1753.73702777 1295.66788912 1753.73702777 1293.28932685 c 0
 1753.73702777 1271.73456171 1734.01851452 1239.21728022 1707 1214 c 0
 1673 1186 1590 1150 1516 1136 c 0
 1383 1106 1383 1104 1381 853 c 0
 1381 628 1373 587 1302 467 c 0
 1196 285 1022 159 829 53 c 0
 709 -11 636 -34 532 -34 c 1
 360 -27 222 37 148 138 c 0
 85 219 48 405 48 576 c 0
 48 642 53 706 65 761 c 0
 111 993 244 1210 396 1336 c 0
 506 1428 573 1486 732 1486 c 0
EndSplineSet
EndChar

StartChar: exclam
Encoding: 33 33 84
Width: 321
VWidth: 2914
Flags: HW
LayerCount: 2
Fore
SplineSet
144 -22 m 0
 97 -22 48 -4 48 37 c 0
 48 51 54 68 67 96 c 0
 93 152 108 160 159 160 c 0
 223 160 262 138 262 80 c 0
 262 23 208 -22 144 -22 c 0
237 1550 m 0
 261 1550 273 1538 273 1509 c 0
 273 1468 266 1375 253 1274 c 0
 239 1166 231 1054 231 972 c 0
 231 886 244 756 255 705 c 0
 257.857208208 685.317010124 259.605774117 671.17723174 259.605774117 661.044848182 c 0
 259.605774117 639.260953543 251.523569905 636 229 636 c 0
 209 636 174 656 154 682 c 0
 121 724 117 758 117 928 c 0
 117 1034 129 1202 145 1296 c 0
 160 1390 183 1485 193 1509 c 0
 203 1531 223 1550 237 1550 c 0
EndSplineSet
EndChar

StartChar: question
Encoding: 63 63 85
Width: 724
VWidth: 2629
Flags: HW
LayerCount: 2
Fore
SplineSet
396 163 m 0
 419 163 459 149 482 129 c 0
 512 106 524 81 524 43 c 0
 524 -3 505 -20 479 -20 c 0
 425 -20 341 52 330 76 c 0
 325 88 323 98 323 108 c 0
 323 144 355 163 396 163 c 0
324 1575 m 0
 354 1582 428 1588 482 1588 c 0
 542 1588 564 1580 589 1555 c 0
 609 1535 617 1521 617 1488 c 0
 617 1380 598 1342 528 1236 c 0
 427 1084 366 1031 257 887 c 0
 211 829 170 761 165 739 c 0
 163 731 162 722 162 715 c 0
 162 667 210 644 253 626 c 0
 291 609 367 600 489 599 c 0
 588 598 670 592 675 587 c 0
 680 582 669 566 649 549 c 0
 620 523 590 519 438 519 c 0
 285 519 252 523 186 557 c 0
 142 578 95 615 78 644 c 0
 62 671 48 703 48 712 c 0
 48 724 76 771 110 822 c 0
 187 938 412 1203 477 1329 c 0
 503 1379 520 1436 520 1460 c 0
 520 1497 487 1509 449 1509 c 0
 404 1509 349 1493 313 1479 c 0
 257 1458 205 1421 169 1382 c 0
 138 1347 112 1311 112 1303 c 0
 112 1294 100 1288 87 1288 c 0
 73 1288 59 1300 53 1314 c 0
 51.9087121146 1317.05560608 51.3890606687 1320.96866682 51.3890606687 1325.52084524 c 0
 51.3890606687 1341.82557582 58.055606079 1366.32946974 69 1389 c 0
 99 1451 252 1554 324 1575 c 0
EndSplineSet
EndChar

StartChar: section
Encoding: 167 167 86
Width: 772
VWidth: 2284
Flags: HW
LayerCount: 2
Fore
SplineSet
485 834 m 0
 485 804 436 787 402 787 c 0
 349 787 272 707 272 654 c 0
 272 630 281 591 292 562 c 0
 304 533 368 460 446 385 c 0
 580 257 580 257 580 182 c 0
 580 126 574 97 552 71 c 0
 538 52 505 26 482 14 c 0
 451 -2 393 -11 265 -15 c 0
 229 -16 199 -17 175 -17 c 0
 106 -17 80 -11 65 1 c 0
 52 11 44 26 50 34 c 0
 56 44 96 48 171 48 c 0
 179 48 188 48 197 48 c 0
 335 48 423 53 481 111 c 0
 499 129 513 151 513 163 c 0
 513 175 507 199 499 215 c 0
 491 231 427 299 359 365 c 0
 291 432 224 506 211 531 c 0
 199 556 188 605 188 641 c 0
 189 694 200 719 233 767 c 0
 257 800 277 828 277 828 c 2
 278 828 302 837 332 848 c 0
 362 859 406 866 430 867 c 0
 463 867 485 852 485 834 c 0
686 1501 m 0
 665 1501 614 1508 593 1508 c 0
 563 1508 544 1500 507 1479 c 0
 430 1434 382 1376 345 1290 c 0
 327 1254 312 1201 312 1172 c 0
 312 1134 321 1111 350 1085 c 0
 387 1048 598 897 621 847 c 0
 632 828 640 788 640 762 c 0
 640 643 529 586 405 586 c 0
 349 586 325 592 307 611 c 0
 297 622 293 630 293 637 c 0
 293 654 319 661 349 661 c 0
 370 661 392 656 413 656 c 0
 476 656 532 687 554 727 c 0
 560 738 563 747 563 756 c 0
 563 768 557 782 544 804 c 0
 531 828 460 896 387 953 c 0
 299 1026 249 1075 236 1107 c 0
 227 1129 221 1154 221 1179 c 0
 221 1189 222 1198 224 1208 c 0
 238 1284 310 1414 358 1459 c 0
 409 1510 479 1567 566 1580 c 0
 597 1584 630 1591 657 1591 c 0
 683 1591 703 1585 714 1564 c 0
 724 1550 726 1527 722 1515 c 0
 718 1505 709 1501 686 1501 c 0
EndSplineSet
EndChar

StartChar: dollar
Encoding: 36 36 87
Width: 994
VWidth: 2417
Flags: HW
LayerCount: 2
Fore
SplineSet
635 698 m 0
 628 698 613 682 602 662 c 0
 571 592 528 441 507 352 c 0
 499 315 493 280 493 262 c 0
 493 247.53059932 504.246802598 242.145154584 523.326397447 242.145154584 c 0
 533.256372238 242.145154584 545.308001237 243.603900216 559 246 c 0
 661 265 756 315 756 433 c 0
 756 508 713 609 679 656 c 0
 661 679 642 698 635 698 c 0
554 761 m 0
 554 783 546 801 535 801 c 0
 529 801 523 795 517 783 c 0
 509 770 490 719 476 666 c 0
 453 584 421 450 421 357 c 0
 421 347.66889127 422.12979572 343.68548228 423.97596572 343.68548228 c 0
 428.856732659 343.68548228 438.744443744 371.526663725 446 402 c 0
 456 443 485 533 509 603 c 0
 534 672 554 743 554 761 c 0
451 1145 m 0
 451 1115 464 1039 484 1039 c 0
 505 1039 543 1243 547 1263 c 0
 553 1286 552 1306 545 1306 c 0
 538 1306 517 1289 498 1269 c 0
 468 1238 451 1196 451 1145 c 0
557 937 m 0
 557 909 571 891 581 891 c 0
 590 891 601 902 609 924 c 0
 621 955 716 1299 716 1343 c 0
 716 1361 708 1373 696 1373 c 0
 685 1373 667 1359 656 1343 c 0
 645 1325 630 1274 622 1228 c 0
 614 1181 594 1102 580 1054 c 0
 567 1011 557 960 557 937 c 0
475 53 m 0
 462 53 438 58 426 58 c 0
 406 58 396 49 379 23 c 0
 360 -1 338 -16 316 -16 c 0
 298 -16 284 -9 284 1 c 0
 284 30 312 143 319 168 c 0
 320 172 320 176 320 179 c 0
 320 196 305 207 255 231 c 0
 215 249 157 289 125 320 c 0
 94 351 61 391 53 411 c 0
 45 435 46 452 57 464 c 0
 65 475 77 483 84 483 c 0
 91 483 105 462 116 437 c 0
 137 387 229 300 281 285 c 0
 301 281 318 283 325 294 c 0
 331 304 339 345 345 387 c 0
 351 429 379 558 409 674 c 0
 436 781 448 834 448 873 c 0
 448 912 436 938 411 988 c 0
 376 1059 366 1085 366 1129 c 0
 366 1202 380 1256 408 1287 c 0
 426 1307 470 1344 510 1368 c 0
 563 1402 586 1430 608 1476 c 0
 622 1511 635 1545 635 1555 c 0
 635 1567 664 1596 680 1580 c 0
 684 1574 689 1544 689 1512 c 0
 689 1462 693 1454 716 1454 c 0
 753 1454 770 1517 770 1555 c 0
 770 1589 791 1602 821 1602 c 0
 822 1602 823 1602 824 1602 c 0
 845 1602 857 1556 857 1524 c 0
 857 1512 854 1501 854 1490 c 0
 854 1472 864 1465 897 1454 c 0
 934 1442 946 1431 946 1407 c 0
 946 1379 938 1366 923 1366 c 0
 914 1366 901 1370 887 1380 c 0
 862 1396 852 1397 833 1383 c 0
 822 1375 796 1312 777 1245 c 0
 758 1179 729 1079 716 1026 c 0
 702 972 685 917 678 905 c 0
 670 888 655 853 655 824 c 0
 655 811 658 799 666 791 c 0
 676 781 709 742 740 702 c 0
 808 617 828 553 828 415 c 0
 828 259 748 234 622 191 c 0
 558 170 538 159 538 143 c 0
 538 107 514 53 475 53 c 0
EndSplineSet
EndChar

StartChar: percent
Encoding: 37 37 88
Width: 1210
VWidth: 2805
Flags: HW
LayerCount: 2
Fore
SplineSet
1098 577 m 0
 1139 577 1162 521 1162 469 c 0
 1162 446 1158 418 1152 384 c 0
 1127 252 1057 109 972 36 c 0
 930 -2 886 -21 855 -21 c 0
 726 -21 637 85 637 218 c 0
 637 340 660 421 729 487 c 0
 777 529 806 542 858 542 c 0
 959 542 1009 482 1009 383 c 0
 1009 359 999 343 977 322 c 0
 957.113247918 303.017191194 933.1409286 290.571289965 921.332774592 290.571289965 c 0
 920.077991671 290.571289965 918.960567235 290.711829829 918 291 c 0
 909 294 907.2 320.4 907.2 348.816 c 0
 907.2 367.76 908 387.6 908 402 c 0
 908 431 904 439 887 439 c 0
 796 439 750 353 750 255 c 0
 750 252 750 249 750 246 c 0
 750 202 760 149 773 127 c 0
 794 92 807 74 832 74 c 0
 847 74 867 81 895 95 c 0
 937 116 969 154 1011 237 c 0
 1056 327 1066 362 1066 445 c 0
 1066 461 1065 482 1065 497 c 0
 1065 568 1071 577 1098 577 c 0
200 900 m 0
 122 900 48 971 48 1053 c 0
 48 1087 55 1132 67 1173 c 0
 98 1275 186 1408 256 1463 c 0
 280 1481 322 1498 347 1498 c 0
 406 1498 455 1443 455 1383 c 0
 455 1330 379 1259 326 1259 c 0
 301 1259 294 1267 301 1289 c 0
 304 1304 315 1334 322 1352 c 0
 326.179986868 1361.32458609 328.602406081 1367.75435487 328.602406081 1370.92363797 c 0
 328.602406081 1372.42411792 328.059421341 1373.19376072 326.90289615 1373.19376072 c 0
 322.904996039 1373.19376072 311.575527614 1363.99683047 290 1344 c 0
 238 1299 160 1172 160 1084 c 0
 160 1030 174 995 210 995 c 0
 224 995 240 1000 260 1011 c 0
 316 1038 440 1156 462 1212 c 0
 472 1233 487 1281 494 1319 c 0
 508 1381 517 1386 566 1392 c 0
 572.998529399 1392.53834842 579.224208088 1392.81907993 584.729043936 1392.81907993 c 0
 609.900452459 1392.81907993 620 1386.94935898 620 1373 c 0
 620 1317 562 1208 540 1165 c 0
 499 1094 385 974 309 932 c 0
 273 915 225 900 200 900 c 0
90 13 m 0
 74 13 48 31 48 53 c 0
 48 81 78 145 136 246 c 0
 262 466 316 564 456 764 c 0
 513 844 639 1032 736 1182 c 0
 833 1332 926 1468 941 1485 c 0
 955 1500 982 1515 1000 1515 c 0
 1018 1515 1030 1502 1030 1484 c 0
 1030 1467 933 1312 815 1140 c 0
 697 966 546 740 477 636 c 0
 408 534 321 387 283 314 c 0
 244 238 211 155 211 130 c 0
 211 77 140 13 90 13 c 0
EndSplineSet
EndChar

StartChar: ampersand
Encoding: 38 38 89
Width: 1273
VWidth: 2727
Flags: HW
LayerCount: 2
Fore
SplineSet
154 222 m 0
 154 130 166 76 208 76 c 0
 233 76 269 89 322 111 c 0
 382 135 453 163 478 176 c 0
 506 189 525 207 525 220 c 0
 525 230 498 265 460 297 c 0
 424 328 368 388 339 434 c 0
 308 479 279 515 272 515 c 0
 265 515 247 501 233 486 c 0
 191 434 154 326 154 222 c 0
731 1294 m 0
 731 1400 702 1435 609 1435 c 0
 494 1435 465 1426 394 1375 c 0
 293 1299 265 1127 265 948 c 0
 265 883 269 792 294 762 c 0
 303 750 309 743 318 743 c 0
 333 743 357 761 415 805 c 0
 528 893 627 993 689 1120 c 0
 714 1175 731 1238 731 1294 c 0
986 -14 m 0
 947 -14 904 55 861 55 c 0
 843 55 789 77 737 105 c 0
 696 129 673 142 646 142 c 0
 613 142 573 123 483 80 c 0
 392 35 285 -6 240 -13 c 0
 206 -18 181 -21 161 -21 c 0
 119 -21 100 -5 76 45 c 0
 61 76 48 147 48 203 c 0
 48 350 86 445 149 535 c 0
 178 574 202 623 202 644 c 0
 202 666 189 728 175 783 c 0
 161 836 150 934 150 1001 c 0
 150 1154 174 1231 224 1333 c 0
 291 1466 428 1537 625 1537 c 0
 631 1537 636 1537 641 1537 c 0
 800 1537 850 1458 850 1291 c 0
 850 1136 738 991 647 893 c 0
 594 840 504 758 448 710 c 0
 390 661 366 639 366 612 c 0
 366 591 381 566 408 522 c 0
 442 467 510 388 558 349 c 0
 610 307 645 287 665 287 c 0
 668 287 672 287 674 288 c 0
 691 295 766 340 842 389 c 0
 918 437 1025 516 1081 564 c 0
 1136 612 1190 651 1203 651 c 0
 1216 651 1225 640 1225 627 c 0
 1225 613 1162 547 1085 480 c 0
 1007 411 904 330 856 298 c 0
 807 266 765 231 765 223 c 0
 765 215 796 192 832 174 c 0
 870 157 930 136 968 129 c 0
 1030 119 1051 105 1051 55 c 0
 1051 15 1021 -14 986 -14 c 0
EndSplineSet
EndChar

StartChar: slash
Encoding: 47 47 90
Width: 1084
VWidth: 2459
Flags: HW
LayerCount: 2
Fore
SplineSet
973 1512 m 0
 999 1512 1036 1485 1036 1455 c 0
 1036 1437 1011 1400 976 1365 c 0
 868 1257 790 1139 682 1000 c 0
 580 865 350 500 278 348 c 0
 254 300 219 218 200 165 c 0
 180 114 152 51 138 28 c 0
 122 2 100 -16 84 -16 c 0
 71 -16 48 -6 48 7 c 0
 48 27 86 117 133 216 c 0
 241 437 393 688 517 876 c 0
 561 942 654 1069 722 1157 c 0
 789 1247 864 1358 887 1405 c 0
 910 1452 936 1495 946 1502 c 0
 954 1508 967 1512 973 1512 c 0
EndSplineSet
EndChar

StartChar: parenleft
Encoding: 40 40 91
Width: 605
VWidth: 2302
Flags: HW
LayerCount: 2
Fore
SplineSet
534 1575 m 0
 547 1568 557 1549 557 1532 c 0
 557 1516 547 1497 535 1491 c 0
 524 1485 479 1445 436 1401 c 0
 393 1357 335 1287 306 1246 c 0
 241 1154 227 1080 184 975 c 0
 135 859 129 813 129 621 c 0
 129 610 129 600 129 590 c 0
 129 473 135 420 155 338 c 0
 170 278 201 195 223 154 c 0
 265 80 276 54 341 28 c 0
 361 21 374 8 370 -1 c 0
 368 -10 346 -15 320 -15 c 0
 294 -14 259 -2 242 11 c 0
 154 75 94 228 70 362 c 0
 56 440 48 506 48 584 c 0
 48 821 107 1023 185 1179 c 0
 208 1228 272 1321 337 1398 c 0
 398 1472 462 1544 479 1560 c 0
 503 1581 514 1585 534 1575 c 0
EndSplineSet
EndChar

StartChar: parenright
Encoding: 41 41 92
Width: 416
VWidth: 2326
Flags: HW
LayerCount: 2
Fore
SplineSet
129 -15 m 0
 112 -15 79 18 79 29 c 0
 79 36 94 76 115 117 c 0
 159 209 245 571 261 691 c 0
 283 832 297 876 297 1044 c 0
 297 1190 272 1348 226 1439 c 0
 211 1466 179 1503 155 1520 c 0
 129 1537 100 1550 89 1550 c 0
 65 1550 48 1571 48 1590 c 0
 48 1607 61 1623 93 1623 c 0
 113 1623 143 1616 163 1606 c 0
 181 1596 218 1565 246 1536 c 0
 334 1437 368 1271 368 1080 c 0
 368 1054 367 1029 365 1008 c 0
 352 790 297 529 243 314 c 0
 213 197 188 85 188 65 c 0
 188 44 177 21 160 5 c 0
 145 -8 137 -15 129 -15 c 0
EndSplineSet
EndChar

StartChar: braceleft
Encoding: 123 123 93
Width: 603
VWidth: 2071
Flags: HW
LayerCount: 2
Fore
SplineSet
316 1397 m 0
 316 1445 295 1483 252 1483 c 0
 230 1483 207 1471 180 1442 c 0
 160 1421 144 1410 136 1410 c 0
 125 1410 128 1438 133 1458 c 0
 145 1507 200 1538 263 1538 c 0
 328 1538 338 1521 365 1483 c 0
 377 1465 383 1433 383 1384 c 0
 383 1297 350 1138 350 1052 c 0
 350 967 364 947 414 909 c 0
 439 890 451 883 472 883 c 0
 492.564705882 883 511.330657439 886.797370242 525.796057806 886.797370242 c 0
 543.687474048 886.797370242 555 880.988235294 555 855 c 0
 555 831 531 818 509 804 c 0
 415 749 379 633 379 479 c 0
 379 403 392 293 392 216 c 0
 392 133 373 90 320 39 c 0
 286 5 259 -14 224 -14 c 0
 170 -14 98 37 71 68 c 0
 56 88 45 108 49 113 c 0
 53 118 65 123 77 123 c 0
 88 123 98 117 98 111 c 0
 98 92 183 45 204 45 c 0
 218 45 248 62 270 83 c 0
 311 120 315 144 315 227 c 0
 315 315 301 380 301 466 c 0
 301 559 319 680 342 725 c 0
 356 752 374 786 383 800 c 0
 388 807 390 811 390 817 c 0
 390 829 377 842 342 876 c 0
 287 927 276 946 276 1019 c 0
 276 1132 316 1288 316 1397 c 0
EndSplineSet
EndChar

StartChar: braceright
Encoding: 125 125 94
Width: 857
VWidth: 2053
Flags: HW
LayerCount: 2
Fore
SplineSet
288 868 m 0
 288 929 257 1089 257 1148 c 0
 257 1242 302 1374 344 1433 c 0
 387 1496 445 1545 523 1562 c 0
 538 1565 551 1567 562 1567 c 0
 594 1567 610 1554 610 1515 c 0
 610 1494 602 1472 592 1463 c 0
 578 1451 571 1454 551 1479 c 0
 537 1496 531 1502 522 1502 c 0
 516 1502 508 1499 497 1493 c 0
 443 1464 401 1405 369 1343 c 0
 344 1291 335 1224 335 1131 c 0
 335 1077 340 1027 351 978 c 0
 359 938 363 895 363 866 c 0
 363 849 360 838 360 823 c 0
 360 803 366 786 377 767 c 0
 398 730 406 705 406 671 c 0
 406 643 400 609 389 558 c 0
 371 474 363 343 363 238 c 0
 363 91 454 41 599 41 c 0
 602 41 605 41 608 41 c 0
 656 41 688 48 726 66 c 0
 754 79 782 88 793 88 c 0
 801 88 809 75 809 67 c 0
 809 59 797 45 783 35 c 0
 736 6 659 -14 572 -14 c 0
 568 -14 564 -13 560 -13 c 0
 417 -13 362 15 316 109 c 0
 295 149 291 172 291 247 c 0
 291 255 291 265 291 275 c 0
 291 407 309 523 318 636 c 0
 319 648 320 661 320 672 c 0
 320 726 315 739 265 739 c 0
 190 739 129 703 72 703 c 0
 51 703 45 709 49 733 c 0
 53 758 61 763 124 782 c 0
 164 793 216 808 240 816 c 0
 279 828 288 836 288 868 c 0
EndSplineSet
EndChar

StartChar: bracketleft
Encoding: 91 91 95
Width: 712
VWidth: 2043
Flags: HW
LayerCount: 2
Fore
SplineSet
162 1598 m 0
 176 1598 199 1590 217 1580 c 0
 283 1549 428 1532 536 1532 c 0
 618 1532 644 1528 655 1514 c 0
 661.068419057 1507.11152431 663.747474022 1501.03004008 663.747474022 1495.67613385 c 0
 663.747474022 1468.38652476 594.143388404 1460 549 1460 c 0
 504 1460 427 1465 364 1473 c 0
 292 1482 227 1488 221 1488 c 0
 215 1488 204 1472 200 1453 c 0
 196 1433 187 1336 183 1240 c 0
 179 1144 167 1016 157 956 c 0
 125 763 118 695 118 429 c 0
 118 296 122 158 128 123 c 0
 133 87 145 52 153 48 c 0
 159 44 177 42 201 42 c 0
 269 42 381 54 397 55 c 0
 423 56 431 52 431 34 c 0
 431 19 419 11 392 5 c 0
 365 -2 192 -13 127 -13 c 0
 88 -13 71 -10 62 -3 c 0
 53 6 48 23 48 105 c 0
 48 156 50 232 53 347 c 0
 59 588 70 729 86 852 c 0
 100 952 111 1086 112 1180 c 0
 113 1268 118 1391 122 1455 c 0
 126 1519 132 1576 136 1584 c 0
 138 1590 150 1598 162 1598 c 0
EndSplineSet
EndChar

StartChar: bracketright
Encoding: 93 93 96
Width: 948
VWidth: 2069
Flags: HW
LayerCount: 2
Fore
SplineSet
404 1405 m 0
 355 1405 319 1410 319 1440 c 0
 319 1467 391 1470 472 1474 c 0
 547 1478 662 1493 728 1507 c 0
 795 1521 856 1534 866 1535 c 0
 882 1535 900 1528 900 1509 c 0
 900 1493 893 1466 880 1426 c 0
 829 1277 823 1194 810 971 c 0
 805 857 792 647 782 506 c 0
 773 366 761 225 756 195 c 0
 750 164 745 112 745 78 c 0
 745 44 739 9 733 -0 c 0
 727 -10 713 -13 665 -13 c 0
 533 -13 434 -4 301 23 c 0
 215 41 129 55 107 55 c 0
 82 55 48 64 48 84 c 0
 48 110 105 119 143 119 c 0
 163 119 177 115 191 106 c 0
 206 95 258 81 308 72 c 0
 386 58 484 45 572 45 c 0
 620 45 664 51 677 75 c 0
 682 85 695 148 705 214 c 0
 722 344 756 869 756 1016 c 0
 756 1119 775 1347 807 1412 c 0
 816 1433 822 1452 818 1456 c 0
 818 1456 815 1457 812 1457 c 0
 791 1457 720 1448 638 1434 c 0
 543 1419 438 1405 404 1405 c 0
EndSplineSet
EndChar

StartChar: equal
Encoding: 61 61 97
Width: 945
Flags: HW
LayerCount: 2
Fore
SplineSet
631 590 m 0
 711 595 778 599 790 599 c 0
 814 599 850 552 850 530 c 0
 850 506 838 498 820 498 c 0
 804 498 783 505 764 513 c 0
 737 523 713 528 674 528 c 0
 566 528 459 509 324 480 c 0
 225 460 129 443 109 443 c 0
 88 443 47 458 47 479 c 0
 47 484 50 490 55 495 c 0
 62 502 136 518 220 530 c 0
 415 559 431 577 631 590 c 0
132 582 m 0
 95 582 58 594 58 619 c 0
 58 629 65 641 74 648 c 0
 81 654 155 664 235 669 c 0
 315 673 465 691 567 707 c 0
 669 724 766 742 781 748 c 0
 796 754 826 759 847 759 c 0
 848.109401705 759.027735043 849.195726433 759.041623899 850.259400877 759.041623899 c 0
 887.547008527 759.041623899 897 741.973803423 897 706 c 0
 897 681 882 675 847 675 c 0
 826 675 709 660 588 640 c 0
 467 620 310 599 238 590 c 0
 190 584 156 582 132 582 c 0
EndSplineSet
EndChar

StartChar: less
Encoding: 60 60 98
Width: 907
Flags: HW
LayerCount: 2
Fore
SplineSet
832 845 m 0
 815 845 780 850 761 850 c 0
 737 850 717 846 696 835 c 0
 676 825 275 575 275 548 c 0
 275 538 307 511 351 482 c 0
 449 418 586 347 685 291 c 0
 722 269 767 252 784 252 c 0
 822 252 855 233 855 196 c 0
 855 158 832 133 790 133 c 0
 776 133 765 139 747 152 c 0
 730 167 673 202 623 231 c 0
 573 260 453 331 356 387 c 0
 228 461 185 481 156 481 c 0
 140 481 126 477 108 477 c 0
 77 477 48 481 48 507 c 0
 48 513 49 521 51 531 c 0
 61 577 67 605 112 605 c 0
 122 605 135 603 146 603 c 0
 174 603 203 613 248 635 c 0
 348 688 593 856 691 913 c 0
 739 940 785 962 796 962 c 0
 798 962 800 962 801 962 c 0
 836 962 858 914 858 872 c 0
 858 852 858 845 832 845 c 0
EndSplineSet
EndChar

StartChar: greater
Encoding: 62 62 99
Width: 877
Flags: HW
LayerCount: 2
Fore
SplineSet
829 577 m 0
 829 542 806 522 771 522 c 0
 753 522 737 510 725 485 c 0
 712 458 696 448 673 448 c 0
 652 448 609 422 548 372 c 0
 434 280 306 160 190 77 c 0
 145 45 96 19 83 19 c 0
 59 19 48 28 48 42 c 0
 48 51 52 62 61 74 c 0
 72 90 114 126 154 153 c 0
 231 204 456 381 520 441 c 0
 541 461 559 484 559 493 c 0
 559 502 529 524 495 544 c 0
 416 587 231 689 148 728 c 0
 110 748 74 763 74 784 c 0
 74 805 97 829 111 829 c 0
 121 829 175 804 230 775 c 0
 286 747 356 707 387 689 c 0
 418 672 488 635 543 607 c 0
 604 577 628 566 647 566 c 0
 677 566 717 600 729 613 c 0
 739 624 757 632 772 632 c 0
 806 632 829 611 829 577 c 0
EndSplineSet
EndChar

StartChar: bar
Encoding: 124 124 100
Width: 267
VWidth: 2524
Flags: HW
LayerCount: 2
Fore
SplineSet
115 1448 m 0
 115 1491 103 1513 103 1547 c 0
 103 1579 117 1603 146 1603 c 0
 187 1603 219 1550 219 1505 c 0
 219 1482 208 1435 196 1402 c 0
 178 1359 170 1274 160 1114 c 0
 149 856 122 515 122 244 c 0
 122 199 124 141 124 104 c 0
 124 37 120 1 112 -7 c 0
 104 -15 85 -18 72 -16 c 0
 51 -12 48 1 48 168 c 0
 48 483 72 1089 109 1356 c 0
 113 1392 115 1423 115 1448 c 0
EndSplineSet
EndChar

StartChar: backslash
Encoding: 92 92 101
Width: 925
VWidth: 2352
Flags: HW
LayerCount: 2
Fore
SplineSet
48 1478 m 0
 48 1505 71 1528 99 1528 c 0
 110 1528 138 1502 159 1470 c 0
 181 1438 221 1374 247 1326 c 0
 374 1106 485 880 616 662 c 0
 708 509 763 397 809 229 c 0
 825 175 845 115 856 93 c 0
 868 71 877 42 877 29 c 0
 877 16 866 -1 851 -8 c 0
 831 -19 819 -18 796 -2 c 0
 774 11 767 27 767 59 c 0
 767 83 747 163 723 239 c 0
 677 379 613 519 550 618 c 0
 408 851 312 1064 161 1298 c 0
 111 1377 66 1444 59 1448 c 0
 53 1453 48 1466 48 1478 c 0
EndSplineSet
EndChar

StartChar: comma
Encoding: 44 44 102
Width: 399
Flags: HW
LayerCount: 2
Fore
SplineSet
106 -310 m 0
 79 -310 48 -291 48 -273 c 0
 48 -256 74 -241 109 -232 c 0
 197 -209 252 -176 252 -68 c 0
 252 -32 244 -31 213 -31 c 0
 186 -31 144 -14 144 8 c 0
 144 17 159 43 176 69 c 0
 199 104 208 113 238 113 c 0
 342 113 351 76 351 -30 c 0
 351 -135 325 -187 270 -242 c 0
 230 -282 174 -310 106 -310 c 0
EndSplineSet
EndChar

StartChar: semicolon
Encoding: 59 59 103
Width: 407
Flags: HW
LayerCount: 2
Fore
SplineSet
166 -212 m 0
 224 -212 269 -141 269 -81 c 0
 269 -44 266 -42 226 -42 c 0
 203 -42 183 -36 183 -30 c 0
 183 -23 191 2 200 25 c 0
 217 64 222 68 272 68 c 0
 346 68 358 46 358 -25 c 0
 358 -119 323 -214 269 -253 c 0
 245 -270 191 -284 144 -284 c 0
 98 -284 48 -264 48 -225 c 0
 48 -201 63 -192 82 -192 c 0
 108 -192 141 -212 166 -212 c 0
263 267 m 0
 217 267 209 281 209 327 c 0
 209 348 218 356 247 369 c 0
 269 379 294 386 301 387 c 0
 323 387 342 357 342 332 c 0
 342 293 306 267 263 267 c 0
EndSplineSet
EndChar

StartChar: asterisk
Encoding: 42 42 104
Width: 766
Flags: HW
LayerCount: 2
Fore
SplineSet
440 623 m 0
 440 605 441 582 441 565 c 0
 441 528 437 503 430 496 c 0
 423 489 407 485 397 489 c 0
 382 495 377 515 377 570 c 0
 377 581 377 593 377 603 c 0
 377 649 374 681 338 681 c 0
 323 681 281 649 236 602 c 0
 188 552 160 528 144 528 c 0
 129 528 120 548 120 561 c 0
 120 574 126 596 132 609 c 0
 143 630 141 632 110 632 c 0
 85 632 49 647 49 672 c 0
 49 710 91 715 169 726 c 0
 243 735 274 744 286 761 c 0
 295 773 299 787 297 792 c 0
 295 797 251 827 199 860 c 0
 143 898 107 930 107 943 c 0
 107 964 118 972 133 972 c 0
 147 972 166 965 183 956 c 0
 205 945 251 917 284 894 c 0
 314 873 335 862 346 862 c 0
 356 862 356 871 356 885 c 0
 356 917 346 972 346 1004 c 0
 346 1028 352 1049 370 1049 c 0
 403 1049 417 1007 425 973 c 0
 430 953 440 930 448 930 c 0
 456 930 480 951 500 981 c 0
 522 1012 547 1038 556 1042 c 0
 563 1044 568 1046 574 1046 c 0
 596 1046 616 1026 616 1002 c 0
 616 983 597 959 537 903 c 0
 489 860 451 818 451 809 c 0
 451 791 479 773 504 773 c 0
 520 773 541 777 571 786 c 0
 606 796 648 802 671 802 c 0
 695 802 718 790 718 775 c 0
 718 762 703 753 665 743 c 0
 634 734 610 724 610 719 c 0
 610 715 632 702 659 691 c 0
 701 674 708 666 708 635 c 0
 708 614 701 591 687 591 c 0
 656 591 481 689 452 689 c 0
 441 689 440 659 440 623 c 0
EndSplineSet
EndChar

StartChar: period
Encoding: 46 46 105
Width: 328
Flags: HW
LayerCount: 2
Fore
SplineSet
48 74 m 0
 48 110 124 187 161 187 c 0
 193 187 280 135 280 103 c 0
 280 69 223 30 198 18 c 0
 183 11 157 4 137 4 c 0
 94 4 48 32 48 74 c 0
EndSplineSet
EndChar

StartChar: colon
Encoding: 58 58 106
Width: 352
Flags: HW
LayerCount: 2
Fore
SplineSet
138 173 m 0
 208 173 304 156 304 98 c 0
 304 52 275 35 243 12 c 0
 227 1 190 -8 161 -8 c 0
 94 -8 72 28 72 92 c 0
 72 141 91 173 138 173 c 0
48 449 m 1
 48 531 143 586 229 586 c 0
 269 586 290 571 290 526 c 0
 290 479 267 443 237 409 c 0
 205 374 193 367 157 367 c 0
 80 367 52 383 48 449 c 1
EndSplineSet
EndChar

StartChar: hyphen
Encoding: 45 45 107
Width: 489
Flags: HW
LayerCount: 2
Fore
SplineSet
384 430 m 0
 426 430 442 406 442 366 c 0
 442 332.385019446 426.375766077 314.952281169 399.295618226 314.952281169 c 0
 390.12387382 314.952281169 379.638019878 316.951993086 368 321 c 0
 351 328 280 334 211 334 c 0
 111 334 80 337 64 353 c 0
 53 364 46 382 48 393 c 0
 52 409 75 414 180 420 c 0
 266 425 337 430 384 430 c 0
EndSplineSet
EndChar

StartChar: endash
Encoding: 8211 8211 108
Width: 740
Flags: HW
LayerCount: 2
Fore
SplineSet
692 421 m 0
 692 386 663 353 628 353 c 0
 618 353 607 355 594 359 c 0
 572 366 450 373 322 373 c 0
 132 373 87 376 70 392 c 0
 58 402 48 416 48 425 c 0
 48 432 54 445 61 452 c 0
 70 461 174 465 371 466 c 0
 616 466 670 464 682 449 c 0
 689 441 692 431 692 421 c 0
EndSplineSet
EndChar

StartChar: numbersign
Encoding: 35 35 109
Width: 1474
VWidth: 2679
Flags: HW
LayerCount: 2
Fore
SplineSet
814 910 m 0
 814 937.654545455 805.955041322 941.677024793 783.803978963 941.677024793 c 0
 774.716363636 941.677024793 763.254545455 941 749 941 c 0
 729 941 705 940 680 939 c 0
 574 934 575 934 559 880 c 0
 552 850 543 821 543 814 c 0
 543 811 560 809 586 809 c 0
 637 809 788 823 795 832 c 0
 801 837 814 880 814 910 c 0
162 884 m 0
 136 884 117 900 117 920 c 0
 117 934 125 954 136 961 c 0
 162 987 399 1024 453 1024 c 0
 511 1024 511 1025 535 1128 c 0
 548 1186 568 1279 581 1338 c 0
 594 1396 615 1457 626 1473 c 0
 638 1489 646 1520 646 1542 c 0
 646 1576 653 1598 677 1598 c 0
 692 1598 725 1552 725 1524 c 0
 725 1499 715 1460 691 1376 c 0
 666 1292 635 1188 622 1144 c 0
 612 1109 607 1088 607 1074 c 0
 607 1037 639 1034 691 1034 c 0
 707 1034 726 1034 747 1036 c 0
 853 1042 853 1042 873 1119 c 0
 885 1160 908 1246 926 1311 c 0
 944 1376 965 1440 976 1452 c 0
 996 1472 1034 1569 1072 1569 c 0
 1088 1569 1109 1556 1109 1538 c 0
 1109 1521 1098 1487 1083 1454 c 0
 1041 1371 996 1239 973 1142 c 0
 966.6 1114 963.4 1086 963.4 1072.848 c 0
 963.4 1069.56 963.6 1067.2 964 1066 c 0
 967 1062 996 1060 1038 1060 c 0
 1093 1060 1200 1067 1247 1067 c 0
 1299 1067 1323 1061 1348 1048 c 0
 1395 1025 1426 996 1426 938 c 0
 1426 919 1417 907 1401 907 c 0
 1388 907 1359 924 1335 946 c 0
 1310 970 1300 979 1251 979 c 0
 1195 979 925 954 919 948 c 0
 914 943 890 886 890 854 c 0
 890 834 896 831 922 831 c 0
 974 831 1157 859 1215 859 c 0
 1251.32014344 859 1262.52851399 851.152570971 1262.52851399 815.992949637 c 0
 1262.52851399 811.462626548 1262.34242853 806.478856457 1262 801 c 0
 1257 753 1257 752 1125 751 c 0
 1053 750 964 744 929 738 c 0
 889 732 862 717 851 698 c 0
 815 632 777 452 757 360 c 0
 751 325 747 297 747 278 c 0
 747 240 761 250 761 208 c 0
 761 132 712 -18 642 -18 c 0
 615 -18 607 2 607 29 c 0
 607 49 611 73 617 96 c 0
 628 143 753 634 753 711 c 0
 753 722 743 721 726 721 c 0
 666 721 525 696 520 694 c 0
 503 689 475 562 475 520 c 0
 475 484 498 443 498 411 c 0
 498 368 444 295 413 291 c 0
 410.46875 290.71875 408.025390625 290.578125 405.675689697 290.578125 c 0
 382.961914062 290.578125 369 303.71875 369 330 c 0
 369 401 411 638 411 661 c 0
 411 683 393 686 243 686 c 0
 119 686 71 692 59 706 c 0
 51 717 45 736 50 748 c 0
 67 789 265 789 338 789 c 0
 445 789 462 793 472 870 c 0
 472.439257405 875.856765395 472.685567742 881.048935336 472.685567742 885.645568171 c 0
 472.685567742 912.44259736 464.314587684 919 437 919 c 0
 390 919 222 884 162 884 c 0
EndSplineSet
EndChar

StartChar: plus
Encoding: 43 43 110
Width: 747
Flags: HW
LayerCount: 2
Fore
SplineSet
262 409 m 0
 262 427 264 462 264 481 c 0
 264 528 251 528 170 529 c 0
 92 530 69 535 57 553 c 0
 46 568 45 581 54 597 c 0
 64 615 83 621 173 623 c 0
 280 627 280 626 281 718 c 0
 281 768 282 817 283 826 c 0
 284 833 297 841 309 841 c 0
 322 841 342 829 352 814 c 0
 364 797 371 760 371 713 c 0
 371 661 371 646 413 646 c 0
 477 646 603 662 648 662 c 0
 680 662 685 657 695 623 c 0
 698 613 699 604 699 596 c 0
 699 576 690 564 671 564 c 0
 664 564 656 566 647 569 c 0
 632 575 607 577 580 577 c 0
 520 577 446 566 415 558 c 0
 367 544 350 539 350 499 c 0
 350 480 357 432 357 409 c 0
 357 382 352 369 337 350 c 0
 324 334 318 326 311 326 c 0
 305 326 298 332 285 344 c 0
 268 360 262 372 262 409 c 0
EndSplineSet
EndChar

StartChar: asciitilde
Encoding: 126 126 111
Width: 852
Flags: HW
LayerCount: 2
Fore
SplineSet
91 352 m 0
 63 352 48 386 48 419 c 0
 48 452 61 474 101 518 c 0
 157 579 193 608 294 608 c 0
 343 608 368 600 399 577 c 0
 420 561 450 528 465 505 c 0
 480 479 503 454 525 454 c 0
 541 454 567 462 594 478 c 0
 623 496 673 540 705 577 c 0
 738 614 771 645 780 645 c 0
 790 645 804 634 804 621 c 0
 804 607 794 579 780 551 c 0
 732 459 658 402 551 374 c 0
 541 372 531 371 521 371 c 0
 504 371 488 374 471 382 c 0
 451 392 419 424 398 455 c 0
 378 484 350 514 335 523 c 0
 321 530 308 532 294 532 c 0
 224 532 142 454 129 399 c 0
 125 374 111 352 91 352 c 0
EndSplineSet
EndChar

StartChar: quotedbl
Encoding: 34 34 112
Width: 641
Flags: HW
LayerCount: 2
Fore
SplineSet
102 873 m 0
 71 873 48 890 48 920 c 0
 48 930 61 948 78 959 c 0
 118 988 166 1031 184 1083 c 0
 189 1097 191 1107 191 1114 c 0
 191 1126 184 1133 166 1147 c 0
 146 1163 139 1171 139 1190 c 0
 139 1199 141 1210 143 1226 c 0
 150 1272 148 1312 184 1312 c 0
 195 1312 214 1301 228 1287 c 0
 251 1261 293 1194 293 1145 c 0
 293 1105 278 1052 267 1025 c 0
 253 993 142 873 102 873 c 0
431 1268 m 0
 431 1301 451 1320 483 1320 c 0
 515 1320 548 1300 566 1282 c 0
 589 1259 593 1249 593 1177 c 0
 593 1032 573 934 500 873 c 0
 474 852 460 843 442 843 c 0
 382 843 319 904 298 948 c 0
 290.967253999 962.435636529 287.222675287 976.323245176 287.222675287 988.090742156 c 0
 287.222675287 1008.11487288 298.065492002 1022 322 1022 c 0
 336 1022 350 1014 357 1001 c 0
 364 990 379 970 393 955 c 0
 405.209229065 942.790770935 416.271587 937.462768647 426.229179289 937.462768647 c 0
 475.808862715 937.462768647 498 1069.55072505 498 1142 c 0
 498 1172 490 1181 465 1204 c 0
 442 1225 431 1248 431 1268 c 0
EndSplineSet
EndChar

StartChar: quotesingle
Encoding: 39 39 113
Width: 228
Flags: HW
LayerCount: 2
Fore
SplineSet
63 1064 m 0
 63 1085 48 1202 48 1236 c 0
 48 1250 51 1255 58 1255 c 0
 82 1255 102 1239 119 1218 c 0
 137 1193 142 1164 148 1082 c 0
 151 1019 159 970 169 959 c 0
 176 950 180 941 180 934 c 0
 180 917 162 907 131 907 c 0
 93 907 49 930 49 967 c 0
 49 994 63 1042 63 1064 c 0
EndSplineSet
EndChar

StartChar: at
Encoding: 64 64 114
Width: 1134
VWidth: 1826
Flags: HW
LayerCount: 2
Fore
SplineSet
514 453 m 0
 514 485 496 499 466 499 c 0
 402 499 364 443 364 374 c 0
 364 322 378 274 422 274 c 0
 466 274 468 282 494 364 c 0
 508 408 514 434 514 453 c 0
605 533 m 0
 624 533 652 496 652 472 c 0
 652 461 649 448 644 429 c 0
 636 402 613 348 592 307 c 0
 571 267 554 221 554 204 c 0
 554 171 585 137 615 137 c 0
 625 137 650 144 670 153 c 0
 690 161 728 188 753 213 c 0
 809 267 848 368 848 476 c 0
 845 573 828 620 786 676 c 0
 769 699 739 726 719 738 c 0
 696 753 667 759 621 759 c 0
 617 759 614 759 610 759 c 0
 569 759 526 752 514 745 c 0
 502 737 466 714 434 694 c 0
 398 671 350 624 308 570 c 0
 233 471 199 428 152 323 c 0
 135 285 124 238 124 206 c 0
 124 130 151 111 200 79 c 0
 238 56 256 53 375 53 c 0
 445 53 515 54 515 62 c 0
 515 69 502 96 484 125 c 0
 460 162 436 184 418 189 c 0
 363 197 336 209 308 256 c 0
 289 290 282 320 282 373 c 0
 282 462 302 498 350 537 c 0
 381 564 439 590 487 590 c 0
 509 590 584 533 605 533 c 0
631 838 m 0
 751 838 838 742 883 656 c 0
 909 603 925 530 925 456 c 0
 925 366 897 275 864 219 c 0
 848 193 836 166 840 166 c 0
 846 166 873 177 905 193 c 0
 939 210 986 234 1010 248 c 0
 1034 260 1061 268 1070 265 c 0
 1079 262 1086 252 1086 244 c 0
 1086 235 1061 212 1032 193 c 0
 943 140 765 53 650 16 c 0
 561 -11 529 -14 390 -15 c 0
 235 -15 230 -14 170 19 c 0
 97 60 48 111 48 196 c 0
 48 220 52 247 60 277 c 0
 89 372 166 496 220 573 c 0
 301 684 407 804 565 829 c 0
 593 832 623 837 631 838 c 0
EndSplineSet
EndChar

StartChar: asciicircum
Encoding: 94 94 115
Width: 681
Flags: HW
LayerCount: 2
Fore
SplineSet
443 1400 m 0
 454 1400 475 1389 490 1374 c 0
 505 1358 524 1317 536 1265 c 0
 547 1219 575 1130 595 1070 c 0
 616 1010 633 950 633 936 c 0
 633 915 602 892 576 892 c 0
 552 892 542 912 533 939 c 0
 521 981 466 1172 450 1211 c 0
 443 1228 432 1241 425 1239 c 0
 418 1237 398 1215 381 1190 c 0
 338 1134 208 939 160 889 c 0
 133 860 109 846 89 846 c 0
 66 846 48 858 48 879 c 0
 48 897 59 913 73 918 c 0
 81 920 118 963 154 1012 c 0
 191 1061 267 1168 322 1251 c 0
 391 1355 428 1400 443 1400 c 0
EndSplineSet
EndChar

StartChar: underscore
Encoding: 95 95 116
Width: 740
Flags: HW
LayerCount: 2
Fore
SplineSet
692 64 m 0
 692 34 643 9 612 9 c 0
 596 9 576 15 569 23 c 0
 559 32 519 37 445 37 c 0
 385 36 284 33 222 27 c 0
 190 25 165 24 146 24 c 0
 112 24 94 27 81 34 c 0
 65 43 48 68 48 90 c 0
 48 103 54 114 68 120 c 0
 78 124 177 126 300 126 c 0
 325 126 350 126 376 126 c 0
 641 126 662 124 676 105 c 0
 685 94 692 74 692 64 c 0
EndSplineSet
EndChar

StartChar: grave
Encoding: 96 96 117
Width: 396
Flags: HW
LayerCount: 2
Fore
SplineSet
132 1024 m 0
 85 1030 48 1082 48 1136 c 0
 48 1186 75 1240 99 1280 c 0
 136 1340 244 1496 292 1539 c 0
 306 1549 323 1558 332 1558 c 0
 341 1558 348 1548 348 1534 c 0
 348 1510 202 1279 198 1261 c 0
 197 1252 205 1234 220 1219 c 0
 236 1203 245 1181 245 1156 c 0
 245 1125 236 1106 198 1070 c 0
 171 1045 141 1024 132 1024 c 0
EndSplineSet
EndChar

StartChar: periodcentered
Encoding: 183 183 118
Width: 249
Flags: HW
LayerCount: 2
Fore
SplineSet
180 765 m 0
 199 763 202 756 200 717 c 0
 195 656 146 610 85 610 c 0
 62 610 48 620 48 646 c 0
 48 685 95 749 128 758 c 0
 144 763 167 766 180 765 c 0
EndSplineSet
EndChar

StartChar: guillemotleft
Encoding: 171 171 119
Width: 1121
Flags: HW
LayerCount: 2
Fore
SplineSet
1000 851 m 0
 1024 851 1072 823 1072 798 c 0
 1072 774 1028 761 980 751 c 0
 940 743 864 715 812 688 c 0
 760 661 710 633 703 624 c 0
 698 618 696 612 696 607 c 0
 696 586 732 572 753 568 c 0
 792 559 885 508 904 480 c 0
 911 470 913 452 908 440 c 0
 902 424 892 422 858 427 c 0
 787 441 648 514 594 550 c 0
 552 579 542 593 542 620 c 0
 542 650 548 655 591 667 c 0
 618 674 660 693 687 712 c 0
 754 758 820 790 905 823 c 0
 944 838 987 850 1000 851 c 0
48 616 m 0
 48 638 72 654 95 654 c 0
 108 654 170 675 230 702 c 0
 290 727 412 787 501 833 c 0
 590 879 679 918 699 918 c 0
 701 918 703 918 705 918 c 0
 734 918 759 905 759 878 c 0
 759 826 658 800 611 785 c 0
 544 764 397 689 343 656 c 0
 319 641 299 625 299 620 c 0
 299 614 327 589 359 562 c 0
 393 535 453 496 492 473 c 0
 532 451 569 428 572 422 c 0
 575 415 575 397 572 381 c 0
 567 362 557 354 540 354 c 0
 526 354 458 389 387 433 c 0
 316 478 235 525 206 538 c 0
 177 551 145 562 135 562 c 0
 106 562 48 585 48 616 c 0
EndSplineSet
EndChar

StartChar: guillemotright
Encoding: 187 187 120
Width: 832
Flags: HW
LayerCount: 2
Fore
SplineSet
52 741 m 0
 52 761 74 782 87 782 c 0
 97 782 120 773 136 760 c 0
 211 710 355 658 450 631 c 0
 473 625 479 616 479 585 c 0
 479 550 475 545 445 539 c 0
 363 520 264 452 201 393 c 0
 163 358 122 331 108 331 c 0
 88 331 48 358 48 384 c 0
 48 402 66 415 86 425 c 0
 102 432 115 443 115 449 c 0
 115 454 121 458 128 458 c 0
 136 458 176 486 220 518 c 0
 269 556 289 574 289 585 c 0
 289 600 235 619 191 638 c 0
 147 657 97 686 78 703 c 0
 59 721 52 731 52 741 c 0
254 879 m 0
 254 903 269 909 297 909 c 0
 312 909 343 900 367 887 c 0
 421 860 667 782 728 760 c 0
 762 747 784 733 784 717 c 0
 784 702 761 660 727 615 c 0
 693 572 605 474 529 399 c 0
 434 303 385 261 366 261 c 0
 335 261 312 280 312 310 c 0
 312 322 325 338 344 347 c 0
 397 375 502 488 543 533 c 0
 565 558 598 600 617 624 c 0
 634 647 643 664 643 676 c 0
 643 680 642 683 640 686 c 0
 627 707 392 782 357 782 c 0
 336 782 314 795 290 822 c 0
 270 845 254 871 254 879 c 0
EndSplineSet
EndChar

StartChar: onequarter
Encoding: 188 188 121
Width: 1656
VWidth: 2523
Flags: HW
LayerCount: 2
Fore
SplineSet
1130 79 m 0
 1130 117 1140 256 1140 307 c 0
 1140 393 1118 394 1020 400 c 0
 950 404 877 417 857 427 c 0
 829 443 804 455 804 487 c 0
 804 495 806 503 809 514 c 0
 822 571 990 848 1020 890 c 0
 1045 921 1067 938 1092 938 c 0
 1113 938 1138 927 1138 911 c 0
 1138 896 1123 863 1100 834 c 0
 1074 803 1053 772 1053 768 c 0
 1053 758 928 547 928 523 c 0
 928 508 972 502 1044 502 c 0
 1153 502 1154 502 1174 609 c 0
 1186 667 1203 726 1215 738 c 0
 1227 750 1249 758 1262 755 c 0
 1278 752 1283 738 1283 683 c 0
 1283 659 1281 613 1281 588 c 0
 1281 528 1293 518 1368 518 c 0
 1398 518 1451 520 1483 520 c 0
 1552 520 1588 515 1598 505 c 0
 1611 492 1612 479 1600 459 c 0
 1587 439 1553 432 1429 423 c 0
 1343 417 1268 406 1260 398 c 0
 1251 389 1239 297 1236 193 c 0
 1232 58 1226 1 1210 -11 c 0
 1193 -24 1182 -23 1157 -1 c 0
 1138 17 1130 27 1130 79 c 0
1188 1432 m 0
 1208 1432 1216 1384 1216 1345 c 0
 1216 1309 1208 1301 1174 1284 c 0
 1149 1272 1019 1154 885 1020 c 0
 750 887 580 729 507 669 c 0
 433 607 374 567 357 567 c 0
 342 567 332 592 333 610 c 0
 333 635 372 676 455 749 c 0
 521 807 708 986 870 1146 c 0
 1041 1312 1174 1432 1188 1432 c 0
622 1522 m 0
 653 1522 660 1481 660 1410 c 0
 660 1313 621 1207 602 1137 c 0
 599 1126 597 1112 597 1098 c 0
 597 1076 601 1053 607 1034 c 0
 611.281718184 1019.89551657 613.406599826 1007.05976052 613.406599826 995.748371044 c 0
 613.406599826 962.14937344 594.658576998 942 558 942 c 0
 510 942 471 979 471 1030 c 0
 471 1065 525 1286 525 1317 c 0
 525 1321 525 1322 522 1322 c 0
 511 1322 458 1287 402 1241 c 0
 338 1190 258 1136 222 1119 c 0
 186 1102 141 1089 120 1089 c 0
 91 1089 48 1107 48 1137 c 0
 48 1168 82 1188 113 1190 c 0
 138 1193 191 1219 235 1246 c 0
 277 1273 377 1348 454 1412 c 0
 541 1483 601 1522 622 1522 c 0
EndSplineSet
EndChar

StartChar: onehalf
Encoding: 189 189 122
Width: 1813
VWidth: 2831
Flags: HW
LayerCount: 2
Fore
SplineSet
1323 765 m 1
 1379 765 1412 708 1412 639 c 0
 1412 600 1397 537 1377 495 c 0
 1359 456 1289 357 1221 277 c 0
 1155 197 1101 125 1101 115 c 0
 1101 109.100251258 1108.65754775 105.636994981 1123.97264325 105.636994981 c 0
 1134.61644221 105.636994981 1148.95889447 107.309773868 1167 111 c 0
 1193 117 1437 132 1603 132 c 0
 1614.33333333 132 1625.67901235 132.049382716 1636.81344307 132.049382716 c 0
 1705.56763235 132.049382716 1766.26700816 130.166439306 1766.26700816 103.146512685 c 0
 1766.26700816 95.1603977123 1760.96443082 84.9783656377 1749 72 c 0
 1731 57 1675 42 1606 34 c 0
 1515 28 1149 -22 1029 -22 c 0
 989 -22 974 -16 954 -3 c 0
 930 12 910 33 910 42 c 0
 910 52 974 138 1054 232 c 0
 1132 326 1216 442 1242 487 c 0
 1268 532 1288 587 1288 609 c 0
 1290 630 1283 646 1274 646 c 0
 1220 646 1135 591 1102 553 c 0
 1078 529 1047 508 1029 508 c 0
 1007 508 998 522 998 558 c 0
 998 630 1110 713 1173 729 c 1
 1230 749 1269 759 1323 765 c 1
349 339 m 0
 312 339 294 362 294 383 c 0
 294 403 308 424 332 439 c 0
 444 508 516 562 642 682 c 0
 718 752 870 921 981 1056 c 0
 1093 1191 1226 1339 1276 1387 c 0
 1321 1431 1368 1473 1401 1473 c 0
 1430 1473 1444 1431 1444 1376 c 0
 1444 1341 1433 1332 1386 1312 c 0
 1352 1297 1296 1255 1263 1221 c 0
 1230 1185 1160 1096 1106 1026 c 0
 974 856 698 570 526 438 c 0
 429 365 382 339 349 339 c 0
748 948 m 0
 748 919 754 881 754 858 c 0
 754 829 747 818 728 811 c 0
 723.873678542 809.231576518 719.515703631 808.351157938 714.918488944 808.351157938 c 0
 696.119196746 808.351157938 673.319289067 823.073693929 646 852 c 0
 619 879 607 892 607 924 c 0
 607 955 619 1005 642 1102 c 0
 666 1205 683 1297 683 1318 c 0
 683 1321 683 1323 680 1323 c 0
 668 1323 610 1283 540 1228 c 0
 464 1168 361 1098 315 1074 c 0
 249 1041 196 1017 132 1017 c 0
 86 1017 48 1035 48 1075 c 0
 48 1119 94 1129 136 1129 c 0
 156 1129 208 1149 254 1173 c 0
 352 1219 568 1396 652 1453 c 0
 685 1474 729 1492 750 1492 c 0
 806 1492 825 1433 825 1375 c 0
 825 1348 805 1250 783 1158 c 0
 758 1067 748 1000 748 948 c 0
EndSplineSet
EndChar

StartChar: threequarters
Encoding: 190 190 123
Width: 1484
VWidth: 2415
Flags: HW
LayerCount: 2
Fore
SplineSet
1063 508 m 0
 1063 501 1063 500 1069 500 c 0
 1122 500 1329 558 1357 573 c 0
 1373 582 1390 587 1404 587 c 0
 1423 587 1436 577 1436 551 c 0
 1436 534 1421 512 1403 501 c 0
 1365 475 1162 424 1106 414 c 0
 1072 408 1056 396 1045 370 c 0
 1037 351 1027 257 1021 161 c 0
 1013 -5 1012 -14 983 -18 c 0
 965 -20 946 -12 938 5 c 0
 930 21 928 36 930 38 c 1
 930 38 939 169 939 240 c 0
 939 361 928 362 810 363 c 0
 714 363 667 370 635 387 c 0
 610 401 589 420 589 432 c 0
 589 443 602 480 619 512 c 0
 635 544 686 635 732 714 c 0
 788 810 836 873 872 899 c 0
 901 921 936 935 948 935 c 0
 949 935 l 0
 961 933 976 920 976 904 c 0
 976 887 953 850 913 809 c 0
 876 768 816 685 780 623 c 0
 744 561 714 496 714 480 c 0
 714 461 715 455 747 455 c 0
 783 455 947 472 953 474 c 0
 957 476 965 519 971 566 c 0
 979 642 979 702 1040 702 c 0
 1067 702 1084 697 1084 673 c 0
 1084 639 1063 538 1063 508 c 0
991 1385 m 0
 1007 1396 1022 1402 1033 1402 c 0
 1049 1402 1059 1391 1059 1363 c 0
 1059 1311 1039 1295 943 1218 c 0
 882 1168 719 1022 580 890 c 0
 441 758 286 617 234 579 c 0
 182 541 130 508 118 508 c 0
 96 508 71 522 71 543 c 0
 71 550 74 558 80 566 c 0
 88 577 131 612 173 642 c 0
 293 730 430 859 542 971 c 0
 595 1025 711 1137 799 1217 c 0
 887 1297 973 1374 991 1385 c 0
361 1391 m 0
 361 1404 345 1406 327 1406 c 0
 280 1406 199 1383 187 1379 c 0
 168 1372 138 1354 121 1338 c 0
 106 1324 91 1317 79 1317 c 0
 61 1317 48 1333 48 1367 c 0
 48 1437 124 1457 191 1474 c 0
 232 1484 290 1492 325 1492 c 0
 409 1492 467 1469 467 1403 c 0
 467 1352 434 1292 410 1266 c 0
 393 1249 382 1230 382 1222 c 0
 382 1215 404 1191 430 1167 c 0
 475 1128 483 1115 483 1060 c 0
 483 1010 468 980 426 938 c 0
 384 896 342 871 285 871 c 0
 260 871 233 876 202 886 c 0
 148 902 133 911 133 950 c 0
 133 985 158 1007 193 1007 c 0
 211 1007 228 998 234 987 c 0
 238 976 258 966 281 966 c 0
 337 966 375 999 375 1057 c 0
 375 1127 270 1126 270 1199 c 0
 270 1218 292 1266 320 1307 c 0
 344 1342 361 1377 361 1391 c 0
EndSplineSet
EndChar

StartChar: quotesinglbase
Encoding: 8218 8218 124
Width: 354
Flags: HW
LayerCount: 2
Fore
SplineSet
195 426 m 0
 253 426 306 417 306 367 c 0
 306 353 293 310 276 273 c 0
 241 190 205 117 174 36 c 0
 158 -9 146 -19 114 -31 c 0
 99 -36 85 -40 73 -40 c 0
 58 -40 48 -34 48 -17 c 0
 48 7 63 30 78 47 c 0
 94 65 156 202 156 234 c 0
 156 241 146 246 134 246 c 0
 99 246 76 279 76 316 c 0
 76 390 121 426 195 426 c 0
EndSplineSet
EndChar

StartChar: quoteleft
Encoding: 8216 8216 125
Width: 480
Flags: HW
LayerCount: 2
Fore
SplineSet
209 1152 m 0
 209 1138 221 1123 226 1123 c 0
 242 1123 262 1060 262 1043 c 0
 262 1006 181 977 141 977 c 0
 123 977 110 986 82 1014 c 0
 58 1037 48 1047 48 1061 c 0
 48 1072 54 1085 65 1107 c 0
 106 1189 237 1378 294 1452 c 0
 324 1490 356 1524 365 1526 c 0
 374 1529 392 1527 405 1524 c 0
 423 1517 432 1496 432 1468 c 0
 432 1448 423 1440 391 1421 c 0
 333 1388 259 1275 228 1215 c 0
 216 1192 209 1167 209 1152 c 0
EndSplineSet
EndChar

StartChar: quotedblbase
Encoding: 8222 8222 126
Width: 536
Flags: HW
LayerCount: 2
Fore
SplineSet
152 321 m 0
 152 348 71 407 71 433 c 0
 71 443 81 469 94 490 c 0
 111 519 125 527 152 527 c 0
 225 527 265 475 265 401 c 0
 265 391 265 380 263 369 c 0
 249 273 222 229 181 140 c 0
 160 96 141 47 136 33 c 0
 129 11 107 -3 79 -3 c 0
 54 -3 48 15 48 51 c 0
 48 76 59 111 75 134 c 0
 98 167 152 273 152 321 c 0
381 328 m 0
 381 360 352 382 352 416 c 0
 352 426 354 439 356 454 c 0
 362 504 367 539 409 539 c 0
 421 539 444 525 459 509 c 0
 484 482 488 467 488 395 c 0
 488 337 479 289 459 232 c 0
 443 188 430 136 430 116 c 0
 430 97 420 69 407 53 c 0
 394 37 384 18 384 10 c 0
 384 -5 365 -12 345 -12 c 0
 317 -12 291 5 291 29 c 0
 291 55 336 182 348 196 c 0
 356 205 381 298 381 328 c 0
EndSplineSet
EndChar

StartChar: quotedblleft
Encoding: 8220 8220 127
Width: 715
Flags: HW
LayerCount: 2
Fore
SplineSet
607 1579 m 0
 637 1579 667 1572 667 1555 c 0
 667 1544 643 1510 608 1478 c 0
 573 1445 537 1397 525 1373 c 0
 515 1351 510 1340 510 1330 c 0
 510 1320 515 1313 524 1300 c 0
 534 1284 543 1262 543 1250 c 0
 541 1225 443 1178 414 1178 c 0
 396 1178 365 1209 365 1234 c 0
 365 1252 378 1280 414 1354 c 0
 450 1425 493 1493 525 1526 c 0
 566 1568 579 1579 607 1579 c 0
133 1158 m 0
 90 1158 48 1215 48 1259 c 0
 48 1282 59 1301 88 1324 c 0
 110 1341 129 1359 129 1364 c 0
 129 1369 151 1409 180 1453 c 0
 209 1497 246 1543 262 1556 c 0
 279 1570 300 1580 308 1580 c 0
 326 1580 355 1542 355 1517 c 0
 355 1488 331 1465 305 1452 c 0
 258 1432 209 1330 209 1264 c 0
 209 1198 204 1188 165 1167 c 0
 154 1160 143 1158 133 1158 c 0
EndSplineSet
EndChar

StartChar: ellipsis
Encoding: 8230 8230 128
Width: 833
Flags: HW
LayerCount: 2
Fore
SplineSet
630 400 m 0
 630 433 676 471 708 471 c 0
 741 471 785 433 785 398 c 0
 785 361 739 299 702 299 c 0
 661 299 630 358 630 400 c 0
48 390 m 0
 48 430 118 471 157 471 c 0
 191 471 262 431 262 399 c 0
 262 362 170 322 129 322 c 0
 95 322 48 355 48 390 c 0
414 322 m 0
 376 322 330 356 330 391 c 0
 330 425 361 445 387 464 c 0
 402 474 424 482 433 482 c 0
 443 482 462 475 473 466 c 0
 489 455 496 436 496 402 c 0
 496 342 470 322 414 322 c 0
EndSplineSet
EndChar

StartChar: Euro
Encoding: 8364 8364 129
Width: 1647
VWidth: 2881
Flags: HW
LayerCount: 2
Fore
SplineSet
297 356 m 0
 258 356 173 353 136 353 c 0
 64 353 53 361 49 384 c 0
 46 402 49 424 60 435 c 0
 70 445 145 462 230 473 c 0
 384 495 384 496 395 563 c 0
 397.461538462 578.384615385 398.692307692 590.928994083 398.692307692 601.157487483 c 0
 398.692307692 624.171597633 392.461538462 635.461538462 380 641 c 0
 366 646 309 651 256 651 c 0
 183 651 145 660 145 690 c 0
 145 703 152 719 166 740 c 0
 190 774 213 779 328 779 c 0
 462 779 461 779 496 857 c 0
 544 967 729 1241 817 1313 c 0
 924 1398 1071 1500 1209 1556 c 0
 1270 1582 1336 1603 1360 1603 c 0
 1416 1603 1473 1579 1473 1523 c 0
 1473 1464 1373 1424 1300 1424 c 0
 1282 1424 1265 1428 1248 1428 c 0
 1209 1428 1171 1411 1092 1363 c 0
 929 1265 878 1233 766 1084 c 0
 720 1022 669 940 648 902 c 0
 631.268557326 870.130585383 619.615412592 839.53074525 619.615412592 825.878960418 c 0
 619.615412592 822.396091231 620.373882923 820.016323173 622 819 c 0
 623 818 629 817 638 817 c 0
 664 817 716 822 774 830 c 0
 851 843 1024 867 1158 883 c 0
 1269 897 1331 903 1368 903 c 0
 1404 903 1419 897 1432 884 c 0
 1443.39677745 872.603222552 1449.22149935 865.049242033 1449.22149935 857.21117466 c 0
 1449.22149935 847.167893323 1439.6581842 836.658184205 1420 817 c 0
 1391 788 1359 779 1281 779 c 0
 1103 779 924 729 750 697 c 0
 659 681 573 660 560 652 c 0
 547 642 536 610 534 576 c 0
 533.777777778 571.333333333 533.666666667 566.975308642 533.666666667 562.919067215 c 0
 533.666666667 533.181900653 539.638519118 519.664580256 551.582224022 519.664580256 c 0
 552.671785221 519.664580256 553.81104388 519.777070728 555 520 c 0
 616 528 1086 585 1142 595 c 0
 1195 606 1236 627 1265 662 c 0
 1288 691 1298 704 1309 704 c 0
 1318 704 1327 695 1344 678 c 0
 1368 654 1394 612 1394 574 c 0
 1394 554 1387 535 1369 520 c 0
 1345 499 1224 475 942 440 c 0
 726 414 537 383 524 372 c 0
 512 361 507 344 507 323 c 0
 507 269 540 196 555 171 c 0
 592 107 686 86 799 86 c 0
 838 86 879 88 920 92 c 0
 1008 100 1161 117 1262 131 c 0
 1363 144 1481 156 1524 156 c 0
 1585 156 1599 154 1599 131 c 0
 1599 84 1582 75 1520 64 c 0
 1480 56 1327 33 1185 11 c 0
 1035 -13 919 -24 819 -24 c 0
 800 -24 781 -24 763 -23 c 0
 646 -18 582 -7 539 20 c 0
 453 70 416 144 398 267 c 0
 389 343 387 356 297 356 c 0
EndSplineSet
EndChar

StartChar: uniFB00
Encoding: 64256 64256 130
Width: 1197
VWidth: 2312
Flags: HW
LayerCount: 2
Fore
SplineSet
430 192 m 0
 430 168 512 64 523 64 c 0
 529 64 534 79 534 99 c 0
 534 106 546 198 546 244 c 0
 546 260 545 270 541 270 c 0
 533 270 502 255 472 234 c 0
 444 215 430 206 430 192 c 0
316 892 m 0
 316 884 317 880 323 880 c 0
 348 880 430 999 447 1022 c 0
 472 1057 516 1138 542 1200 c 0
 569 1258 585 1311 585 1323 c 0
 585 1331 572 1336 567 1336 c 0
 537 1336 474 1274 456 1254 c 0
 403 1196 361 1093 335 992 c 0
 324 950 316 911 316 892 c 0
135 -380 m 0
 100 -380 82 -356 82 -313 c 0
 82 -290 85 -258 91 -211 c 0
 101 -139 110 -4 110 92 c 0
 111 125 111 152 111 174 c 0
 111 266 105 279 78 307 c 0
 60 327 52 343 52 357 c 0
 52 381 75 397 113 413 c 0
 165 434 165 434 165 552 c 0
 165 670 165 671 122 671 c 0
 83 671 48 691 48 727 c 0
 48 760 65 767 121 774 c 0
 186 782 185 781 203 879 c 0
 223 982 265 1141 305 1218 c 0
 340 1284 426 1380 498 1412 c 0
 530 1426 580 1439 610 1439 c 0
 650 1439 668 1433 681 1404 c 0
 689 1390 694 1372 694 1352 c 0
 694 1342 692 1331 690 1320 c 0
 670 1225 602 1091 554 1010 c 0
 528 966 456 879 395 818 c 0
 317 739 281 692 269 649 c 0
 260 617 253 559 253 520 c 0
 253 478 260 448 269 448 c 0
 278 448 313 468 348 491 c 0
 461 570 584 719 671 848 c 0
 718 917 767 1013 784 1060 c 0
 822 1169 865 1247 927 1331 c 0
 950 1365 991 1421 1014 1455 c 0
 1043 1491 1069 1513 1089 1513 c 0
 1116 1513 1149 1481 1149 1448 c 0
 1149 1429 1138 1403 1111 1349 c 0
 1034 1199 919 1053 836 892 c 0
 794 815 747 715 729 671 c 0
 723 654 685 529 685 481 c 0
 685 470 688 463 693 463 c 0
 699 463 735 474 771 484 c 0
 807 496 887 529 948 559 c 0
 1008 589 1076 617 1098 621 c 0
 1133 629 1141 624 1141 599 c 0
 1141 582 1123 558 1101 541 c 0
 1013 480 912 442 786 389 c 0
 670 340 659 333 641 280 c 0
 628 238 609 53 609 -25 c 0
 609 -73 618 -91 645 -135 c 0
 667 -173 676 -194 676 -212 c 0
 676 -248 648 -277 617 -277 c 0
 594 -277 571 -261 551 -235 c 0
 534 -212 500 -143 471 -82 c 0
 442 -21 392 61 360 104 c 0
 326 147 298 194 298 211 c 0
 298 228 321 256 347 276 c 0
 372 297 435 334 486 360 c 0
 572 406 577 414 594 480 c 0
 602 512 607 542 607 558 c 0
 607 563 606 568 603 568 c 0
 593 568 552 535 504 489 c 0
 451 438 369 375 320 352 c 0
 232 308 231 308 227 64 c 0
 226 -71 217 -216 209 -260 c 0
 197 -326 188 -380 135 -380 c 0
EndSplineSet
Ligature2: "liga" f f
EndChar

StartChar: uniFB01
Encoding: 64257 64257 131
Width: 1229
VWidth: 2425
Flags: HW
LayerCount: 2
Fore
SplineSet
1136 967 m 0
 1087 967 1049 1024 1049 1074 c 0
 1049 1111 1076 1138 1109 1138 c 0
 1159 1138 1176 1088 1179 1031 c 0
 1179.17116461 1026.37855554 1179.26176158 1022.07938164 1179.26176158 1018.08116597 c 0
 1179.26176158 975.361597213 1168.91903703 967 1136 967 c 0
689 1241 m 0
 719 1308 749 1366 749 1392 c 0
 749 1412 736 1420 719 1420 c 0
 699 1420 673 1409 661 1395 c 0
 627 1359 542 1111 532 1052 c 0
 529 1038 528 1027 528 1022 c 0
 528 1019 528 1018 530 1018 c 0
 535 1018 549 1033 580 1067 c 0
 612 1102 661 1181 689 1241 c 0
385 131 m 0
 385 -35 403 -233 403 -318 c 0
 403 -370 398 -375 369 -379 c 0
 366.484185769 -379.359402033 363.824849515 -379.532225435 361.063256923 -379.532225435 c 0
 340.773288819 -379.532225435 314.96338848 -370.202989835 300 -357 c 0
 276 -335 269 -308 269 -225 c 0
 269 7 161 207 77 357 c 0
 58 390 50 408 50 421 c 0
 50 432 56 439 69 452 c 0
 82.0909090909 465.090909091 90.4214876033 471.636363636 102.755071375 471.636363636 c 0
 113.033057851 471.636363636 126.090909091 467.090909091 147 458 c 0
 174 447 217 434 241 426 c 0
 252.717490566 422.528150944 264.058301885 420.751358494 274.368547216 420.751358494 c 0
 287.815660373 420.751358494 299.509716981 423.773792453 308 430 c 0
 323 443 334 494 342 598 c 0
 346 650 349 685 349 706 c 0
 349 732 345 740 335 740 c 0
 330 740 323 737 315 735 c 0
 288 726 195 696 126 696 c 0
 82 696 48 709 48 748 c 0
 48 772 66 799 91 819 c 0
 111.296991378 835.350354165 122.693442592 843.435921036 133.07505228 843.435921036 c 0
 141.106908007 843.435921036 148.531327585 838.596283047 159 829 c 0
 170 819 184 815 201 815 c 0
 250 815 314 848 341 865 c 0
 384 892 393 912 425 1060 c 0
 446 1150 481 1278 503 1341 c 0
 532 1426 558 1467 601 1502 c 0
 635 1530 675 1550 702 1550 c 0
 755 1550 829 1513 846 1479 c 0
 850 1465 856 1428 856 1400 c 0
 856 1371 825 1289 784 1208 c 0
 736 1113 675 1023 595 938 c 0
 477 808 479 809 454 669 c 0
 440 592 429 510 429 486 c 0
 429 458 438 441 453 441 c 0
 466 441 520 458 577 479 c 0
 678 515 887 622 950 685 c 0
 965 705 995 743 1010 772 c 0
 1025 801 1054 833 1069 843 c 0
 1077.06303621 848.131023046 1083.51419095 850.844223872 1089.63343817 850.844223872 c 0
 1100.21056131 850.844223872 1109.79603951 842.737953909 1125 825 c 0
 1143 805 1150 786 1150 746 c 0
 1150 715 1142 644 1142 613 c 0
 1142 575 1149 559 1164 545 c 0
 1176 533 1181 520 1181 509 c 0
 1181 474 1131 445 1082 445 c 0
 1030 445 998 477 987 521 c 0
 982 547 980 558 970 558 c 0
 961 558 946 550 920 534 c 0
 809 468 699 406 546 354 c 0
 413 306 405 299 392 249 c 0
 386 227 385 184 385 131 c 0
EndSplineSet
Ligature2: "liga" f i
EndChar

StartChar: uniFB02
Encoding: 64258 64258 132
Width: 1591
VWidth: 2708
Flags: HW
LayerCount: 2
Fore
SplineSet
681 1450 m 0
 670 1450 635 1429 604 1402 c 0
 534 1347 489 1218 462 1126 c 0
 453.794366383 1100.63713246 449.48399691 1076.38719753 449.48399691 1064.04293379 c 0
 449.48399691 1059.83918826 449.98386677 1057.01613323 451 1056 c 0
 451.433410853 1055.56658915 452.183810089 1055.35624419 453.216851157 1055.35624419 c 0
 461.717868224 1055.35624419 489.358934112 1069.60046512 517 1091 c 0
 581 1139 648 1253 682 1326 c 0
 692 1350 700 1388 700 1409 c 0
 700 1431 692 1450 681 1450 c 0
960 740 m 0
 960 793 983 897 983 940 c 0
 983 946 983 951 981 951 c 0
 973 951 897 887 807 804 c 0
 716 719 580 608 507 559 c 0
 378 469 374 466 363 388 c 0
 356 345 353 163 353 -20 c 0
 353 -46 353 -72 353 -95 c 0
 353 -262 349 -358 339 -368 c 0
 329 -378 307 -382 286 -379 c 0
 265 -376 236 -354 222 -327 c 0
 202 -295 188 -215 175 -81 c 0
 167 30 147 173 133 239 c 0
 119 305 97 383 79 411 c 0
 64 439 48 473 48 484 c 0
 48 546 146 555 212 555 c 0
 243 556 259 569 269 594 c 0
 280 619 301 769 301 825 c 0
 301 848 296 854 284 854 c 0
 274 854 254 849 241 849 c 0
 196 849 160 880 160 920 c 0
 160 934 167 958 175 971 c 0
 188 991 196 991 223 976 c 0
 241 965 269 955 287 955 c 0
 307 955 320 968 327 992 c 0
 338 1063 386 1252 413 1314 c 0
 445 1390 543 1507 614 1538 c 0
 641 1549 677 1559 695 1560 c 0
 715 1560 748 1548 772 1528 c 0
 803 1504 812 1479 812 1443 c 0
 812 1415 798 1348 780 1298 c 0
 735 1169 615 1043 513 965 c 0
 409 884 408 846 388 702 c 0
 385 681 383 666 383 655 c 0
 383 641 386 635 395 635 c 0
 408 635 432 649 475 673 c 0
 623 751 892 1020 996 1154 c 0
 1049 1223 1121 1338 1157 1408 c 0
 1196 1484 1232 1543 1254 1543 c 0
 1283 1543 1339 1504 1339 1482 c 0
 1339 1475 1284 1368 1218 1245 c 0
 1116 1059 1095 1002 1073 887 c 0
 1063 827 1054 778 1054 737 c 0
 1054 683 1069 645 1116 615 c 0
 1143 600 1172 594 1201 594 c 0
 1259 594 1319 619 1368 645 c 0
 1404 667 1458 685 1483 685 c 0
 1516 685 1543 673 1543 646 c 0
 1543 594 1400 516 1357 503 c 0
 1318 489 1259 478 1228 478 c 0
 1049 478 960 574 960 740 c 0
EndSplineSet
Ligature2: "liga" f l
EndChar

StartChar: uniFB03
Encoding: 64259 64259 133
Width: 1510
VWidth: 2432
Flags: HW
LayerCount: 2
Fore
SplineSet
1313 1074 m 0
 1313 1132 1335 1190 1388 1190 c 0
 1410 1190 1417 1178 1417 1142 c 0
 1417 1115 1426 1080 1437 1062 c 0
 1446 1050 1449 1040 1449 1033 c 0
 1449 1016 1427 1012 1393 1012 c 0
 1344 1012 1313 1030 1313 1074 c 0
798 299 m 0
 796 302 793 303 788 303 c 0
 759 303 685 264 685 259 c 0
 685 232 825 -24 839 -37 c 0
 861 -59 864 -56 854 -13 c 0
 848 19 816 281 798 299 c 0
647 1269 m 0
 633 1269 599 1238 572 1202 c 0
 547 1164 501 1090 476 1034 c 0
 451 983 434 933 434 917 c 0
 434 913 436 911 439 911 c 0
 450 911 482 936 520 975 c 0
 600 1058 637 1111 661 1219 c 0
 669 1258 667 1269 647 1269 c 0
1002 -316 m 0
 1002 -354 985 -371 951 -371 c 0
 926 -371 898 -352 873 -318 c 0
 852 -291 814 -231 789 -188 c 0
 765 -143 699 -20 644 91 c 0
 588 202 542 301 542 315 c 0
 542 363 587 375 637 386 c 0
 668 393 720 412 754 427 c 0
 811.06557377 456.983606557 812.00107498 457.966675625 812.00107498 572.912195294 c 0
 812.00107498 576.808653588 812 580.836065574 812 585 c 0
 812 655 806 712 798 712 c 0
 790 712 779 698 775 683 c 0
 771 668 702 593 628 516 c 0
 554 438 453 354 405 329 c 0
 320 280 318 278 318 92 c 0
 318 -28 327 -124 342 -174 c 0
 355 -217 367 -278 367 -310 c 0
 367 -357 351 -380 328 -380 c 0
 313 -380 296 -370 278 -353 c 0
 258 -333 233 -283 223 -237 c 0
 195 -128 132 99 86 191 c 0
 65 234 48 274 48 282 c 0
 48 290 80 308 119 322 c 0
 158 337 199 358 209 371 c 0
 222 386 251 617 251 679 c 0
 251 722 240 730 213 751 c 0
 191 769 179 789 179 805 c 0
 179 825 197 840 237 840 c 0
 280 840 287 847 311 931 c 0
 352 1070 426 1218 521 1313 c 0
 592 1387 611 1397 668 1397 c 0
 751 1397 779 1355 779 1278 c 0
 779 1125 703 1010 626 922 c 0
 592 886 527 831 479 803 c 0
 394 753 391 750 364 632 c 0
 349 566 336 498 335 478 c 0
 335 457 344 441 357 441 c 0
 370 441 433 491 502 555 c 0
 582 629 663 729 740 845 c 0
 837 992 860 1043 881 1142 c 0
 895 1208 918 1298 929 1341 c 0
 951 1419 952 1420 1021 1430 c 0
 1059 1434 1095 1442 1102 1442 c 0
 1103 1442 1105 1442 1106 1442 c 0
 1131 1442 1162 1386 1162 1360 c 0
 1162 1340 1124 1257 1078 1174 c 0
 1012 1059 984 987 959 872 c 0
 941 789 921 683 917 637 c 0
 915 621 914 606 914 592 c 0
 914 568 917 545 924 545 c 0
 937 545 1012 593 1098 658 c 0
 1186 725 1273 805 1293 833 c 0
 1315 869 1338 887 1363 887 c 0
 1408 887 1423 868 1423 828 c 0
 1423 813 1420 796 1417 775 c 0
 1409 736 1403 677 1402 645 c 0
 1402 606 1413 576 1435 554 c 0
 1452.6607376 538.105336156 1462.52393389 515.192885125 1462.52393389 493.525266779 c 0
 1462.52393389 490.655270863 1462.35088936 487.807114875 1462 485 c 0
 1459 449 1430 444 1379 444 c 0
 1318 444 1274 516 1274 579 c 0
 1274 610 1269 633 1262 630 c 0
 1254 629 1177 571 1087 505 c 0
 997 439 920 374 916 361 c 0
 915 359 915 356 915 351 c 0
 915 322 925 241 938 155 c 0
 953 54 978 -94 989 -174 c 0
 997 -230 1002 -283 1002 -316 c 0
EndSplineSet
Ligature2: "liga" f f i
EndChar

StartChar: c_k.liga
Encoding: 993082 993082 134
Width: 2240
VWidth: 3314
Flags: HW
LayerCount: 2
Fore
SplineSet
1883 261 m 0
 1954 261 2056 288 2121 288 c 0
 2164 288 2192 274 2192 229 c 0
 2192 202 2164 176 2115 155 c 0
 2069 138 1971 122 1885 122 c 0
 1773 122 1712 134 1653 168 c 0
 1609 193 1550 246 1522 288 c 0
 1492.88556503 329.77288496 1477.39122032 347.109725616 1462.33273054 347.109725616 c 0
 1453.59922399 347.109725616 1445.01232502 341.278170017 1434 331 c 0
 1402 303 1315 249 1250 249 c 0
 1206 249 1172 274 1172 348 c 0
 1172 397 1165 437 1148 437 c 0
 1140 437 1129 427 1117 405 c 0
 1104 380 1022 303 933 231 c 0
 844 159 715 75 650 43 c 0
 575 4 455 -29 347 -29 c 0
 148 -29 76 80 55 259 c 0
 50 286 48 312 48 336 c 0
 48 448 95 532 159 599 c 0
 233 679 429 841 541 875 c 0
 583 890 659 903 714 903 c 0
 722 903 730 904 737 904 c 0
 855 904 915 860 963 776 c 0
 984 739 994 718 994 694 c 0
 994 676 987 655 976 624 c 0
 944 533 933 514 819 514 c 0
 756 514 723 526 723 548 c 0
 723 563 738 584 769 609 c 0
 802.911738494 636.129390795 817.054778674 650.713261506 817.054778674 668.222172001 c 0
 817.054778674 679.110215481 811.585573412 691.129390795 802 708 c 0
 785 740 772 751 734 751 c 0
 718 751 697 749 669 746 c 0
 595 736 524 708 433 645 c 0
 361 597 287 530 266 500 c 0
 240 458 219 372 219 295 c 0
 219 248 226 205 245 177 c 0
 273 133 298 122 374 122 c 0
 423 122 507 143 562 168 c 0
 617 193 712 246 775 290 c 0
 861 349 921 419 1014 565 c 0
 1084 673 1162 798 1189 842 c 0
 1237 916 1301 1150 1301 1264 c 0
 1301 1332 1366 1513 1431 1513 c 0
 1488 1513 1535 1466 1535 1405 c 0
 1535 1399 1534 1393 1533 1386 c 0
 1518 1314 1481 1071 1453 1012 c 1
 1407 942 1351 679 1334 575 c 0
 1329.69135057 550.323189634 1327.83750576 528.868310325 1327.83750576 511.897377656 c 0
 1327.83750576 485.541448293 1332.30864943 470 1339 470 c 0
 1352 470 1406 517 1457 576 c 0
 1508 635 1569 708 1590 740 c 0
 1617 778 1675 851 1738 851 c 0
 1784 851 1824 809 1824 772 c 0
 1824 715 1651 516 1640 470 c 0
 1637.31135133 463.278378322 1635.99618068 454.966413675 1635.99618068 445.705487086 c 0
 1635.99618068 420.521873976 1645.72162168 388.320864784 1664 362 c 0
 1703 292 1780 261 1883 261 c 0
EndSplineSet
Ligature2: "dlig" c k
EndChar

